<svg width="86" height="40" viewBox="0 0 86 40" fill="none" xmlns="http://www.w3.org/2000/svg">
<g clip-path="url(#clip0_14_3555)">
<rect width="86" height="40" rx="20" fill="#CC6237"/>
<path d="M31.9888 23.2368V24.5H27.082V23.2368H31.9888ZM27.5327 15.2578V24.5H25.9395V15.2578H27.5327ZM31.3477 19.1172V20.3613H27.082V19.1172H31.3477ZM31.957 15.2578V16.5273H27.082V15.2578H31.957ZM34.6548 19.0981V24.5H33.125V17.6318H34.5659L34.6548 19.0981ZM34.3818 20.812L33.8867 20.8057C33.891 20.319 33.9587 19.8726 34.0898 19.4663C34.2253 19.0601 34.4115 18.7109 34.6484 18.4189C34.8896 18.127 35.1774 17.9027 35.5117 17.7461C35.846 17.5853 36.2184 17.5049 36.6289 17.5049C36.959 17.5049 37.2573 17.5514 37.5239 17.6445C37.7948 17.7334 38.0254 17.8794 38.2158 18.0825C38.4105 18.2856 38.5586 18.5501 38.6602 18.876C38.7617 19.1976 38.8125 19.5933 38.8125 20.063V24.5H37.2764V20.0566C37.2764 19.7266 37.2277 19.4663 37.1304 19.2759C37.0373 19.0812 36.8997 18.9437 36.7178 18.8633C36.54 18.7786 36.3179 18.7363 36.0513 18.7363C35.7889 18.7363 35.554 18.7913 35.3467 18.9014C35.1393 19.0114 34.9637 19.1616 34.8198 19.3521C34.6802 19.5425 34.5723 19.7625 34.4961 20.0122C34.4199 20.2619 34.3818 20.5285 34.3818 20.812ZM42.6084 23.2876L44.2905 17.6318H45.8774L43.4907 24.5H42.5005L42.6084 23.2876ZM41.3198 17.6318L43.0337 23.313L43.1162 24.5H42.126L39.7266 17.6318H41.3198ZM48.4609 17.6318V24.5H46.9248V17.6318H48.4609ZM46.8232 15.8291C46.8232 15.5964 46.8994 15.4038 47.0518 15.2515C47.2083 15.0949 47.4242 15.0166 47.6992 15.0166C47.9701 15.0166 48.1838 15.0949 48.3403 15.2515C48.4969 15.4038 48.5752 15.5964 48.5752 15.8291C48.5752 16.0576 48.4969 16.248 48.3403 16.4004C48.1838 16.5527 47.9701 16.6289 47.6992 16.6289C47.4242 16.6289 47.2083 16.5527 47.0518 16.4004C46.8994 16.248 46.8232 16.0576 46.8232 15.8291ZM54.0088 23.1226V19.8472C54.0088 19.6017 53.9644 19.3901 53.8755 19.2124C53.7866 19.0347 53.6512 18.8971 53.4692 18.7998C53.2915 18.7025 53.0672 18.6538 52.7964 18.6538C52.5467 18.6538 52.3309 18.6961 52.1489 18.7808C51.967 18.8654 51.8252 18.9797 51.7236 19.1235C51.6221 19.2674 51.5713 19.4303 51.5713 19.6123H50.0479C50.0479 19.3415 50.1134 19.0791 50.2446 18.8252C50.3758 18.5713 50.5662 18.3449 50.8159 18.146C51.0656 17.9471 51.3639 17.7905 51.7109 17.6763C52.0579 17.562 52.4473 17.5049 52.8789 17.5049C53.3952 17.5049 53.8522 17.5916 54.25 17.7651C54.652 17.9386 54.9673 18.201 55.1958 18.5522C55.4285 18.8993 55.5449 19.3351 55.5449 19.8599V22.9131C55.5449 23.2262 55.5661 23.5076 55.6084 23.7573C55.6549 24.0028 55.7205 24.2165 55.8052 24.3984V24.5H54.2373C54.1654 24.335 54.1082 24.1255 54.0659 23.8716C54.0278 23.6134 54.0088 23.3638 54.0088 23.1226ZM54.231 20.3232L54.2437 21.269H53.1455C52.862 21.269 52.6123 21.2965 52.3965 21.3516C52.1807 21.4023 52.0008 21.4785 51.8569 21.5801C51.7131 21.6816 51.6051 21.8044 51.5332 21.9482C51.4613 22.0921 51.4253 22.255 51.4253 22.437C51.4253 22.619 51.4676 22.7861 51.5522 22.9385C51.6369 23.0866 51.7596 23.203 51.9204 23.2876C52.0854 23.3722 52.2843 23.4146 52.5171 23.4146C52.8302 23.4146 53.1032 23.3511 53.3359 23.2241C53.5729 23.0929 53.7591 22.9342 53.8945 22.748C54.0299 22.5576 54.1019 22.3778 54.1104 22.2085L54.6055 22.8877C54.5547 23.0612 54.4679 23.2474 54.3452 23.4463C54.2225 23.6452 54.0617 23.8356 53.8628 24.0176C53.6681 24.1953 53.4333 24.3413 53.1582 24.4556C52.8874 24.5698 52.5742 24.627 52.2188 24.627C51.7702 24.627 51.3703 24.5381 51.019 24.3604C50.6678 24.1784 50.3927 23.9351 50.1938 23.6304C49.995 23.3215 49.8955 22.9723 49.8955 22.583C49.8955 22.2191 49.9632 21.8975 50.0986 21.6182C50.2383 21.3346 50.4414 21.0977 50.708 20.9072C50.9788 20.7168 51.3089 20.5729 51.6982 20.4756C52.0876 20.374 52.5319 20.3232 53.0312 20.3232H54.231ZM58.6807 18.9395V24.5H57.1509V17.6318H58.6108L58.6807 18.9395ZM60.7817 17.5874L60.769 19.0093C60.6759 18.9924 60.5744 18.9797 60.4644 18.9712C60.3586 18.9627 60.2528 18.9585 60.147 18.9585C59.8846 18.9585 59.654 18.9966 59.4551 19.0728C59.2562 19.1447 59.089 19.2505 58.9536 19.3901C58.8224 19.5256 58.7209 19.6906 58.6489 19.8853C58.577 20.0799 58.5347 20.2979 58.522 20.5391L58.1729 20.5645C58.1729 20.1328 58.2152 19.7329 58.2998 19.3647C58.3844 18.9966 58.5114 18.6729 58.6807 18.3936C58.8542 18.1143 59.07 17.8963 59.3281 17.7397C59.5905 17.5832 59.8931 17.5049 60.2358 17.5049C60.3289 17.5049 60.4284 17.5133 60.5342 17.5303C60.6442 17.5472 60.7267 17.5662 60.7817 17.5874Z" fill="white"/>
</g>
<defs>
<clipPath id="clip0_14_3555">
<rect width="86" height="40" fill="white"/>
</clipPath>
</defs>
</svg>
