<svg width="232" height="240" viewBox="0 0 232 240" fill="none" xmlns="http://www.w3.org/2000/svg">
<g filter="url(#filter0_d_56_6673)">
<rect x="10" y="6" width="212" height="220" rx="20" fill="white"/>
<rect x="20" y="16" width="192" height="40" rx="20" fill="black" fill-opacity="0.05"/>
<path d="M42.4053 36.3232H40.0503L40.0376 35.1616H42.0942C42.4412 35.1616 42.7354 35.1108 42.9766 35.0093C43.222 34.9035 43.4082 34.7533 43.5352 34.5586C43.6621 34.3597 43.7256 34.1206 43.7256 33.8413C43.7256 33.5324 43.6663 33.2806 43.5479 33.0859C43.4294 32.8913 43.2474 32.7495 43.002 32.6606C42.7607 32.5718 42.4518 32.5273 42.0752 32.5273H40.5327V40.5H38.9395V31.2578H42.0752C42.583 31.2578 43.0358 31.3065 43.4336 31.4038C43.8356 31.5011 44.1763 31.6535 44.4556 31.8608C44.7391 32.064 44.9528 32.3221 45.0967 32.6353C45.2448 32.9484 45.3188 33.3208 45.3188 33.7524C45.3188 34.1333 45.2279 34.4824 45.0459 34.7998C44.8639 35.113 44.5952 35.369 44.2397 35.5679C43.8843 35.7668 43.4421 35.8853 42.9131 35.9233L42.4053 36.3232ZM42.3354 40.5H39.5488L40.2661 39.2368H42.3354C42.6951 39.2368 42.9956 39.1776 43.2368 39.0591C43.478 38.9364 43.6579 38.7692 43.7764 38.5576C43.8991 38.3418 43.9604 38.09 43.9604 37.8022C43.9604 37.5018 43.9076 37.2415 43.8018 37.0215C43.696 36.7972 43.5288 36.6258 43.3003 36.5073C43.0718 36.3846 42.7734 36.3232 42.4053 36.3232H40.6152L40.6279 35.1616H42.9575L43.3193 35.5996C43.8271 35.6165 44.244 35.7287 44.5698 35.936C44.8999 36.1434 45.1453 36.4121 45.3062 36.7422C45.467 37.0723 45.5474 37.4277 45.5474 37.8086C45.5474 38.3968 45.4183 38.8898 45.1602 39.2876C44.9062 39.6854 44.5402 39.988 44.062 40.1953C43.5838 40.3984 43.0083 40.5 42.3354 40.5ZM51.1333 38.8813V33.6318H52.6694V40.5H51.2222L51.1333 38.8813ZM51.3491 37.4531L51.8633 37.4404C51.8633 37.9017 51.8125 38.327 51.7109 38.7163C51.6094 39.1014 51.4528 39.4378 51.2412 39.7256C51.0296 40.0091 50.7588 40.2313 50.4287 40.3921C50.0986 40.5487 49.703 40.627 49.2417 40.627C48.9074 40.627 48.6006 40.5783 48.3213 40.481C48.042 40.3836 47.8008 40.2334 47.5977 40.0303C47.3988 39.8271 47.2443 39.5627 47.1343 39.2368C47.0243 38.911 46.9692 38.5216 46.9692 38.0688V33.6318H48.499V38.0815C48.499 38.3312 48.5286 38.5407 48.5879 38.71C48.6471 38.875 48.7275 39.0083 48.8291 39.1099C48.9307 39.2114 49.0492 39.2834 49.1846 39.3257C49.32 39.368 49.4639 39.3892 49.6162 39.3892C50.0521 39.3892 50.3949 39.3045 50.6445 39.1353C50.8984 38.9618 51.0783 38.729 51.1841 38.437C51.2941 38.145 51.3491 37.8171 51.3491 37.4531ZM58.0903 38.6401C58.0903 38.4878 58.0522 38.3503 57.9761 38.2275C57.8999 38.1006 57.7539 37.9863 57.5381 37.8848C57.3265 37.7832 57.0133 37.6901 56.5986 37.6055C56.2347 37.5251 55.9004 37.4299 55.5957 37.3198C55.2952 37.2056 55.0371 37.068 54.8213 36.9072C54.6055 36.7464 54.4383 36.556 54.3198 36.3359C54.2013 36.1159 54.1421 35.862 54.1421 35.5742C54.1421 35.2949 54.2035 35.0304 54.3262 34.7808C54.4489 34.5311 54.6245 34.311 54.853 34.1206C55.0815 33.9302 55.3587 33.7799 55.6846 33.6699C56.0146 33.5599 56.3828 33.5049 56.7891 33.5049C57.3646 33.5049 57.8576 33.6022 58.2681 33.7969C58.6828 33.9873 59.0002 34.2476 59.2202 34.5776C59.4403 34.9035 59.5503 35.2716 59.5503 35.6821H58.0205C58.0205 35.5002 57.974 35.3309 57.8809 35.1743C57.792 35.0135 57.6566 34.8844 57.4746 34.7871C57.2926 34.6855 57.0641 34.6348 56.7891 34.6348C56.5267 34.6348 56.3088 34.6771 56.1353 34.7617C55.966 34.8421 55.839 34.9479 55.7544 35.0791C55.674 35.2103 55.6338 35.3542 55.6338 35.5107C55.6338 35.625 55.6549 35.7287 55.6973 35.8218C55.7438 35.9106 55.82 35.9932 55.9258 36.0693C56.0316 36.1413 56.1755 36.209 56.3574 36.2725C56.5436 36.3359 56.7764 36.3973 57.0557 36.4565C57.5804 36.5666 58.0311 36.7083 58.4077 36.8818C58.7886 37.0511 59.0806 37.2712 59.2837 37.542C59.4868 37.8086 59.5884 38.1471 59.5884 38.5576C59.5884 38.8623 59.5228 39.1416 59.3916 39.3955C59.2646 39.6452 59.0785 39.8631 58.833 40.0493C58.5876 40.2313 58.2935 40.373 57.9507 40.4746C57.6121 40.5762 57.2313 40.627 56.8081 40.627C56.186 40.627 55.6592 40.5169 55.2275 40.2969C54.7959 40.0726 54.4679 39.7869 54.2437 39.4399C54.0236 39.0887 53.9136 38.7248 53.9136 38.3481H55.3926C55.4095 38.6317 55.4878 38.8581 55.6274 39.0273C55.7713 39.1924 55.9491 39.313 56.1606 39.3892C56.3765 39.4611 56.5986 39.4971 56.8271 39.4971C57.1022 39.4971 57.3328 39.4611 57.519 39.3892C57.7052 39.313 57.847 39.2114 57.9443 39.0845C58.0417 38.9533 58.0903 38.8052 58.0903 38.6401ZM63.7334 39.4082C63.9831 39.4082 64.2074 39.3595 64.4062 39.2622C64.6094 39.1606 64.7723 39.021 64.895 38.8433C65.022 38.6655 65.0918 38.4603 65.1045 38.2275H66.5454C66.5369 38.6719 66.4058 39.076 66.1519 39.4399C65.8979 39.8039 65.5615 40.0938 65.1426 40.3096C64.7236 40.5212 64.2603 40.627 63.7524 40.627C63.2277 40.627 62.7707 40.5381 62.3813 40.3604C61.992 40.1784 61.6683 39.9287 61.4102 39.6113C61.152 39.2939 60.9574 38.9279 60.8262 38.5132C60.6992 38.0985 60.6357 37.6541 60.6357 37.1802V36.958C60.6357 36.484 60.6992 36.0397 60.8262 35.625C60.9574 35.2061 61.152 34.8379 61.4102 34.5205C61.6683 34.2031 61.992 33.9556 62.3813 33.7778C62.7707 33.5959 63.2256 33.5049 63.7461 33.5049C64.2962 33.5049 64.7786 33.6149 65.1934 33.835C65.6081 34.0508 65.9339 34.3534 66.1709 34.7427C66.4121 35.1278 66.5369 35.5763 66.5454 36.0884H65.1045C65.0918 35.8345 65.0283 35.606 64.9141 35.4028C64.804 35.1955 64.6475 35.0304 64.4443 34.9077C64.2454 34.785 64.0063 34.7236 63.7271 34.7236C63.4181 34.7236 63.1621 34.7871 62.959 34.9141C62.7559 35.0368 62.5972 35.2061 62.4829 35.4219C62.3687 35.6335 62.2861 35.8726 62.2354 36.1392C62.1888 36.4015 62.1655 36.6745 62.1655 36.958V37.1802C62.1655 37.4637 62.1888 37.7388 62.2354 38.0054C62.2819 38.272 62.3623 38.5111 62.4766 38.7227C62.5951 38.93 62.7559 39.0972 62.959 39.2241C63.1621 39.3468 63.4202 39.4082 63.7334 39.4082ZM71.5918 39.1226V35.8472C71.5918 35.6017 71.5474 35.3901 71.4585 35.2124C71.3696 35.0347 71.2342 34.8971 71.0522 34.7998C70.8745 34.7025 70.6502 34.6538 70.3794 34.6538C70.1297 34.6538 69.9139 34.6961 69.7319 34.7808C69.55 34.8654 69.4082 34.9797 69.3066 35.1235C69.2051 35.2674 69.1543 35.4303 69.1543 35.6123H67.6309C67.6309 35.3415 67.6965 35.0791 67.8276 34.8252C67.9588 34.5713 68.1493 34.3449 68.3989 34.146C68.6486 33.9471 68.9469 33.7905 69.2939 33.6763C69.641 33.562 70.0303 33.5049 70.4619 33.5049C70.9782 33.5049 71.4352 33.5916 71.833 33.7651C72.235 33.9386 72.5503 34.201 72.7788 34.5522C73.0116 34.8993 73.1279 35.3351 73.1279 35.8599V38.9131C73.1279 39.2262 73.1491 39.5076 73.1914 39.7573C73.238 40.0028 73.3035 40.2165 73.3882 40.3984V40.5H71.8203C71.7484 40.335 71.6912 40.1255 71.6489 39.8716C71.6108 39.6134 71.5918 39.3638 71.5918 39.1226ZM71.814 36.3232L71.8267 37.269H70.7285C70.445 37.269 70.1953 37.2965 69.9795 37.3516C69.7637 37.4023 69.5838 37.4785 69.4399 37.5801C69.2961 37.6816 69.1882 37.8044 69.1162 37.9482C69.0443 38.0921 69.0083 38.255 69.0083 38.437C69.0083 38.619 69.0506 38.7861 69.1353 38.9385C69.2199 39.0866 69.3426 39.203 69.5034 39.2876C69.6685 39.3722 69.8674 39.4146 70.1001 39.4146C70.4132 39.4146 70.6862 39.3511 70.9189 39.2241C71.1559 39.0929 71.3421 38.9342 71.4775 38.748C71.613 38.5576 71.6849 38.3778 71.6934 38.2085L72.1885 38.8877C72.1377 39.0612 72.0509 39.2474 71.9282 39.4463C71.8055 39.6452 71.6447 39.8356 71.4458 40.0176C71.2511 40.1953 71.0163 40.3413 70.7412 40.4556C70.4704 40.5698 70.1572 40.627 69.8018 40.627C69.3532 40.627 68.9533 40.5381 68.6021 40.3604C68.2508 40.1784 67.9757 39.9351 67.7769 39.6304C67.578 39.3215 67.4785 38.9723 67.4785 38.583C67.4785 38.2191 67.5462 37.8975 67.6816 37.6182C67.8213 37.3346 68.0244 37.0977 68.291 36.9072C68.5618 36.7168 68.8919 36.5729 69.2812 36.4756C69.6706 36.374 70.1149 36.3232 70.6143 36.3232H71.814ZM76.2637 34.9395V40.5H74.7339V33.6318H76.1938L76.2637 34.9395ZM78.3647 33.5874L78.3521 35.0093C78.259 34.9924 78.1574 34.9797 78.0474 34.9712C77.9416 34.9627 77.8358 34.9585 77.73 34.9585C77.4676 34.9585 77.237 34.9966 77.0381 35.0728C76.8392 35.1447 76.672 35.2505 76.5366 35.3901C76.4054 35.5256 76.3039 35.6906 76.2319 35.8853C76.16 36.0799 76.1177 36.2979 76.105 36.5391L75.7559 36.5645C75.7559 36.1328 75.7982 35.7329 75.8828 35.3647C75.9674 34.9966 76.0944 34.6729 76.2637 34.3936C76.4372 34.1143 76.653 33.8963 76.9111 33.7397C77.1735 33.5832 77.4761 33.5049 77.8188 33.5049C77.9119 33.5049 78.0114 33.5133 78.1172 33.5303C78.2272 33.5472 78.3097 33.5662 78.3647 33.5874Z" fill="black"/>
<path d="M191 45L186.657 40.657M186.657 40.657C187.4 39.9141 187.989 39.0322 188.391 38.0615C188.793 37.0909 189 36.0506 189 35C189 33.9494 188.793 32.9091 188.391 31.9385C187.989 30.9678 187.4 30.0859 186.657 29.343C185.914 28.6001 185.032 28.0108 184.062 27.6088C183.091 27.2067 182.051 26.9998 181 26.9998C179.949 26.9998 178.909 27.2067 177.938 27.6088C176.968 28.0108 176.086 28.6001 175.343 29.343C173.843 30.8433 173 32.8782 173 35C173 37.1218 173.843 39.1567 175.343 40.657C176.843 42.1573 178.878 43.0002 181 43.0002C183.122 43.0002 185.157 42.1573 186.657 40.657Z" stroke="black" stroke-linecap="round" stroke-linejoin="round"/>
<path d="M32.5327 73.7578V83H30.9395V73.7578H32.5327ZM36.3032 77.8013V79.0645H32.1265V77.8013H36.3032ZM36.8301 73.7578V75.0273H32.1265V73.7578H36.8301ZM43.8887 81.7368V83H39.2485V81.7368H43.8887ZM39.6929 73.7578V83H38.0996V73.7578H39.6929ZM52.0708 78.125V78.6328C52.0708 79.3311 51.9798 79.9574 51.7979 80.5117C51.6159 81.0661 51.3556 81.5379 51.0171 81.9272C50.6828 82.3166 50.2808 82.6149 49.811 82.8223C49.3413 83.0254 48.8208 83.127 48.2495 83.127C47.6825 83.127 47.1641 83.0254 46.6943 82.8223C46.2288 82.6149 45.8247 82.3166 45.4819 81.9272C45.1392 81.5379 44.8726 81.0661 44.6821 80.5117C44.4959 79.9574 44.4028 79.3311 44.4028 78.6328V78.125C44.4028 77.4268 44.4959 76.8026 44.6821 76.2524C44.8683 75.6981 45.1307 75.2262 45.4692 74.8369C45.812 74.4434 46.2161 74.145 46.6816 73.9419C47.1514 73.7345 47.6698 73.6309 48.2368 73.6309C48.8081 73.6309 49.3286 73.7345 49.7983 73.9419C50.2681 74.145 50.6722 74.4434 51.0107 74.8369C51.3493 75.2262 51.6095 75.6981 51.7915 76.2524C51.9777 76.8026 52.0708 77.4268 52.0708 78.125ZM50.4775 78.6328V78.1123C50.4775 77.596 50.4268 77.1411 50.3252 76.7476C50.2279 76.3498 50.0819 76.0176 49.8872 75.751C49.6968 75.4801 49.4619 75.277 49.1826 75.1416C48.9033 75.002 48.5881 74.9321 48.2368 74.9321C47.8856 74.9321 47.5724 75.002 47.2974 75.1416C47.0223 75.277 46.7874 75.4801 46.5928 75.751C46.4023 76.0176 46.2563 76.3498 46.1548 76.7476C46.0532 77.1411 46.0024 77.596 46.0024 78.1123V78.6328C46.0024 79.1491 46.0532 79.6061 46.1548 80.0039C46.2563 80.4017 46.4045 80.7381 46.5991 81.0132C46.798 81.284 47.035 81.4893 47.3101 81.6289C47.5851 81.7643 47.8983 81.832 48.2495 81.832C48.605 81.832 48.9202 81.7643 49.1953 81.6289C49.4704 81.4893 49.7031 81.284 49.8936 81.0132C50.084 80.7381 50.2279 80.4017 50.3252 80.0039C50.4268 79.6061 50.4775 79.1491 50.4775 78.6328ZM53.6641 73.7578H56.9331C57.6356 73.7578 58.2344 73.8636 58.7295 74.0752C59.2246 74.2868 59.6034 74.5999 59.8657 75.0146C60.1323 75.4251 60.2656 75.9329 60.2656 76.5381C60.2656 76.9993 60.181 77.4056 60.0117 77.7568C59.8424 78.1081 59.6034 78.4043 59.2944 78.6455C58.9855 78.8825 58.6174 79.0666 58.1899 79.1978L57.7075 79.4326H54.7686L54.7559 78.1694H56.9585C57.3394 78.1694 57.6567 78.1017 57.9106 77.9663C58.1646 77.8309 58.355 77.6468 58.4819 77.4141C58.6131 77.1771 58.6787 76.9105 58.6787 76.6143C58.6787 76.2926 58.6152 76.0133 58.4883 75.7764C58.3656 75.5352 58.1751 75.3511 57.917 75.2241C57.6589 75.0929 57.3309 75.0273 56.9331 75.0273H55.2573V83H53.6641V73.7578ZM58.939 83L56.7681 78.8486L58.4375 78.8423L60.6401 82.9175V83H58.939ZM67.9019 81.7368V83H62.9951V81.7368H67.9019ZM63.4458 73.7578V83H61.8525V73.7578H63.4458ZM67.2607 77.6172V78.8613H62.9951V77.6172H67.2607ZM67.8701 73.7578V75.0273H62.9951V73.7578H67.8701ZM65.3564 71.2314L67.1147 72.9834V73.0532H65.877L64.9058 72.0566L63.9346 73.0532H62.7222V72.9707L64.4551 71.2314H65.3564ZM76.5347 73.7578V83H74.9414L70.7964 76.3794V83H69.2031V73.7578H70.7964L74.9541 80.3911V73.7578H76.5347ZM83.8916 79.9912H85.4785C85.4277 80.5964 85.2585 81.1359 84.9707 81.6099C84.6829 82.0796 84.2788 82.4499 83.7583 82.7207C83.2378 82.9915 82.6051 83.127 81.8604 83.127C81.2891 83.127 80.7749 83.0254 80.3179 82.8223C79.8608 82.6149 79.4694 82.3229 79.1436 81.9463C78.8177 81.5654 78.568 81.1063 78.3945 80.5688C78.2253 80.0314 78.1406 79.4305 78.1406 78.7661V77.998C78.1406 77.3337 78.2274 76.7327 78.4009 76.1953C78.5786 75.6579 78.8325 75.1987 79.1626 74.8179C79.4927 74.4328 79.8883 74.1387 80.3496 73.9355C80.8151 73.7324 81.3377 73.6309 81.9175 73.6309C82.6538 73.6309 83.2759 73.7663 83.7837 74.0371C84.2915 74.3079 84.6851 74.6825 84.9644 75.1606C85.2479 75.6388 85.4214 76.1868 85.4849 76.8047H83.8979C83.8556 76.4069 83.7625 76.0662 83.6187 75.7827C83.479 75.4992 83.2716 75.2834 82.9966 75.1353C82.7215 74.9829 82.3618 74.9067 81.9175 74.9067C81.5535 74.9067 81.2362 74.9744 80.9653 75.1099C80.6945 75.2453 80.4681 75.4442 80.2861 75.7065C80.1042 75.9689 79.9666 76.2926 79.8735 76.6777C79.7847 77.0586 79.7402 77.4945 79.7402 77.9854V78.7661C79.7402 79.2316 79.7804 79.6548 79.8608 80.0356C79.9455 80.4123 80.0724 80.736 80.2417 81.0068C80.4152 81.2777 80.6353 81.4871 80.9019 81.6353C81.1685 81.7834 81.488 81.8574 81.8604 81.8574C82.3132 81.8574 82.6792 81.7855 82.9585 81.6416C83.242 81.4977 83.4557 81.2882 83.5996 81.0132C83.7477 80.7339 83.8451 80.3932 83.8916 79.9912ZM88.627 73.7578V83H87.0337V73.7578H88.627ZM97.9771 78.125V78.6328C97.9771 79.3311 97.8861 79.9574 97.7041 80.5117C97.5221 81.0661 97.2619 81.5379 96.9233 81.9272C96.589 82.3166 96.187 82.6149 95.7173 82.8223C95.2476 83.0254 94.7271 83.127 94.1558 83.127C93.5887 83.127 93.0703 83.0254 92.6006 82.8223C92.1351 82.6149 91.731 82.3166 91.3882 81.9272C91.0454 81.5379 90.7788 81.0661 90.5884 80.5117C90.4022 79.9574 90.3091 79.3311 90.3091 78.6328V78.125C90.3091 77.4268 90.4022 76.8026 90.5884 76.2524C90.7746 75.6981 91.0369 75.2262 91.3755 74.8369C91.7183 74.4434 92.1224 74.145 92.5879 73.9419C93.0576 73.7345 93.576 73.6309 94.1431 73.6309C94.7144 73.6309 95.2349 73.7345 95.7046 73.9419C96.1743 74.145 96.5785 74.4434 96.917 74.8369C97.2555 75.2262 97.5158 75.6981 97.6978 76.2524C97.884 76.8026 97.9771 77.4268 97.9771 78.125ZM96.3838 78.6328V78.1123C96.3838 77.596 96.333 77.1411 96.2314 76.7476C96.1341 76.3498 95.9881 76.0176 95.7935 75.751C95.603 75.4801 95.3682 75.277 95.0889 75.1416C94.8096 75.002 94.4943 74.9321 94.1431 74.9321C93.7918 74.9321 93.4787 75.002 93.2036 75.1416C92.9285 75.277 92.6937 75.4801 92.499 75.751C92.3086 76.0176 92.1626 76.3498 92.061 76.7476C91.9595 77.1411 91.9087 77.596 91.9087 78.1123V78.6328C91.9087 79.1491 91.9595 79.6061 92.061 80.0039C92.1626 80.4017 92.3107 80.7381 92.5054 81.0132C92.7043 81.284 92.9412 81.4893 93.2163 81.6289C93.4914 81.7643 93.8045 81.832 94.1558 81.832C94.5112 81.832 94.8265 81.7643 95.1016 81.6289C95.3766 81.4893 95.6094 81.284 95.7998 81.0132C95.9902 80.7381 96.1341 80.4017 96.2314 80.0039C96.333 79.6061 96.3838 79.1491 96.3838 78.6328ZM106.61 80.2261V73.7578H108.197V80.2261C108.197 80.8397 108.066 81.3623 107.803 81.7939C107.541 82.2256 107.183 82.5557 106.73 82.7842C106.278 83.0127 105.764 83.127 105.188 83.127C104.6 83.127 104.077 83.0275 103.62 82.8286C103.167 82.6297 102.812 82.325 102.554 81.9146C102.296 81.5041 102.167 80.9836 102.167 80.353H103.766C103.766 80.717 103.823 81.0111 103.938 81.2354C104.056 81.4554 104.221 81.6162 104.433 81.7178C104.648 81.8151 104.9 81.8638 105.188 81.8638C105.463 81.8638 105.706 81.8024 105.918 81.6797C106.134 81.5527 106.303 81.3687 106.426 81.1274C106.549 80.882 106.61 80.5815 106.61 80.2261ZM117.401 78.125V78.6328C117.401 79.3311 117.31 79.9574 117.128 80.5117C116.946 81.0661 116.686 81.5379 116.347 81.9272C116.013 82.3166 115.611 82.6149 115.141 82.8223C114.671 83.0254 114.151 83.127 113.58 83.127C113.013 83.127 112.494 83.0254 112.024 82.8223C111.559 82.6149 111.155 82.3166 110.812 81.9272C110.469 81.5379 110.203 81.0661 110.012 80.5117C109.826 79.9574 109.733 79.3311 109.733 78.6328V78.125C109.733 77.4268 109.826 76.8026 110.012 76.2524C110.198 75.6981 110.461 75.2262 110.799 74.8369C111.142 74.4434 111.546 74.145 112.012 73.9419C112.481 73.7345 113 73.6309 113.567 73.6309C114.138 73.6309 114.659 73.7345 115.128 73.9419C115.598 74.145 116.002 74.4434 116.341 74.8369C116.679 75.2262 116.94 75.6981 117.122 76.2524C117.308 76.8026 117.401 77.4268 117.401 78.125ZM115.808 78.6328V78.1123C115.808 77.596 115.757 77.1411 115.655 76.7476C115.558 76.3498 115.412 76.0176 115.217 75.751C115.027 75.4801 114.792 75.277 114.513 75.1416C114.233 75.002 113.918 74.9321 113.567 74.9321C113.216 74.9321 112.903 75.002 112.627 75.1416C112.352 75.277 112.118 75.4801 111.923 75.751C111.732 76.0176 111.586 76.3498 111.485 76.7476C111.383 77.1411 111.333 77.596 111.333 78.1123V78.6328C111.333 79.1491 111.383 79.6061 111.485 80.0039C111.586 80.4017 111.735 80.7381 111.929 81.0132C112.128 81.284 112.365 81.4893 112.64 81.6289C112.915 81.7643 113.228 81.832 113.58 81.832C113.935 81.832 114.25 81.7643 114.525 81.6289C114.8 81.4893 115.033 81.284 115.224 81.0132C115.414 80.7381 115.558 80.4017 115.655 80.0039C115.757 79.6061 115.808 79.1491 115.808 78.6328ZM123.856 80.6196C123.856 80.4292 123.827 80.2599 123.768 80.1118C123.713 79.9637 123.613 79.8283 123.469 79.7056C123.325 79.5828 123.122 79.4644 122.86 79.3501C122.602 79.2316 122.272 79.111 121.87 78.9883C121.43 78.8529 121.023 78.7026 120.651 78.5376C120.283 78.3683 119.961 78.1737 119.686 77.9536C119.411 77.7293 119.197 77.4733 119.045 77.1855C118.893 76.8936 118.816 76.5571 118.816 76.1763C118.816 75.7996 118.895 75.4569 119.051 75.1479C119.212 74.839 119.438 74.5724 119.73 74.3481C120.027 74.1196 120.376 73.944 120.778 73.8213C121.18 73.6943 121.624 73.6309 122.111 73.6309C122.796 73.6309 123.387 73.7578 123.882 74.0117C124.381 74.2656 124.764 74.6063 125.031 75.0337C125.302 75.4611 125.437 75.9329 125.437 76.4492H123.856C123.856 76.1445 123.791 75.8758 123.66 75.6431C123.533 75.4061 123.338 75.2199 123.076 75.0845C122.818 74.9491 122.49 74.8813 122.092 74.8813C121.715 74.8813 121.402 74.9385 121.152 75.0527C120.903 75.167 120.716 75.3215 120.594 75.5161C120.471 75.7108 120.41 75.9308 120.41 76.1763C120.41 76.3498 120.45 76.5085 120.53 76.6523C120.611 76.792 120.733 76.9232 120.898 77.0459C121.063 77.1644 121.271 77.2765 121.521 77.3823C121.77 77.4881 122.064 77.5897 122.403 77.687C122.915 77.8394 123.361 78.0086 123.742 78.1948C124.123 78.3768 124.44 78.5841 124.694 78.8169C124.948 79.0496 125.139 79.3141 125.266 79.6104C125.393 79.9023 125.456 80.2345 125.456 80.6069C125.456 80.9963 125.378 81.3475 125.221 81.6606C125.065 81.9696 124.84 82.234 124.548 82.4541C124.261 82.6699 123.914 82.8371 123.507 82.9556C123.105 83.0698 122.657 83.127 122.162 83.127C121.717 83.127 121.279 83.0677 120.848 82.9492C120.42 82.8307 120.031 82.6509 119.68 82.4097C119.328 82.1642 119.049 81.8595 118.842 81.4956C118.634 81.1274 118.531 80.6979 118.531 80.207H120.124C120.124 80.5075 120.175 80.7635 120.276 80.9751C120.382 81.1867 120.528 81.3602 120.714 81.4956C120.901 81.6268 121.116 81.7241 121.362 81.7876C121.611 81.8511 121.878 81.8828 122.162 81.8828C122.534 81.8828 122.845 81.8299 123.095 81.7241C123.349 81.6183 123.539 81.4702 123.666 81.2798C123.793 81.0894 123.856 80.8693 123.856 80.6196ZM132.915 81.7368V83H128.008V81.7368H132.915ZM128.458 73.7578V83H126.865V73.7578H128.458ZM132.273 77.6172V78.8613H128.008V77.6172H132.273ZM132.883 73.7578V75.0273H128.008V73.7578H132.883ZM129.144 73.1421L130.382 71.2314H132.108L130.382 73.1421H129.144ZM140.963 79.5532H138.558V78.29H140.963C141.382 78.29 141.721 78.2223 141.979 78.0869C142.237 77.9515 142.425 77.7653 142.544 77.5283C142.667 77.2871 142.728 77.012 142.728 76.7031C142.728 76.4111 142.667 76.1382 142.544 75.8843C142.425 75.6261 142.237 75.4188 141.979 75.2622C141.721 75.1056 141.382 75.0273 140.963 75.0273H139.046V83H137.453V73.7578H140.963C141.679 73.7578 142.286 73.8848 142.785 74.1387C143.289 74.3883 143.672 74.7354 143.934 75.1797C144.196 75.6198 144.328 76.1234 144.328 76.6904C144.328 77.2871 144.196 77.7992 143.934 78.2266C143.672 78.654 143.289 78.9819 142.785 79.2104C142.286 79.439 141.679 79.5532 140.963 79.5532ZM151.805 81.7368V83H146.898V81.7368H151.805ZM147.349 73.7578V83H145.756V73.7578H147.349ZM151.164 77.6172V78.8613H146.898V77.6172H151.164ZM151.773 73.7578V75.0273H146.898V73.7578H151.773ZM153.106 73.7578H156.375C157.078 73.7578 157.677 73.8636 158.172 74.0752C158.667 74.2868 159.046 74.5999 159.308 75.0146C159.575 75.4251 159.708 75.9329 159.708 76.5381C159.708 76.9993 159.623 77.4056 159.454 77.7568C159.285 78.1081 159.046 78.4043 158.737 78.6455C158.428 78.8825 158.06 79.0666 157.632 79.1978L157.15 79.4326H154.211L154.198 78.1694H156.401C156.782 78.1694 157.099 78.1017 157.353 77.9663C157.607 77.8309 157.797 77.6468 157.924 77.4141C158.056 77.1771 158.121 76.9105 158.121 76.6143C158.121 76.2926 158.058 76.0133 157.931 75.7764C157.808 75.5352 157.618 75.3511 157.359 75.2241C157.101 75.0929 156.773 75.0273 156.375 75.0273H154.7V83H153.106V73.7578ZM158.381 83L156.21 78.8486L157.88 78.8423L160.083 82.9175V83H158.381ZM167.344 81.7368V83H162.438V81.7368H167.344ZM162.888 73.7578V83H161.295V73.7578H162.888ZM166.703 77.6172V78.8613H162.438V77.6172H166.703ZM167.312 73.7578V75.0273H162.438V73.7578H167.312ZM170.347 73.7578V83H168.753V73.7578H170.347ZM172.327 73.7578H175.596C176.299 73.7578 176.897 73.8636 177.393 74.0752C177.888 74.2868 178.266 74.5999 178.529 75.0146C178.795 75.4251 178.929 75.9329 178.929 76.5381C178.929 76.9993 178.844 77.4056 178.675 77.7568C178.506 78.1081 178.266 78.4043 177.958 78.6455C177.649 78.8825 177.28 79.0666 176.853 79.1978L176.371 79.4326H173.432L173.419 78.1694H175.622C176.002 78.1694 176.32 78.1017 176.574 77.9663C176.828 77.8309 177.018 77.6468 177.145 77.4141C177.276 77.1771 177.342 76.9105 177.342 76.6143C177.342 76.2926 177.278 76.0133 177.151 75.7764C177.029 75.5352 176.838 75.3511 176.58 75.2241C176.322 75.0929 175.994 75.0273 175.596 75.0273H173.92V83H172.327V73.7578ZM177.602 83L175.431 78.8486L177.101 78.8423L179.303 82.9175V83H177.602ZM184.115 74.9893L181.354 83H179.684L183.163 73.7578H184.229L184.115 74.9893ZM186.425 83L183.658 74.9893L183.537 73.7578H184.61L188.101 83H186.425ZM186.292 79.5723V80.8354H181.265V79.5723H186.292Z" fill="#CC6237"/>
<path d="M36.3984 109.991H37.9854C37.9346 110.596 37.7653 111.136 37.4775 111.61C37.1898 112.08 36.7856 112.45 36.2651 112.721C35.7446 112.992 35.112 113.127 34.3672 113.127C33.7959 113.127 33.2817 113.025 32.8247 112.822C32.3677 112.615 31.9762 112.323 31.6504 111.946C31.3245 111.565 31.0749 111.106 30.9014 110.569C30.7321 110.031 30.6475 109.431 30.6475 108.766V107.998C30.6475 107.334 30.7342 106.733 30.9077 106.195C31.0854 105.658 31.3394 105.199 31.6694 104.818C31.9995 104.433 32.3952 104.139 32.8564 103.936C33.3219 103.732 33.8446 103.631 34.4243 103.631C35.1606 103.631 35.7827 103.766 36.2905 104.037C36.7983 104.308 37.1919 104.682 37.4712 105.161C37.7547 105.639 37.9282 106.187 37.9917 106.805H36.4048C36.3625 106.407 36.2694 106.066 36.1255 105.783C35.9858 105.499 35.7785 105.283 35.5034 105.135C35.2284 104.983 34.8687 104.907 34.4243 104.907C34.0604 104.907 33.743 104.974 33.4722 105.11C33.2013 105.245 32.9749 105.444 32.793 105.707C32.611 105.969 32.4735 106.293 32.3804 106.678C32.2915 107.059 32.2471 107.494 32.2471 107.985V108.766C32.2471 109.232 32.2873 109.655 32.3677 110.036C32.4523 110.412 32.5793 110.736 32.7485 111.007C32.922 111.278 33.1421 111.487 33.4087 111.635C33.6753 111.783 33.9948 111.857 34.3672 111.857C34.82 111.857 35.186 111.785 35.4653 111.642C35.7489 111.498 35.9626 111.288 36.1064 111.013C36.2546 110.734 36.3519 110.393 36.3984 109.991ZM46.8022 108.125V108.633C46.8022 109.331 46.7113 109.957 46.5293 110.512C46.3473 111.066 46.0871 111.538 45.7485 111.927C45.4142 112.317 45.0122 112.615 44.5425 112.822C44.0728 113.025 43.5522 113.127 42.981 113.127C42.4139 113.127 41.8955 113.025 41.4258 112.822C40.9603 112.615 40.5562 112.317 40.2134 111.927C39.8706 111.538 39.604 111.066 39.4136 110.512C39.2274 109.957 39.1343 109.331 39.1343 108.633V108.125C39.1343 107.427 39.2274 106.803 39.4136 106.252C39.5998 105.698 39.8621 105.226 40.2007 104.837C40.5435 104.443 40.9476 104.145 41.4131 103.942C41.8828 103.735 42.4012 103.631 42.9683 103.631C43.5396 103.631 44.0601 103.735 44.5298 103.942C44.9995 104.145 45.4036 104.443 45.7422 104.837C46.0807 105.226 46.341 105.698 46.5229 106.252C46.7091 106.803 46.8022 107.427 46.8022 108.125ZM45.209 108.633V108.112C45.209 107.596 45.1582 107.141 45.0566 106.748C44.9593 106.35 44.8133 106.018 44.6187 105.751C44.4282 105.48 44.1934 105.277 43.9141 105.142C43.6348 105.002 43.3195 104.932 42.9683 104.932C42.617 104.932 42.3039 105.002 42.0288 105.142C41.7537 105.277 41.5189 105.48 41.3242 105.751C41.1338 106.018 40.9878 106.35 40.8862 106.748C40.7847 107.141 40.7339 107.596 40.7339 108.112V108.633C40.7339 109.149 40.7847 109.606 40.8862 110.004C40.9878 110.402 41.1359 110.738 41.3306 111.013C41.5295 111.284 41.7664 111.489 42.0415 111.629C42.3166 111.764 42.6297 111.832 42.981 111.832C43.3364 111.832 43.6517 111.764 43.9268 111.629C44.2018 111.489 44.4346 111.284 44.625 111.013C44.8154 110.738 44.9593 110.402 45.0566 110.004C45.1582 109.606 45.209 109.149 45.209 108.633ZM48.3955 103.758H51.6646C52.367 103.758 52.9658 103.864 53.4609 104.075C53.9561 104.287 54.3348 104.6 54.5972 105.015C54.8638 105.425 54.9971 105.933 54.9971 106.538C54.9971 106.999 54.9124 107.406 54.7432 107.757C54.5739 108.108 54.3348 108.404 54.0259 108.646C53.717 108.882 53.3488 109.067 52.9214 109.198L52.439 109.433H49.5L49.4873 108.169H51.6899C52.0708 108.169 52.3882 108.102 52.6421 107.966C52.896 107.831 53.0864 107.647 53.2134 107.414C53.3446 107.177 53.4102 106.91 53.4102 106.614C53.4102 106.293 53.3467 106.013 53.2197 105.776C53.097 105.535 52.9066 105.351 52.6484 105.224C52.3903 105.093 52.0623 105.027 51.6646 105.027H49.9888V113H48.3955V103.758ZM53.6704 113L51.4995 108.849L53.1689 108.842L55.3716 112.917V113H53.6704ZM60.1831 104.989L57.4219 113H55.7524L59.231 103.758H60.2974L60.1831 104.989ZM62.4937 113L59.7261 104.989L59.6055 103.758H60.6782L64.1694 113H62.4937ZM62.3604 109.572V110.835H57.333V109.572H62.3604ZM70.5615 109.991H72.1484C72.0977 110.596 71.9284 111.136 71.6406 111.61C71.3529 112.08 70.9487 112.45 70.4282 112.721C69.9077 112.992 69.2751 113.127 68.5303 113.127C67.959 113.127 67.4448 113.025 66.9878 112.822C66.5308 112.615 66.1393 112.323 65.8135 111.946C65.4876 111.565 65.238 111.106 65.0645 110.569C64.8952 110.031 64.8105 109.431 64.8105 108.766V107.998C64.8105 107.334 64.8973 106.733 65.0708 106.195C65.2485 105.658 65.5024 105.199 65.8325 104.818C66.1626 104.433 66.5583 104.139 67.0195 103.936C67.485 103.732 68.0076 103.631 68.5874 103.631C69.3237 103.631 69.9458 103.766 70.4536 104.037C70.9614 104.308 71.355 104.682 71.6343 105.161C71.9178 105.639 72.0913 106.187 72.1548 106.805H70.5679C70.5256 106.407 70.4325 106.066 70.2886 105.783C70.1489 105.499 69.9416 105.283 69.6665 105.135C69.3914 104.983 69.0317 104.907 68.5874 104.907C68.2235 104.907 67.9061 104.974 67.6353 105.11C67.3644 105.245 67.138 105.444 66.9561 105.707C66.7741 105.969 66.6366 106.293 66.5435 106.678C66.4546 107.059 66.4102 107.494 66.4102 107.985V108.766C66.4102 109.232 66.4504 109.655 66.5308 110.036C66.6154 110.412 66.7424 110.736 66.9116 111.007C67.0851 111.278 67.3052 111.487 67.5718 111.635C67.8384 111.783 68.1579 111.857 68.5303 111.857C68.9831 111.857 69.3491 111.785 69.6284 111.642C69.9119 111.498 70.1257 111.288 70.2695 111.013C70.4176 110.734 70.515 110.393 70.5615 109.991ZM67.959 113.013H69.0952L69.019 113.368C69.2603 113.41 69.4803 113.512 69.6792 113.673C69.8823 113.838 69.9839 114.102 69.9839 114.466C69.9839 114.682 69.9395 114.877 69.8506 115.05C69.7617 115.224 69.6284 115.372 69.4507 115.495C69.2772 115.622 69.0592 115.719 68.7969 115.787C68.5387 115.854 68.2383 115.888 67.8955 115.888L67.8511 115.025C68.0161 115.025 68.1642 115.004 68.2954 114.961C68.4266 114.923 68.5303 114.862 68.6064 114.777C68.6868 114.693 68.7271 114.583 68.7271 114.447C68.7271 114.316 68.6932 114.215 68.6255 114.143C68.5578 114.071 68.452 114.016 68.3081 113.978C68.1685 113.939 67.9865 113.912 67.7622 113.895L67.959 113.013ZM77.1948 104.989L74.4336 113H72.7642L76.2427 103.758H77.3091L77.1948 104.989ZM79.5054 113L76.7378 104.989L76.6172 103.758H77.6899L81.1812 113H79.5054ZM79.3721 109.572V110.835H74.3447V109.572H79.3721ZM78.3755 101.358L79.3086 101.428C79.3086 101.737 79.2472 102.014 79.1245 102.26C79.0018 102.501 78.8346 102.691 78.623 102.831C78.4115 102.971 78.1724 103.041 77.9058 103.041C77.6984 103.041 77.5228 103.011 77.3789 102.952C77.235 102.892 77.1038 102.825 76.9854 102.749C76.8669 102.672 76.7441 102.607 76.6172 102.552C76.4945 102.493 76.3485 102.463 76.1792 102.463C76.0184 102.463 75.8809 102.522 75.7666 102.641C75.6566 102.759 75.6016 102.918 75.6016 103.117L74.6621 103.066C74.6621 102.761 74.7235 102.486 74.8462 102.241C74.9689 101.995 75.1361 101.801 75.3477 101.657C75.5592 101.513 75.7983 101.441 76.0649 101.441C76.2384 101.441 76.395 101.471 76.5347 101.53C76.6785 101.585 76.814 101.65 76.9409 101.727C77.0721 101.803 77.2054 101.87 77.3408 101.93C77.4762 101.989 77.6265 102.019 77.7915 102.019C77.9523 102.019 78.0898 101.957 78.2041 101.834C78.3184 101.712 78.3755 101.553 78.3755 101.358ZM89.4839 108.125V108.633C89.4839 109.331 89.3929 109.957 89.2109 110.512C89.029 111.066 88.7687 111.538 88.4302 111.927C88.0959 112.317 87.6938 112.615 87.2241 112.822C86.7544 113.025 86.2339 113.127 85.6626 113.127C85.0955 113.127 84.5771 113.025 84.1074 112.822C83.6419 112.615 83.2378 112.317 82.895 111.927C82.5522 111.538 82.2856 111.066 82.0952 110.512C81.909 109.957 81.8159 109.331 81.8159 108.633V108.125C81.8159 107.427 81.909 106.803 82.0952 106.252C82.2814 105.698 82.5438 105.226 82.8823 104.837C83.2251 104.443 83.6292 104.145 84.0947 103.942C84.5645 103.735 85.0828 103.631 85.6499 103.631C86.2212 103.631 86.7417 103.735 87.2114 103.942C87.6812 104.145 88.0853 104.443 88.4238 104.837C88.7624 105.226 89.0226 105.698 89.2046 106.252C89.3908 106.803 89.4839 107.427 89.4839 108.125ZM87.8906 108.633V108.112C87.8906 107.596 87.8398 107.141 87.7383 106.748C87.641 106.35 87.495 106.018 87.3003 105.751C87.1099 105.48 86.875 105.277 86.5957 105.142C86.3164 105.002 86.0011 104.932 85.6499 104.932C85.2987 104.932 84.9855 105.002 84.7104 105.142C84.4354 105.277 84.2005 105.48 84.0059 105.751C83.8154 106.018 83.6694 106.35 83.5679 106.748C83.4663 107.141 83.4155 107.596 83.4155 108.112V108.633C83.4155 109.149 83.4663 109.606 83.5679 110.004C83.6694 110.402 83.8175 110.738 84.0122 111.013C84.2111 111.284 84.4481 111.489 84.7231 111.629C84.9982 111.764 85.3114 111.832 85.6626 111.832C86.0181 111.832 86.3333 111.764 86.6084 111.629C86.8835 111.489 87.1162 111.284 87.3066 111.013C87.4971 110.738 87.641 110.402 87.7383 110.004C87.8398 109.606 87.8906 109.149 87.8906 108.633ZM97.8247 109.553H95.4189V108.29H97.8247C98.2437 108.29 98.5822 108.222 98.8403 108.087C99.0985 107.951 99.2868 107.765 99.4053 107.528C99.528 107.287 99.5894 107.012 99.5894 106.703C99.5894 106.411 99.528 106.138 99.4053 105.884C99.2868 105.626 99.0985 105.419 98.8403 105.262C98.5822 105.106 98.2437 105.027 97.8247 105.027H95.9077V113H94.3145V103.758H97.8247C98.5399 103.758 99.1471 103.885 99.6465 104.139C100.15 104.388 100.533 104.735 100.795 105.18C101.058 105.62 101.189 106.123 101.189 106.69C101.189 107.287 101.058 107.799 100.795 108.227C100.533 108.654 100.15 108.982 99.6465 109.21C99.1471 109.439 98.5399 109.553 97.8247 109.553ZM105.251 104.989L102.49 113H100.821L104.299 103.758H105.366L105.251 104.989ZM107.562 113L104.794 104.989L104.674 103.758H105.747L109.238 113H107.562ZM107.429 109.572V110.835H102.401V109.572H107.429ZM117.604 103.758V113H116.011L111.866 106.379V113H110.272V103.758H111.866L116.023 110.391V103.758H117.604ZM123.114 103.758V113H121.533V103.758H123.114ZM126.015 103.758V105.027H118.658V103.758H126.015ZM130.223 104.989L127.462 113H125.792L129.271 103.758H130.337L130.223 104.989ZM132.534 113L129.766 104.989L129.646 103.758H130.718L134.209 113H132.534ZM132.4 109.572V110.835H127.373V109.572H132.4ZM142.576 103.758V113H140.982L136.837 106.379V113H135.244V103.758H136.837L140.995 110.391V103.758H142.576ZM150.523 111.737V113H145.616V111.737H150.523ZM146.067 103.758V113H144.474V103.758H146.067ZM149.882 107.617V108.861H145.616V107.617H149.882ZM150.491 103.758V105.027H145.616V103.758H150.491ZM153.525 103.758V113H151.932V103.758H153.525ZM155.506 103.758H158.775C159.477 103.758 160.076 103.864 160.571 104.075C161.066 104.287 161.445 104.6 161.708 105.015C161.974 105.425 162.107 105.933 162.107 106.538C162.107 106.999 162.023 107.406 161.854 107.757C161.684 108.108 161.445 108.404 161.136 108.646C160.827 108.882 160.459 109.067 160.032 109.198L159.549 109.433H156.61L156.598 108.169H158.8C159.181 108.169 159.499 108.102 159.752 107.966C160.006 107.831 160.197 107.647 160.324 107.414C160.455 107.177 160.521 106.91 160.521 106.614C160.521 106.293 160.457 106.013 160.33 105.776C160.207 105.535 160.017 105.351 159.759 105.224C159.501 105.093 159.173 105.027 158.775 105.027H157.099V113H155.506V103.758ZM160.781 113L158.61 108.849L160.279 108.842L162.482 112.917V113H160.781ZM171.064 108.125V108.633C171.064 109.331 170.973 109.957 170.791 110.512C170.609 111.066 170.349 111.538 170.01 111.927C169.676 112.317 169.274 112.615 168.804 112.822C168.334 113.025 167.814 113.127 167.243 113.127C166.676 113.127 166.157 113.025 165.688 112.822C165.222 112.615 164.818 112.317 164.475 111.927C164.132 111.538 163.866 111.066 163.675 110.512C163.489 109.957 163.396 109.331 163.396 108.633V108.125C163.396 107.427 163.489 106.803 163.675 106.252C163.861 105.698 164.124 105.226 164.462 104.837C164.805 104.443 165.209 104.145 165.675 103.942C166.145 103.735 166.663 103.631 167.23 103.631C167.801 103.631 168.322 103.735 168.792 103.942C169.261 104.145 169.665 104.443 170.004 104.837C170.342 105.226 170.603 105.698 170.785 106.252C170.971 106.803 171.064 107.427 171.064 108.125ZM169.471 108.633V108.112C169.471 107.596 169.42 107.141 169.318 106.748C169.221 106.35 169.075 106.018 168.88 105.751C168.69 105.48 168.455 105.277 168.176 105.142C167.896 105.002 167.581 104.932 167.23 104.932C166.879 104.932 166.566 105.002 166.291 105.142C166.015 105.277 165.781 105.48 165.586 105.751C165.396 106.018 165.25 106.35 165.148 106.748C165.046 107.141 164.996 107.596 164.996 108.112V108.633C164.996 109.149 165.046 109.606 165.148 110.004C165.25 110.402 165.398 110.738 165.592 111.013C165.791 111.284 166.028 111.489 166.303 111.629C166.578 111.764 166.891 111.832 167.243 111.832C167.598 111.832 167.913 111.764 168.188 111.629C168.464 111.489 168.696 111.284 168.887 111.013C169.077 110.738 169.221 110.402 169.318 110.004C169.42 109.606 169.471 109.149 169.471 108.633Z" fill="#CC6237"/>
<path d="M36.3984 139.991H37.9854C37.9346 140.596 37.7653 141.136 37.4775 141.61C37.1898 142.08 36.7856 142.45 36.2651 142.721C35.7446 142.992 35.112 143.127 34.3672 143.127C33.7959 143.127 33.2817 143.025 32.8247 142.822C32.3677 142.615 31.9762 142.323 31.6504 141.946C31.3245 141.565 31.0749 141.106 30.9014 140.569C30.7321 140.031 30.6475 139.431 30.6475 138.766V137.998C30.6475 137.334 30.7342 136.733 30.9077 136.195C31.0854 135.658 31.3394 135.199 31.6694 134.818C31.9995 134.433 32.3952 134.139 32.8564 133.936C33.3219 133.732 33.8446 133.631 34.4243 133.631C35.1606 133.631 35.7827 133.766 36.2905 134.037C36.7983 134.308 37.1919 134.682 37.4712 135.161C37.7547 135.639 37.9282 136.187 37.9917 136.805H36.4048C36.3625 136.407 36.2694 136.066 36.1255 135.783C35.9858 135.499 35.7785 135.283 35.5034 135.135C35.2284 134.983 34.8687 134.907 34.4243 134.907C34.0604 134.907 33.743 134.974 33.4722 135.11C33.2013 135.245 32.9749 135.444 32.793 135.707C32.611 135.969 32.4735 136.293 32.3804 136.678C32.2915 137.059 32.2471 137.494 32.2471 137.985V138.766C32.2471 139.232 32.2873 139.655 32.3677 140.036C32.4523 140.412 32.5793 140.736 32.7485 141.007C32.922 141.278 33.1421 141.487 33.4087 141.635C33.6753 141.783 33.9948 141.857 34.3672 141.857C34.82 141.857 35.186 141.785 35.4653 141.642C35.7489 141.498 35.9626 141.288 36.1064 141.013C36.2546 140.734 36.3519 140.393 36.3984 139.991ZM45.2217 141.737V143H40.5815V141.737H45.2217ZM41.0259 133.758V143H39.4326V133.758H41.0259ZM51.3726 133.758H52.9595V139.934C52.9595 140.637 52.8071 141.225 52.5024 141.699C52.1978 142.173 51.783 142.53 51.2583 142.771C50.7378 143.008 50.1559 143.127 49.5127 143.127C48.8483 143.127 48.2559 143.008 47.7354 142.771C47.2148 142.53 46.8044 142.173 46.5039 141.699C46.2077 141.225 46.0596 140.637 46.0596 139.934V133.758H47.6465V139.934C47.6465 140.378 47.7227 140.744 47.875 141.032C48.0273 141.316 48.2432 141.525 48.5225 141.661C48.8018 141.796 49.1318 141.864 49.5127 141.864C49.8936 141.864 50.2215 141.796 50.4966 141.661C50.7759 141.525 50.9917 141.316 51.144 141.032C51.2964 140.744 51.3726 140.378 51.3726 139.934V133.758ZM58.1582 138.823H55.8032L55.7905 137.662H57.8472C58.1942 137.662 58.4883 137.611 58.7295 137.509C58.9749 137.403 59.1611 137.253 59.2881 137.059C59.415 136.86 59.4785 136.621 59.4785 136.341C59.4785 136.032 59.4193 135.781 59.3008 135.586C59.1823 135.391 59.0003 135.25 58.7549 135.161C58.5137 135.072 58.2048 135.027 57.8281 135.027H56.2856V143H54.6924V133.758H57.8281C58.3359 133.758 58.7887 133.806 59.1865 133.904C59.5885 134.001 59.9292 134.153 60.2085 134.361C60.492 134.564 60.7057 134.822 60.8496 135.135C60.9977 135.448 61.0718 135.821 61.0718 136.252C61.0718 136.633 60.9808 136.982 60.7988 137.3C60.6169 137.613 60.3481 137.869 59.9927 138.068C59.6372 138.267 59.195 138.385 58.666 138.423L58.1582 138.823ZM58.0884 143H55.3018L56.019 141.737H58.0884C58.4481 141.737 58.7485 141.678 58.9897 141.559C59.231 141.436 59.4108 141.269 59.5293 141.058C59.652 140.842 59.7134 140.59 59.7134 140.302C59.7134 140.002 59.6605 139.742 59.5547 139.521C59.4489 139.297 59.2817 139.126 59.0532 139.007C58.8247 138.885 58.5264 138.823 58.1582 138.823H56.3682L56.3809 137.662H58.7104L59.0723 138.1C59.5801 138.117 59.9969 138.229 60.3228 138.436C60.6528 138.643 60.8983 138.912 61.0591 139.242C61.2199 139.572 61.3003 139.928 61.3003 140.309C61.3003 140.897 61.1712 141.39 60.9131 141.788C60.6592 142.185 60.2931 142.488 59.8149 142.695C59.3368 142.898 58.7612 143 58.0884 143ZM68.9556 141.737V143H64.0488V141.737H68.9556ZM64.4995 133.758V143H62.9062V133.758H64.4995ZM68.3145 137.617V138.861H64.0488V137.617H68.3145ZM68.9238 133.758V135.027H64.0488V133.758H68.9238ZM76.1792 143H74.2051L74.2178 141.737H76.1792C76.7505 141.737 77.2287 141.612 77.6138 141.362C78.0031 141.113 78.2951 140.755 78.4897 140.29C78.6886 139.824 78.7881 139.27 78.7881 138.626V138.125C78.7881 137.626 78.731 137.183 78.6167 136.798C78.5067 136.413 78.3416 136.09 78.1216 135.827C77.9058 135.565 77.6392 135.366 77.3218 135.23C77.0086 135.095 76.6468 135.027 76.2363 135.027H74.167V133.758H76.2363C76.8499 133.758 77.4106 133.861 77.9185 134.069C78.4263 134.272 78.8643 134.566 79.2324 134.951C79.6048 135.336 79.8905 135.798 80.0894 136.335C80.2882 136.872 80.3877 137.473 80.3877 138.138V138.626C80.3877 139.291 80.2882 139.892 80.0894 140.429C79.8905 140.967 79.6048 141.428 79.2324 141.813C78.86 142.194 78.4157 142.488 77.8994 142.695C77.3874 142.898 76.814 143 76.1792 143ZM75.0874 133.758V143H73.4941V133.758H75.0874ZM89.3569 138.125V138.633C89.3569 139.331 89.266 139.957 89.084 140.512C88.902 141.066 88.6418 141.538 88.3032 141.927C87.9689 142.317 87.5669 142.615 87.0972 142.822C86.6274 143.025 86.1069 143.127 85.5356 143.127C84.9686 143.127 84.4502 143.025 83.9805 142.822C83.515 142.615 83.1108 142.317 82.7681 141.927C82.4253 141.538 82.1587 141.066 81.9683 140.512C81.7821 139.957 81.689 139.331 81.689 138.633V138.125C81.689 137.427 81.7821 136.803 81.9683 136.252C82.1545 135.698 82.4168 135.226 82.7554 134.837C83.0981 134.443 83.5023 134.145 83.9678 133.942C84.4375 133.735 84.9559 133.631 85.5229 133.631C86.0942 133.631 86.6147 133.735 87.0845 133.942C87.5542 134.145 87.9583 134.443 88.2969 134.837C88.6354 135.226 88.8957 135.698 89.0776 136.252C89.2638 136.803 89.3569 137.427 89.3569 138.125ZM87.7637 138.633V138.112C87.7637 137.596 87.7129 137.141 87.6113 136.748C87.514 136.35 87.368 136.018 87.1733 135.751C86.9829 135.48 86.748 135.277 86.4688 135.142C86.1895 135.002 85.8742 134.932 85.5229 134.932C85.1717 134.932 84.8586 135.002 84.5835 135.142C84.3084 135.277 84.0736 135.48 83.8789 135.751C83.6885 136.018 83.5425 136.35 83.4409 136.748C83.3394 137.141 83.2886 137.596 83.2886 138.112V138.633C83.2886 139.149 83.3394 139.606 83.4409 140.004C83.5425 140.402 83.6906 140.738 83.8853 141.013C84.0841 141.284 84.3211 141.489 84.5962 141.629C84.8713 141.764 85.1844 141.832 85.5356 141.832C85.8911 141.832 86.2064 141.764 86.4814 141.629C86.7565 141.489 86.9893 141.284 87.1797 141.013C87.3701 140.738 87.514 140.402 87.6113 140.004C87.7129 139.606 87.7637 139.149 87.7637 138.633ZM99.9766 141.737V143H95.3364V141.737H99.9766ZM95.7808 133.758V143H94.1875V133.758H95.7808ZM104.934 134.989L102.173 143H100.503L103.982 133.758H105.048L104.934 134.989ZM107.245 143L104.477 134.989L104.356 133.758H105.429L108.92 143H107.245ZM107.111 139.572V140.835H102.084V139.572H107.111ZM115.312 139.991H116.899C116.849 140.596 116.679 141.136 116.392 141.61C116.104 142.08 115.7 142.45 115.179 142.721C114.659 142.992 114.026 143.127 113.281 143.127C112.71 143.127 112.196 143.025 111.739 142.822C111.282 142.615 110.89 142.323 110.564 141.946C110.239 141.565 109.989 141.106 109.815 140.569C109.646 140.031 109.562 139.431 109.562 138.766V137.998C109.562 137.334 109.648 136.733 109.822 136.195C110 135.658 110.253 135.199 110.583 134.818C110.914 134.433 111.309 134.139 111.771 133.936C112.236 133.732 112.759 133.631 113.338 133.631C114.075 133.631 114.697 133.766 115.205 134.037C115.712 134.308 116.106 134.682 116.385 135.161C116.669 135.639 116.842 136.187 116.906 136.805H115.319C115.277 136.407 115.183 136.066 115.04 135.783C114.9 135.499 114.693 135.283 114.417 135.135C114.142 134.983 113.783 134.907 113.338 134.907C112.974 134.907 112.657 134.974 112.386 135.11C112.115 135.245 111.889 135.444 111.707 135.707C111.525 135.969 111.388 136.293 111.294 136.678C111.206 137.059 111.161 137.494 111.161 137.985V138.766C111.161 139.232 111.201 139.655 111.282 140.036C111.366 140.412 111.493 140.736 111.663 141.007C111.836 141.278 112.056 141.487 112.323 141.635C112.589 141.783 112.909 141.857 113.281 141.857C113.734 141.857 114.1 141.785 114.379 141.642C114.663 141.498 114.877 141.288 115.021 141.013C115.169 140.734 115.266 140.393 115.312 139.991ZM112.71 143.013H113.846L113.77 143.368C114.011 143.41 114.231 143.512 114.43 143.673C114.633 143.838 114.735 144.102 114.735 144.466C114.735 144.682 114.69 144.877 114.602 145.05C114.513 145.224 114.379 145.372 114.202 145.495C114.028 145.622 113.81 145.719 113.548 145.787C113.29 145.854 112.989 145.888 112.646 145.888L112.602 145.025C112.767 145.025 112.915 145.004 113.046 144.961C113.178 144.923 113.281 144.862 113.357 144.777C113.438 144.693 113.478 144.583 113.478 144.447C113.478 144.316 113.444 144.215 113.376 144.143C113.309 144.071 113.203 144.016 113.059 143.978C112.919 143.939 112.737 143.912 112.513 143.895L112.71 143.013ZM125.716 138.125V138.633C125.716 139.331 125.625 139.957 125.443 140.512C125.261 141.066 125.001 141.538 124.663 141.927C124.328 142.317 123.926 142.615 123.457 142.822C122.987 143.025 122.466 143.127 121.895 143.127C121.328 143.127 120.81 143.025 120.34 142.822C119.874 142.615 119.47 142.317 119.127 141.927C118.785 141.538 118.518 141.066 118.328 140.512C118.141 139.957 118.048 139.331 118.048 138.633V138.125C118.048 137.427 118.141 136.803 118.328 136.252C118.514 135.698 118.776 135.226 119.115 134.837C119.458 134.443 119.862 134.145 120.327 133.942C120.797 133.735 121.315 133.631 121.882 133.631C122.454 133.631 122.974 133.735 123.444 133.942C123.914 134.145 124.318 134.443 124.656 134.837C124.995 135.226 125.255 135.698 125.437 136.252C125.623 136.803 125.716 137.427 125.716 138.125ZM124.123 138.633V138.112C124.123 137.596 124.072 137.141 123.971 136.748C123.873 136.35 123.727 136.018 123.533 135.751C123.342 135.48 123.107 135.277 122.828 135.142C122.549 135.002 122.234 134.932 121.882 134.932C121.531 134.932 121.218 135.002 120.943 135.142C120.668 135.277 120.433 135.48 120.238 135.751C120.048 136.018 119.902 136.35 119.8 136.748C119.699 137.141 119.648 137.596 119.648 138.112V138.633C119.648 139.149 119.699 139.606 119.8 140.004C119.902 140.402 120.05 140.738 120.245 141.013C120.444 141.284 120.681 141.489 120.956 141.629C121.231 141.764 121.544 141.832 121.895 141.832C122.25 141.832 122.566 141.764 122.841 141.629C123.116 141.489 123.349 141.284 123.539 141.013C123.729 140.738 123.873 140.402 123.971 140.004C124.072 139.606 124.123 139.149 124.123 138.633ZM134.349 140.226V133.758H135.936V140.226C135.936 140.84 135.805 141.362 135.542 141.794C135.28 142.226 134.923 142.556 134.47 142.784C134.017 143.013 133.503 143.127 132.927 143.127C132.339 143.127 131.816 143.028 131.359 142.829C130.907 142.63 130.551 142.325 130.293 141.915C130.035 141.504 129.906 140.984 129.906 140.353H131.505C131.505 140.717 131.562 141.011 131.677 141.235C131.795 141.455 131.96 141.616 132.172 141.718C132.388 141.815 132.639 141.864 132.927 141.864C133.202 141.864 133.446 141.802 133.657 141.68C133.873 141.553 134.042 141.369 134.165 141.127C134.288 140.882 134.349 140.582 134.349 140.226ZM141.23 134.989L138.469 143H136.799L140.278 133.758H141.344L141.23 134.989ZM143.541 143L140.773 134.989L140.652 133.758H141.725L145.216 143H143.541ZM143.407 139.572V140.835H138.38V139.572H143.407ZM146.251 133.758H149.52C150.222 133.758 150.821 133.864 151.316 134.075C151.812 134.287 152.19 134.6 152.453 135.015C152.719 135.425 152.853 135.933 152.853 136.538C152.853 136.999 152.768 137.406 152.599 137.757C152.429 138.108 152.19 138.404 151.881 138.646C151.572 138.882 151.204 139.067 150.777 139.198L150.294 139.433H147.355L147.343 138.169H149.545C149.926 138.169 150.244 138.102 150.498 137.966C150.751 137.831 150.942 137.647 151.069 137.414C151.2 137.177 151.266 136.91 151.266 136.614C151.266 136.293 151.202 136.013 151.075 135.776C150.952 135.535 150.762 135.351 150.504 135.224C150.246 135.093 149.918 135.027 149.52 135.027H147.844V143H146.251V133.758ZM151.526 143L149.355 138.849L151.024 138.842L153.227 142.917V143H151.526ZM157.125 143H155.15L155.163 141.737H157.125C157.696 141.737 158.174 141.612 158.559 141.362C158.948 141.113 159.24 140.755 159.435 140.29C159.634 139.824 159.733 139.27 159.733 138.626V138.125C159.733 137.626 159.676 137.183 159.562 136.798C159.452 136.413 159.287 136.09 159.067 135.827C158.851 135.565 158.584 135.366 158.267 135.23C157.954 135.095 157.592 135.027 157.182 135.027H155.112V133.758H157.182C157.795 133.758 158.356 133.861 158.864 134.069C159.372 134.272 159.81 134.566 160.178 134.951C160.55 135.336 160.836 135.798 161.035 136.335C161.234 136.872 161.333 137.473 161.333 138.138V138.626C161.333 139.291 161.234 139.892 161.035 140.429C160.836 140.967 160.55 141.428 160.178 141.813C159.805 142.194 159.361 142.488 158.845 142.695C158.333 142.898 157.759 143 157.125 143ZM156.033 133.758V143H154.439V133.758H156.033ZM164.634 133.758V143H163.041V133.758H164.634ZM167.262 133.758H168.684L171.356 140.886L174.022 133.758H175.444L171.915 143H170.785L167.262 133.758ZM166.614 133.758H167.966L168.201 139.928V143H166.614V133.758ZM174.739 133.758H176.098V143H174.504V139.928L174.739 133.758Z" fill="#CC6237"/>
<path d="M36.3984 169.991H37.9854C37.9346 170.596 37.7653 171.136 37.4775 171.61C37.1898 172.08 36.7856 172.45 36.2651 172.721C35.7446 172.992 35.112 173.127 34.3672 173.127C33.7959 173.127 33.2817 173.025 32.8247 172.822C32.3677 172.615 31.9762 172.323 31.6504 171.946C31.3245 171.565 31.0749 171.106 30.9014 170.569C30.7321 170.031 30.6475 169.431 30.6475 168.766V167.998C30.6475 167.334 30.7342 166.733 30.9077 166.195C31.0854 165.658 31.3394 165.199 31.6694 164.818C31.9995 164.433 32.3952 164.139 32.8564 163.936C33.3219 163.732 33.8446 163.631 34.4243 163.631C35.1606 163.631 35.7827 163.766 36.2905 164.037C36.7983 164.308 37.1919 164.682 37.4712 165.161C37.7547 165.639 37.9282 166.187 37.9917 166.805H36.4048C36.3625 166.407 36.2694 166.066 36.1255 165.783C35.9858 165.499 35.7785 165.283 35.5034 165.135C35.2284 164.983 34.8687 164.907 34.4243 164.907C34.0604 164.907 33.743 164.974 33.4722 165.11C33.2013 165.245 32.9749 165.444 32.793 165.707C32.611 165.969 32.4735 166.293 32.3804 166.678C32.2915 167.059 32.2471 167.494 32.2471 167.985V168.766C32.2471 169.232 32.2873 169.655 32.3677 170.036C32.4523 170.412 32.5793 170.736 32.7485 171.007C32.922 171.278 33.1421 171.487 33.4087 171.635C33.6753 171.783 33.9948 171.857 34.3672 171.857C34.82 171.857 35.186 171.785 35.4653 171.642C35.7489 171.498 35.9626 171.288 36.1064 171.013C36.2546 170.734 36.3519 170.393 36.3984 169.991ZM45.2217 171.737V173H40.5815V171.737H45.2217ZM41.0259 163.758V173H39.4326V163.758H41.0259ZM51.3726 163.758H52.9595V169.934C52.9595 170.637 52.8071 171.225 52.5024 171.699C52.1978 172.173 51.783 172.53 51.2583 172.771C50.7378 173.008 50.1559 173.127 49.5127 173.127C48.8483 173.127 48.2559 173.008 47.7354 172.771C47.2148 172.53 46.8044 172.173 46.5039 171.699C46.2077 171.225 46.0596 170.637 46.0596 169.934V163.758H47.6465V169.934C47.6465 170.378 47.7227 170.744 47.875 171.032C48.0273 171.316 48.2432 171.525 48.5225 171.661C48.8018 171.796 49.1318 171.864 49.5127 171.864C49.8936 171.864 50.2215 171.796 50.4966 171.661C50.7759 171.525 50.9917 171.316 51.144 171.032C51.2964 170.744 51.3726 170.378 51.3726 169.934V163.758ZM58.1582 168.823H55.8032L55.7905 167.662H57.8472C58.1942 167.662 58.4883 167.611 58.7295 167.509C58.9749 167.403 59.1611 167.253 59.2881 167.059C59.415 166.86 59.4785 166.621 59.4785 166.341C59.4785 166.032 59.4193 165.781 59.3008 165.586C59.1823 165.391 59.0003 165.25 58.7549 165.161C58.5137 165.072 58.2048 165.027 57.8281 165.027H56.2856V173H54.6924V163.758H57.8281C58.3359 163.758 58.7887 163.806 59.1865 163.904C59.5885 164.001 59.9292 164.153 60.2085 164.361C60.492 164.564 60.7057 164.822 60.8496 165.135C60.9977 165.448 61.0718 165.821 61.0718 166.252C61.0718 166.633 60.9808 166.982 60.7988 167.3C60.6169 167.613 60.3481 167.869 59.9927 168.068C59.6372 168.267 59.195 168.385 58.666 168.423L58.1582 168.823ZM58.0884 173H55.3018L56.019 171.737H58.0884C58.4481 171.737 58.7485 171.678 58.9897 171.559C59.231 171.436 59.4108 171.269 59.5293 171.058C59.652 170.842 59.7134 170.59 59.7134 170.302C59.7134 170.002 59.6605 169.742 59.5547 169.521C59.4489 169.297 59.2817 169.126 59.0532 169.007C58.8247 168.885 58.5264 168.823 58.1582 168.823H56.3682L56.3809 167.662H58.7104L59.0723 168.1C59.5801 168.117 59.9969 168.229 60.3228 168.436C60.6528 168.643 60.8983 168.912 61.0591 169.242C61.2199 169.572 61.3003 169.928 61.3003 170.309C61.3003 170.897 61.1712 171.39 60.9131 171.788C60.6592 172.185 60.2931 172.488 59.8149 172.695C59.3368 172.898 58.7612 173 58.0884 173ZM68.9556 171.737V173H64.0488V171.737H68.9556ZM64.4995 163.758V173H62.9062V163.758H64.4995ZM68.3145 167.617V168.861H64.0488V167.617H68.3145ZM68.9238 163.758V165.027H64.0488V163.758H68.9238ZM76.1792 173H74.2051L74.2178 171.737H76.1792C76.7505 171.737 77.2287 171.612 77.6138 171.362C78.0031 171.113 78.2951 170.755 78.4897 170.29C78.6886 169.824 78.7881 169.27 78.7881 168.626V168.125C78.7881 167.626 78.731 167.183 78.6167 166.798C78.5067 166.413 78.3416 166.09 78.1216 165.827C77.9058 165.565 77.6392 165.366 77.3218 165.23C77.0086 165.095 76.6468 165.027 76.2363 165.027H74.167V163.758H76.2363C76.8499 163.758 77.4106 163.861 77.9185 164.069C78.4263 164.272 78.8643 164.566 79.2324 164.951C79.6048 165.336 79.8905 165.798 80.0894 166.335C80.2882 166.872 80.3877 167.473 80.3877 168.138V168.626C80.3877 169.291 80.2882 169.892 80.0894 170.429C79.8905 170.967 79.6048 171.428 79.2324 171.813C78.86 172.194 78.4157 172.488 77.8994 172.695C77.3874 172.898 76.814 173 76.1792 173ZM75.0874 163.758V173H73.4941V163.758H75.0874ZM89.3569 168.125V168.633C89.3569 169.331 89.266 169.957 89.084 170.512C88.902 171.066 88.6418 171.538 88.3032 171.927C87.9689 172.317 87.5669 172.615 87.0972 172.822C86.6274 173.025 86.1069 173.127 85.5356 173.127C84.9686 173.127 84.4502 173.025 83.9805 172.822C83.515 172.615 83.1108 172.317 82.7681 171.927C82.4253 171.538 82.1587 171.066 81.9683 170.512C81.7821 169.957 81.689 169.331 81.689 168.633V168.125C81.689 167.427 81.7821 166.803 81.9683 166.252C82.1545 165.698 82.4168 165.226 82.7554 164.837C83.0981 164.443 83.5023 164.145 83.9678 163.942C84.4375 163.735 84.9559 163.631 85.5229 163.631C86.0942 163.631 86.6147 163.735 87.0845 163.942C87.5542 164.145 87.9583 164.443 88.2969 164.837C88.6354 165.226 88.8957 165.698 89.0776 166.252C89.2638 166.803 89.3569 167.427 89.3569 168.125ZM87.7637 168.633V168.112C87.7637 167.596 87.7129 167.141 87.6113 166.748C87.514 166.35 87.368 166.018 87.1733 165.751C86.9829 165.48 86.748 165.277 86.4688 165.142C86.1895 165.002 85.8742 164.932 85.5229 164.932C85.1717 164.932 84.8586 165.002 84.5835 165.142C84.3084 165.277 84.0736 165.48 83.8789 165.751C83.6885 166.018 83.5425 166.35 83.4409 166.748C83.3394 167.141 83.2886 167.596 83.2886 168.112V168.633C83.2886 169.149 83.3394 169.606 83.4409 170.004C83.5425 170.402 83.6906 170.738 83.8853 171.013C84.0841 171.284 84.3211 171.489 84.5962 171.629C84.8713 171.764 85.1844 171.832 85.5356 171.832C85.8911 171.832 86.2064 171.764 86.4814 171.629C86.7565 171.489 86.9893 171.284 87.1797 171.013C87.3701 170.738 87.514 170.402 87.6113 170.004C87.7129 169.606 87.7637 169.149 87.7637 168.633ZM99.9766 171.737V173H95.3364V171.737H99.9766ZM95.7808 163.758V173H94.1875V163.758H95.7808ZM104.934 164.989L102.173 173H100.503L103.982 163.758H105.048L104.934 164.989ZM107.245 173L104.477 164.989L104.356 163.758H105.429L108.92 173H107.245ZM107.111 169.572V170.835H102.084V169.572H107.111ZM115.312 169.991H116.899C116.849 170.596 116.679 171.136 116.392 171.61C116.104 172.08 115.7 172.45 115.179 172.721C114.659 172.992 114.026 173.127 113.281 173.127C112.71 173.127 112.196 173.025 111.739 172.822C111.282 172.615 110.89 172.323 110.564 171.946C110.239 171.565 109.989 171.106 109.815 170.569C109.646 170.031 109.562 169.431 109.562 168.766V167.998C109.562 167.334 109.648 166.733 109.822 166.195C110 165.658 110.253 165.199 110.583 164.818C110.914 164.433 111.309 164.139 111.771 163.936C112.236 163.732 112.759 163.631 113.338 163.631C114.075 163.631 114.697 163.766 115.205 164.037C115.712 164.308 116.106 164.682 116.385 165.161C116.669 165.639 116.842 166.187 116.906 166.805H115.319C115.277 166.407 115.183 166.066 115.04 165.783C114.9 165.499 114.693 165.283 114.417 165.135C114.142 164.983 113.783 164.907 113.338 164.907C112.974 164.907 112.657 164.974 112.386 165.11C112.115 165.245 111.889 165.444 111.707 165.707C111.525 165.969 111.388 166.293 111.294 166.678C111.206 167.059 111.161 167.494 111.161 167.985V168.766C111.161 169.232 111.201 169.655 111.282 170.036C111.366 170.412 111.493 170.736 111.663 171.007C111.836 171.278 112.056 171.487 112.323 171.635C112.589 171.783 112.909 171.857 113.281 171.857C113.734 171.857 114.1 171.785 114.379 171.642C114.663 171.498 114.877 171.288 115.021 171.013C115.169 170.734 115.266 170.393 115.312 169.991ZM112.71 173.013H113.846L113.77 173.368C114.011 173.41 114.231 173.512 114.43 173.673C114.633 173.838 114.735 174.102 114.735 174.466C114.735 174.682 114.69 174.877 114.602 175.05C114.513 175.224 114.379 175.372 114.202 175.495C114.028 175.622 113.81 175.719 113.548 175.787C113.29 175.854 112.989 175.888 112.646 175.888L112.602 175.025C112.767 175.025 112.915 175.004 113.046 174.961C113.178 174.923 113.281 174.862 113.357 174.777C113.438 174.693 113.478 174.583 113.478 174.447C113.478 174.316 113.444 174.215 113.376 174.143C113.309 174.071 113.203 174.016 113.059 173.978C112.919 173.939 112.737 173.912 112.513 173.895L112.71 173.013ZM125.716 168.125V168.633C125.716 169.331 125.625 169.957 125.443 170.512C125.261 171.066 125.001 171.538 124.663 171.927C124.328 172.317 123.926 172.615 123.457 172.822C122.987 173.025 122.466 173.127 121.895 173.127C121.328 173.127 120.81 173.025 120.34 172.822C119.874 172.615 119.47 172.317 119.127 171.927C118.785 171.538 118.518 171.066 118.328 170.512C118.141 169.957 118.048 169.331 118.048 168.633V168.125C118.048 167.427 118.141 166.803 118.328 166.252C118.514 165.698 118.776 165.226 119.115 164.837C119.458 164.443 119.862 164.145 120.327 163.942C120.797 163.735 121.315 163.631 121.882 163.631C122.454 163.631 122.974 163.735 123.444 163.942C123.914 164.145 124.318 164.443 124.656 164.837C124.995 165.226 125.255 165.698 125.437 166.252C125.623 166.803 125.716 167.427 125.716 168.125ZM124.123 168.633V168.112C124.123 167.596 124.072 167.141 123.971 166.748C123.873 166.35 123.727 166.018 123.533 165.751C123.342 165.48 123.107 165.277 122.828 165.142C122.549 165.002 122.234 164.932 121.882 164.932C121.531 164.932 121.218 165.002 120.943 165.142C120.668 165.277 120.433 165.48 120.238 165.751C120.048 166.018 119.902 166.35 119.8 166.748C119.699 167.141 119.648 167.596 119.648 168.112V168.633C119.648 169.149 119.699 169.606 119.8 170.004C119.902 170.402 120.05 170.738 120.245 171.013C120.444 171.284 120.681 171.489 120.956 171.629C121.231 171.764 121.544 171.832 121.895 171.832C122.25 171.832 122.566 171.764 122.841 171.629C123.116 171.489 123.349 171.284 123.539 171.013C123.729 170.738 123.873 170.402 123.971 170.004C124.072 169.606 124.123 169.149 124.123 168.633ZM137.644 168.277V171.807C137.512 171.98 137.307 172.171 137.028 172.378C136.753 172.581 136.387 172.757 135.93 172.905C135.473 173.053 134.903 173.127 134.222 173.127C133.642 173.127 133.111 173.03 132.629 172.835C132.146 172.636 131.73 172.346 131.378 171.965C131.031 171.584 130.763 171.121 130.572 170.575C130.382 170.025 130.287 169.399 130.287 168.696V168.055C130.287 167.357 130.373 166.735 130.547 166.189C130.725 165.639 130.979 165.173 131.309 164.792C131.639 164.412 132.036 164.124 132.502 163.929C132.972 163.73 133.503 163.631 134.095 163.631C134.853 163.631 135.479 163.758 135.974 164.012C136.473 164.261 136.859 164.608 137.129 165.053C137.4 165.497 137.572 166.005 137.644 166.576H136.082C136.031 166.255 135.932 165.967 135.784 165.713C135.64 165.459 135.432 165.26 135.162 165.116C134.895 164.968 134.548 164.894 134.121 164.894C133.752 164.894 133.429 164.964 133.149 165.104C132.87 165.243 132.637 165.448 132.451 165.719C132.269 165.99 132.132 166.32 132.039 166.709C131.945 167.099 131.899 167.543 131.899 168.042V168.696C131.899 169.204 131.952 169.655 132.058 170.048C132.168 170.442 132.324 170.774 132.527 171.045C132.735 171.316 132.986 171.521 133.283 171.661C133.579 171.796 133.913 171.864 134.286 171.864C134.65 171.864 134.948 171.834 135.181 171.775C135.413 171.711 135.597 171.637 135.733 171.553C135.873 171.464 135.98 171.379 136.057 171.299V169.464H134.133V168.277H137.644ZM144.594 163.758H146.181V169.934C146.181 170.637 146.029 171.225 145.724 171.699C145.419 172.173 145.005 172.53 144.48 172.771C143.959 173.008 143.378 173.127 142.734 173.127C142.07 173.127 141.478 173.008 140.957 172.771C140.437 172.53 140.026 172.173 139.726 171.699C139.429 171.225 139.281 170.637 139.281 169.934V163.758H140.868V169.934C140.868 170.378 140.944 170.744 141.097 171.032C141.249 171.316 141.465 171.525 141.744 171.661C142.023 171.796 142.354 171.864 142.734 171.864C143.115 171.864 143.443 171.796 143.718 171.661C143.998 171.525 144.213 171.316 144.366 171.032C144.518 170.744 144.594 170.378 144.594 169.934V163.758ZM149.615 163.758V173H148.022V163.758H149.615ZM155.309 164.989L152.548 173H150.878L154.357 163.758H155.423L155.309 164.989ZM157.62 173L154.852 164.989L154.731 163.758H155.804L159.295 173H157.62ZM157.486 169.572V170.835H152.459V169.572H157.486ZM169.356 171.737V173H164.716V171.737H169.356ZM165.161 163.758V173H163.567V163.758H165.161ZM177.539 168.125V168.633C177.539 169.331 177.448 169.957 177.266 170.512C177.084 171.066 176.823 171.538 176.485 171.927C176.151 172.317 175.749 172.615 175.279 172.822C174.809 173.025 174.289 173.127 173.717 173.127C173.15 173.127 172.632 173.025 172.162 172.822C171.697 172.615 171.292 172.317 170.95 171.927C170.607 171.538 170.34 171.066 170.15 170.512C169.964 169.957 169.871 169.331 169.871 168.633V168.125C169.871 167.427 169.964 166.803 170.15 166.252C170.336 165.698 170.598 165.226 170.937 164.837C171.28 164.443 171.684 164.145 172.149 163.942C172.619 163.735 173.138 163.631 173.705 163.631C174.276 163.631 174.796 163.735 175.266 163.942C175.736 164.145 176.14 164.443 176.479 164.837C176.817 165.226 177.077 165.698 177.259 166.252C177.445 166.803 177.539 167.427 177.539 168.125ZM175.945 168.633V168.112C175.945 167.596 175.895 167.141 175.793 166.748C175.696 166.35 175.55 166.018 175.355 165.751C175.165 165.48 174.93 165.277 174.65 165.142C174.371 165.002 174.056 164.932 173.705 164.932C173.353 164.932 173.04 165.002 172.765 165.142C172.49 165.277 172.255 165.48 172.061 165.751C171.87 166.018 171.724 166.35 171.623 166.748C171.521 167.141 171.47 167.596 171.47 168.112V168.633C171.47 169.149 171.521 169.606 171.623 170.004C171.724 170.402 171.872 170.738 172.067 171.013C172.266 171.284 172.503 171.489 172.778 171.629C173.053 171.764 173.366 171.832 173.717 171.832C174.073 171.832 174.388 171.764 174.663 171.629C174.938 171.489 175.171 171.284 175.361 171.013C175.552 170.738 175.696 170.402 175.793 170.004C175.895 169.606 175.945 169.149 175.945 168.633ZM182.642 169.553H180.236V168.29H182.642C183.061 168.29 183.4 168.222 183.658 168.087C183.916 167.951 184.104 167.765 184.223 167.528C184.345 167.287 184.407 167.012 184.407 166.703C184.407 166.411 184.345 166.138 184.223 165.884C184.104 165.626 183.916 165.419 183.658 165.262C183.4 165.106 183.061 165.027 182.642 165.027H180.725V173H179.132V163.758H182.642C183.357 163.758 183.965 163.885 184.464 164.139C184.967 164.388 185.35 164.735 185.613 165.18C185.875 165.62 186.006 166.123 186.006 166.69C186.006 167.287 185.875 167.799 185.613 168.227C185.35 168.654 184.967 168.982 184.464 169.21C183.965 169.439 183.357 169.553 182.642 169.553ZM193.484 171.737V173H188.577V171.737H193.484ZM189.028 163.758V173H187.435V163.758H189.028ZM192.843 167.617V168.861H188.577V167.617H192.843ZM193.452 163.758V165.027H188.577V163.758H193.452ZM199.647 170.62C199.647 170.429 199.618 170.26 199.559 170.112C199.504 169.964 199.404 169.828 199.26 169.706C199.116 169.583 198.913 169.464 198.651 169.35C198.393 169.232 198.063 169.111 197.661 168.988C197.221 168.853 196.814 168.703 196.442 168.538C196.074 168.368 195.752 168.174 195.477 167.954C195.202 167.729 194.988 167.473 194.836 167.186C194.684 166.894 194.607 166.557 194.607 166.176C194.607 165.8 194.686 165.457 194.842 165.148C195.003 164.839 195.229 164.572 195.521 164.348C195.818 164.12 196.167 163.944 196.569 163.821C196.971 163.694 197.415 163.631 197.902 163.631C198.587 163.631 199.178 163.758 199.673 164.012C200.172 164.266 200.555 164.606 200.822 165.034C201.093 165.461 201.228 165.933 201.228 166.449H199.647C199.647 166.145 199.582 165.876 199.451 165.643C199.324 165.406 199.129 165.22 198.867 165.084C198.609 164.949 198.281 164.881 197.883 164.881C197.506 164.881 197.193 164.938 196.943 165.053C196.694 165.167 196.507 165.321 196.385 165.516C196.262 165.711 196.201 165.931 196.201 166.176C196.201 166.35 196.241 166.508 196.321 166.652C196.402 166.792 196.524 166.923 196.689 167.046C196.854 167.164 197.062 167.277 197.312 167.382C197.561 167.488 197.855 167.59 198.194 167.687C198.706 167.839 199.152 168.009 199.533 168.195C199.914 168.377 200.231 168.584 200.485 168.817C200.739 169.05 200.93 169.314 201.057 169.61C201.184 169.902 201.247 170.235 201.247 170.607C201.247 170.996 201.169 171.347 201.012 171.661C200.856 171.97 200.631 172.234 200.339 172.454C200.052 172.67 199.705 172.837 199.298 172.956C198.896 173.07 198.448 173.127 197.953 173.127C197.508 173.127 197.07 173.068 196.639 172.949C196.211 172.831 195.822 172.651 195.471 172.41C195.119 172.164 194.84 171.86 194.633 171.496C194.425 171.127 194.322 170.698 194.322 170.207H195.915C195.915 170.507 195.966 170.764 196.067 170.975C196.173 171.187 196.319 171.36 196.505 171.496C196.692 171.627 196.907 171.724 197.153 171.788C197.403 171.851 197.669 171.883 197.953 171.883C198.325 171.883 198.636 171.83 198.886 171.724C199.14 171.618 199.33 171.47 199.457 171.28C199.584 171.089 199.647 170.869 199.647 170.62Z" fill="#CC6237"/>
<path d="M38.271 193.758V203H36.6777L32.5327 196.379V203H30.9395V193.758H32.5327L36.6904 200.391V193.758H38.271ZM43.8823 194.989L41.1211 203H39.4517L42.9302 193.758H43.9966L43.8823 194.989ZM46.1929 203L43.4253 194.989L43.3047 193.758H44.3774L47.8687 203H46.1929ZM46.0596 199.572V200.835H41.0322V199.572H46.0596ZM52.3691 198.823H50.0142L50.0015 197.662H52.0581C52.4051 197.662 52.6992 197.611 52.9404 197.509C53.1859 197.403 53.3721 197.253 53.499 197.059C53.626 196.86 53.6895 196.621 53.6895 196.341C53.6895 196.032 53.6302 195.781 53.5117 195.586C53.3932 195.391 53.2113 195.25 52.9658 195.161C52.7246 195.072 52.4157 195.027 52.0391 195.027H50.4966V203H48.9033V193.758H52.0391C52.5469 193.758 52.9997 193.806 53.3975 193.904C53.7995 194.001 54.1401 194.153 54.4194 194.361C54.703 194.564 54.9167 194.822 55.0605 195.135C55.2087 195.448 55.2827 195.821 55.2827 196.252C55.2827 196.633 55.1917 196.982 55.0098 197.3C54.8278 197.613 54.5591 197.869 54.2036 198.068C53.8481 198.267 53.4059 198.385 52.877 198.423L52.3691 198.823ZM52.2993 203H49.5127L50.23 201.737H52.2993C52.659 201.737 52.9595 201.678 53.2007 201.559C53.4419 201.436 53.6217 201.269 53.7402 201.058C53.863 200.842 53.9243 200.59 53.9243 200.302C53.9243 200.002 53.8714 199.742 53.7656 199.521C53.6598 199.297 53.4927 199.126 53.2642 199.007C53.0356 198.885 52.7373 198.823 52.3691 198.823H50.5791L50.5918 197.662H52.9214L53.2832 198.1C53.791 198.117 54.2078 198.229 54.5337 198.436C54.8638 198.643 55.1092 198.912 55.27 199.242C55.4308 199.572 55.5112 199.928 55.5112 200.309C55.5112 200.897 55.3822 201.39 55.124 201.788C54.8701 202.185 54.5041 202.488 54.0259 202.695C53.5477 202.898 52.9722 203 52.2993 203ZM58.8184 193.758V203H57.2251V193.758H58.8184ZM66.5879 201.737V203H61.9478V201.737H66.5879ZM62.3921 193.758V203H60.7988V193.758H62.3921ZM73.8687 201.737V203H68.9619V201.737H73.8687ZM69.4126 193.758V203H67.8193V193.758H69.4126ZM73.2275 197.617V198.861H68.9619V197.617H73.2275ZM73.8369 193.758V195.027H68.9619V193.758H73.8369ZM80.064 201.769L82.4951 203.698L81.4604 204.606L79.0737 202.695L80.064 201.769ZM82.5142 198.125V198.633C82.5142 199.331 82.4232 199.957 82.2412 200.512C82.0592 201.066 81.799 201.538 81.4604 201.927C81.1219 202.317 80.7178 202.615 80.248 202.822C79.7783 203.025 79.2578 203.127 78.6865 203.127C78.1195 203.127 77.6011 203.025 77.1313 202.822C76.6659 202.615 76.2617 202.317 75.9189 201.927C75.5762 201.538 75.3096 201.066 75.1191 200.512C74.9329 199.957 74.8398 199.331 74.8398 198.633V198.125C74.8398 197.427 74.9329 196.803 75.1191 196.252C75.3053 195.698 75.5677 195.226 75.9062 194.837C76.249 194.443 76.6532 194.145 77.1187 193.942C77.5884 193.735 78.1068 193.631 78.6738 193.631C79.2451 193.631 79.7656 193.735 80.2354 193.942C80.7093 194.145 81.1156 194.443 81.4541 194.837C81.7926 195.226 82.0529 195.698 82.2349 196.252C82.4211 196.803 82.5142 197.427 82.5142 198.125ZM80.9146 198.633V198.112C80.9146 197.596 80.8638 197.141 80.7622 196.748C80.6649 196.35 80.5189 196.018 80.3242 195.751C80.1338 195.48 79.8989 195.277 79.6196 195.142C79.3446 195.002 79.0293 194.932 78.6738 194.932C78.3268 194.932 78.0158 195.002 77.7407 195.142C77.4657 195.277 77.2308 195.48 77.0361 195.751C76.8415 196.018 76.6934 196.35 76.5918 196.748C76.4902 197.141 76.4395 197.596 76.4395 198.112V198.633C76.4395 199.149 76.4902 199.606 76.5918 200.004C76.6934 200.402 76.8415 200.738 77.0361 201.013C77.235 201.284 77.472 201.489 77.7471 201.629C78.0264 201.764 78.3395 201.832 78.6865 201.832C79.042 201.832 79.3573 201.764 79.6323 201.629C79.9074 201.489 80.1401 201.284 80.3306 201.013C80.521 200.738 80.6649 200.402 80.7622 200.004C80.8638 199.606 80.9146 199.149 80.9146 198.633ZM89.3188 193.758H90.9058V199.934C90.9058 200.637 90.7534 201.225 90.4487 201.699C90.144 202.173 89.7293 202.53 89.2046 202.771C88.6841 203.008 88.1022 203.127 87.459 203.127C86.7946 203.127 86.2021 203.008 85.6816 202.771C85.1611 202.53 84.7507 202.173 84.4502 201.699C84.154 201.225 84.0059 200.637 84.0059 199.934V193.758H85.5928V199.934C85.5928 200.378 85.6689 200.744 85.8213 201.032C85.9736 201.316 86.1895 201.525 86.4688 201.661C86.748 201.796 87.0781 201.864 87.459 201.864C87.8398 201.864 88.1678 201.796 88.4429 201.661C88.7222 201.525 88.938 201.316 89.0903 201.032C89.2427 200.744 89.3188 200.378 89.3188 199.934V193.758ZM98.688 201.737V203H93.7812V201.737H98.688ZM94.2319 193.758V203H92.6387V193.758H94.2319ZM98.0469 197.617V198.861H93.7812V197.617H98.0469ZM98.6562 193.758V195.027H93.7812V193.758H98.6562Z" fill="#CC6237"/>
</g>
<defs>
<filter id="filter0_d_56_6673" x="0" y="0" width="232" height="240" filterUnits="userSpaceOnUse" color-interpolation-filters="sRGB">
<feFlood flood-opacity="0" result="BackgroundImageFix"/>
<feColorMatrix in="SourceAlpha" type="matrix" values="0 0 0 0 0 0 0 0 0 0 0 0 0 0 0 0 0 0 127 0" result="hardAlpha"/>
<feOffset dy="4"/>
<feGaussianBlur stdDeviation="5"/>
<feComposite in2="hardAlpha" operator="out"/>
<feColorMatrix type="matrix" values="0 0 0 0 0 0 0 0 0 0 0 0 0 0 0 0 0 0 0.1 0"/>
<feBlend mode="normal" in2="BackgroundImageFix" result="effect1_dropShadow_56_6673"/>
<feBlend mode="normal" in="SourceGraphic" in2="effect1_dropShadow_56_6673" result="shape"/>
</filter>
</defs>
</svg>
