<svg width="194" height="40" viewBox="0 0 194 40" fill="none" xmlns="http://www.w3.org/2000/svg">
<g clip-path="url(#clip0_410_18832)">
<rect width="194" height="40" rx="20" fill="#F6F6F6"/>
<path d="M24.1484 16.7246L21.3242 24.5H20.1699L23.4219 15.9688H24.166L24.1484 16.7246ZM26.5156 24.5L23.6855 16.7246L23.668 15.9688H24.4121L27.6758 24.5H26.5156ZM26.3691 21.3418V22.2676H21.5762V21.3418H26.3691ZM29.832 15.5V24.5H28.7422V15.5H29.832ZM34.2266 18.1602V18.9922H30.7988V18.1602H34.2266ZM31.959 16.6191H33.043V22.9297C33.043 23.1445 33.0762 23.3066 33.1426 23.416C33.209 23.5254 33.2949 23.5977 33.4004 23.6328C33.5059 23.668 33.6191 23.6855 33.7402 23.6855C33.8301 23.6855 33.9238 23.6777 34.0215 23.6621C34.123 23.6426 34.1992 23.627 34.25 23.6152L34.2559 24.5C34.1699 24.5273 34.0566 24.5527 33.916 24.5762C33.7793 24.6035 33.6133 24.6172 33.418 24.6172C33.1523 24.6172 32.9082 24.5645 32.6855 24.459C32.4629 24.3535 32.2852 24.1777 32.1523 23.9316C32.0234 23.6816 31.959 23.3457 31.959 22.9238V16.6191ZM38.1289 24.6172C37.6875 24.6172 37.2871 24.543 36.9277 24.3945C36.5723 24.2422 36.2656 24.0293 36.0078 23.7559C35.7539 23.4824 35.5586 23.1582 35.4219 22.7832C35.2852 22.4082 35.2168 21.998 35.2168 21.5527V21.3066C35.2168 20.791 35.293 20.332 35.4453 19.9297C35.5977 19.5234 35.8047 19.1797 36.0664 18.8984C36.3281 18.6172 36.625 18.4043 36.957 18.2598C37.2891 18.1152 37.6328 18.043 37.9883 18.043C38.4414 18.043 38.832 18.1211 39.1602 18.2773C39.4922 18.4336 39.7637 18.6523 39.9746 18.9336C40.1855 19.2109 40.3418 19.5391 40.4434 19.918C40.5449 20.293 40.5957 20.7031 40.5957 21.1484V21.6348H35.8613V20.75H39.5117V20.668C39.4961 20.3867 39.4375 20.1133 39.3359 19.8477C39.2383 19.582 39.082 19.3633 38.8672 19.1914C38.6523 19.0195 38.3594 18.9336 37.9883 18.9336C37.7422 18.9336 37.5156 18.9863 37.3086 19.0918C37.1016 19.1934 36.9238 19.3457 36.7754 19.5488C36.627 19.752 36.5117 20 36.4297 20.293C36.3477 20.5859 36.3066 20.9238 36.3066 21.3066V21.5527C36.3066 21.8535 36.3477 22.1367 36.4297 22.4023C36.5156 22.6641 36.6387 22.8945 36.7988 23.0938C36.9629 23.293 37.1602 23.4492 37.3906 23.5625C37.625 23.6758 37.8906 23.7324 38.1875 23.7324C38.5703 23.7324 38.8945 23.6543 39.1602 23.498C39.4258 23.3418 39.6582 23.1328 39.8574 22.8711L40.5137 23.3926C40.377 23.5996 40.2031 23.7969 39.9922 23.9844C39.7812 24.1719 39.5215 24.3242 39.2129 24.4414C38.9082 24.5586 38.5469 24.6172 38.1289 24.6172ZM42.9453 19.1562V24.5H41.8613V18.1602H42.916L42.9453 19.1562ZM44.9258 18.125L44.9199 19.1328C44.8301 19.1133 44.7441 19.1016 44.6621 19.0977C44.584 19.0898 44.4941 19.0859 44.3926 19.0859C44.1426 19.0859 43.9219 19.125 43.7305 19.2031C43.5391 19.2812 43.377 19.3906 43.2441 19.5312C43.1113 19.6719 43.0059 19.8398 42.9277 20.0352C42.8535 20.2266 42.8047 20.4375 42.7812 20.668L42.4766 20.8438C42.4766 20.4609 42.5137 20.1016 42.5879 19.7656C42.666 19.4297 42.7852 19.1328 42.9453 18.875C43.1055 18.6133 43.3086 18.4102 43.5547 18.2656C43.8047 18.1172 44.1016 18.043 44.4453 18.043C44.5234 18.043 44.6133 18.0527 44.7148 18.0723C44.8164 18.0879 44.8867 18.1055 44.9258 18.125ZM49.4316 23.416V20.1523C49.4316 19.9023 49.3809 19.6855 49.2793 19.502C49.1816 19.3145 49.0332 19.1699 48.834 19.0684C48.6348 18.9668 48.3887 18.916 48.0957 18.916C47.8223 18.916 47.582 18.9629 47.375 19.0566C47.1719 19.1504 47.0117 19.2734 46.8945 19.4258C46.7812 19.5781 46.7246 19.7422 46.7246 19.918H45.6406C45.6406 19.6914 45.6992 19.4668 45.8164 19.2441C45.9336 19.0215 46.1016 18.8203 46.3203 18.6406C46.543 18.457 46.8086 18.3125 47.1172 18.207C47.4297 18.0977 47.7773 18.043 48.1602 18.043C48.6211 18.043 49.0273 18.1211 49.3789 18.2773C49.7344 18.4336 50.0117 18.6699 50.2109 18.9863C50.4141 19.2988 50.5156 19.6914 50.5156 20.1641V23.1172C50.5156 23.3281 50.5332 23.5527 50.5684 23.791C50.6074 24.0293 50.6641 24.2344 50.7383 24.4062V24.5H49.6074C49.5527 24.375 49.5098 24.209 49.4785 24.002C49.4473 23.791 49.4316 23.5957 49.4316 23.416ZM49.6191 20.6562L49.6309 21.418H48.5352C48.2266 21.418 47.9512 21.4434 47.709 21.4941C47.4668 21.541 47.2637 21.6133 47.0996 21.7109C46.9355 21.8086 46.8105 21.9316 46.7246 22.0801C46.6387 22.2246 46.5957 22.3945 46.5957 22.5898C46.5957 22.7891 46.6406 22.9707 46.7305 23.1348C46.8203 23.2988 46.9551 23.4297 47.1348 23.5273C47.3184 23.6211 47.543 23.668 47.8086 23.668C48.1406 23.668 48.4336 23.5977 48.6875 23.457C48.9414 23.3164 49.1426 23.1445 49.291 22.9414C49.4434 22.7383 49.5254 22.541 49.5371 22.3496L50 22.8711C49.9727 23.0352 49.8984 23.2168 49.7773 23.416C49.6562 23.6152 49.4941 23.8066 49.291 23.9902C49.0918 24.1699 48.8535 24.3203 48.5762 24.4414C48.3027 24.5586 47.9941 24.6172 47.6504 24.6172C47.2207 24.6172 46.8438 24.5332 46.5195 24.3652C46.1992 24.1973 45.9492 23.9727 45.7695 23.6914C45.5938 23.4062 45.5059 23.0879 45.5059 22.7363C45.5059 22.3965 45.5723 22.0977 45.7051 21.8398C45.8379 21.5781 46.0293 21.3613 46.2793 21.1895C46.5293 21.0137 46.8301 20.8809 47.1816 20.791C47.5332 20.7012 47.9258 20.6562 48.3594 20.6562H49.6191ZM53.3047 19.1562V24.5H52.2207V18.1602H53.2754L53.3047 19.1562ZM55.2852 18.125L55.2793 19.1328C55.1895 19.1133 55.1035 19.1016 55.0215 19.0977C54.9434 19.0898 54.8535 19.0859 54.752 19.0859C54.502 19.0859 54.2812 19.125 54.0898 19.2031C53.8984 19.2812 53.7363 19.3906 53.6035 19.5312C53.4707 19.6719 53.3652 19.8398 53.2871 20.0352C53.2129 20.2266 53.1641 20.4375 53.1406 20.668L52.8359 20.8438C52.8359 20.4609 52.873 20.1016 52.9473 19.7656C53.0254 19.4297 53.1445 19.1328 53.3047 18.875C53.4648 18.6133 53.668 18.4102 53.9141 18.2656C54.1641 18.1172 54.4609 18.043 54.8047 18.043C54.8828 18.043 54.9727 18.0527 55.0742 18.0723C55.1758 18.0879 55.2461 18.1055 55.2852 18.125ZM61.8008 23.7266C62.0586 23.7266 62.2969 23.6738 62.5156 23.5684C62.7344 23.4629 62.9141 23.3184 63.0547 23.1348C63.1953 22.9473 63.2754 22.7344 63.2949 22.4961H64.3262C64.3066 22.8711 64.1797 23.2207 63.9453 23.5449C63.7148 23.8652 63.4121 24.125 63.0371 24.3242C62.6621 24.5195 62.25 24.6172 61.8008 24.6172C61.3242 24.6172 60.9082 24.5332 60.5527 24.3652C60.2012 24.1973 59.9082 23.9668 59.6738 23.6738C59.4434 23.3809 59.2695 23.0449 59.1523 22.666C59.0391 22.2832 58.9824 21.8789 58.9824 21.4531V21.207C58.9824 20.7812 59.0391 20.3789 59.1523 20C59.2695 19.6172 59.4434 19.2793 59.6738 18.9863C59.9082 18.6934 60.2012 18.4629 60.5527 18.2949C60.9082 18.127 61.3242 18.043 61.8008 18.043C62.2969 18.043 62.7305 18.1445 63.1016 18.3477C63.4727 18.5469 63.7637 18.8203 63.9746 19.168C64.1895 19.5117 64.3066 19.9023 64.3262 20.3398H63.2949C63.2754 20.0781 63.2012 19.8418 63.0723 19.6309C62.9473 19.4199 62.7754 19.252 62.5566 19.127C62.3418 18.998 62.0898 18.9336 61.8008 18.9336C61.4688 18.9336 61.1895 19 60.9629 19.1328C60.7402 19.2617 60.5625 19.4375 60.4297 19.6602C60.3008 19.8789 60.207 20.123 60.1484 20.3926C60.0938 20.6582 60.0664 20.9297 60.0664 21.207V21.4531C60.0664 21.7305 60.0938 22.0039 60.1484 22.2734C60.2031 22.543 60.2949 22.7871 60.4238 23.0059C60.5566 23.2246 60.7344 23.4004 60.957 23.5332C61.1836 23.6621 61.4648 23.7266 61.8008 23.7266ZM65.2578 21.4004V21.2656C65.2578 20.8086 65.3242 20.3848 65.457 19.9941C65.5898 19.5996 65.7812 19.2578 66.0312 18.9688C66.2812 18.6758 66.584 18.4492 66.9395 18.2891C67.2949 18.125 67.6934 18.043 68.1348 18.043C68.5801 18.043 68.9805 18.125 69.3359 18.2891C69.6953 18.4492 70 18.6758 70.25 18.9688C70.5039 19.2578 70.6973 19.5996 70.8301 19.9941C70.9629 20.3848 71.0293 20.8086 71.0293 21.2656V21.4004C71.0293 21.8574 70.9629 22.2812 70.8301 22.6719C70.6973 23.0625 70.5039 23.4043 70.25 23.6973C70 23.9863 69.6973 24.2129 69.3418 24.377C68.9902 24.5371 68.5918 24.6172 68.1465 24.6172C67.7012 24.6172 67.3008 24.5371 66.9453 24.377C66.5898 24.2129 66.2852 23.9863 66.0312 23.6973C65.7812 23.4043 65.5898 23.0625 65.457 22.6719C65.3242 22.2812 65.2578 21.8574 65.2578 21.4004ZM66.3418 21.2656V21.4004C66.3418 21.7168 66.3789 22.0156 66.4531 22.2969C66.5273 22.5742 66.6387 22.8203 66.7871 23.0352C66.9395 23.25 67.1289 23.4199 67.3555 23.5449C67.582 23.666 67.8457 23.7266 68.1465 23.7266C68.4434 23.7266 68.7031 23.666 68.9258 23.5449C69.1523 23.4199 69.3398 23.25 69.4883 23.0352C69.6367 22.8203 69.748 22.5742 69.8223 22.2969C69.9004 22.0156 69.9395 21.7168 69.9395 21.4004V21.2656C69.9395 20.9531 69.9004 20.6582 69.8223 20.3809C69.748 20.0996 69.6348 19.8516 69.4824 19.6367C69.334 19.418 69.1465 19.2461 68.9199 19.1211C68.6973 18.9961 68.4355 18.9336 68.1348 18.9336C67.8379 18.9336 67.5762 18.9961 67.3496 19.1211C67.127 19.2461 66.9395 19.418 66.7871 19.6367C66.6387 19.8516 66.5273 20.0996 66.4531 20.3809C66.3789 20.6582 66.3418 20.9531 66.3418 21.2656ZM73.4727 19.1562V24.5H72.3887V18.1602H73.4434L73.4727 19.1562ZM75.4531 18.125L75.4473 19.1328C75.3574 19.1133 75.2715 19.1016 75.1895 19.0977C75.1113 19.0898 75.0215 19.0859 74.9199 19.0859C74.6699 19.0859 74.4492 19.125 74.2578 19.2031C74.0664 19.2812 73.9043 19.3906 73.7715 19.5312C73.6387 19.6719 73.5332 19.8398 73.4551 20.0352C73.3809 20.2266 73.332 20.4375 73.3086 20.668L73.0039 20.8438C73.0039 20.4609 73.041 20.1016 73.1152 19.7656C73.1934 19.4297 73.3125 19.1328 73.4727 18.875C73.6328 18.6133 73.8359 18.4102 74.082 18.2656C74.332 18.1172 74.6289 18.043 74.9727 18.043C75.0508 18.043 75.1406 18.0527 75.2422 18.0723C75.3438 18.0879 75.4141 18.1055 75.4531 18.125Z" fill="#657593"/>
<path d="M159.895 12.8594C162.28 11.4966 165.063 11.414 167.789 12.8145L168.163 13.0166C171.831 15.0995 173.28 19.0028 172.192 23.0781L172.075 23.4854C171.677 24.78 170.905 26.0795 169.851 26.9951L169.637 27.1729C168.455 28.1091 166.921 28.5793 165.242 28.0049V28.0039C164.171 27.6377 163.465 27.0722 163.017 26.377L162.931 26.2363C162.558 25.5925 162.42 24.8973 162.355 24.2793L162.331 24.0205C162.314 23.8288 162.303 23.6199 162.292 23.4307V23.4287C162.285 23.2964 162.277 23.1721 162.268 23.0654V23.0625C162.253 22.8427 162.234 22.6543 162.206 22.4912L162.173 22.3359C162.127 22.1421 162.068 22.0247 162.006 21.9492L162.005 21.9483C161.966 21.8992 161.912 21.8499 161.821 21.8086L161.717 21.7705C161.236 21.6236 160.921 21.6568 160.682 21.7334H160.681C160.459 21.8029 160.279 21.91 160.035 22.0586L160.036 22.0596L159.836 22.1807C159.554 22.3466 159.176 22.5488 158.697 22.5772L158.486 22.5781C157.983 22.5536 157.483 22.3366 156.946 21.9404L156.714 21.7598C156.077 21.2412 155.783 20.5424 155.716 19.8096L155.702 19.4942C155.699 18.6665 155.958 17.7898 156.335 16.9746L156.482 16.6719C157.251 15.1611 158.493 13.714 159.666 12.9951L159.895 12.8594ZM167.149 14.0586C164.759 12.8303 162.411 12.9616 160.411 14.1807L160.397 14.1895C159.49 14.7446 158.41 15.972 157.734 17.2979L157.604 17.5645C157.276 18.2707 157.1 18.9378 157.102 19.4893L157.111 19.6817C157.149 20.1156 157.311 20.4405 157.598 20.6748L157.781 20.8164C158.184 21.1127 158.422 21.1744 158.555 21.1807L158.667 21.1738C158.743 21.1617 158.828 21.1324 158.938 21.0772L159.124 20.9736L159.269 20.8867C159.516 20.7344 159.858 20.5263 160.257 20.3984L160.459 20.3428C160.936 20.2297 161.48 20.2336 162.127 20.4317H162.126C162.458 20.5264 162.758 20.7073 162.996 20.9551L163.094 21.0654L163.098 21.0713L163.246 21.2871C163.381 21.5101 163.48 21.7539 163.536 22.0098L163.583 22.2471C163.625 22.4843 163.653 22.724 163.666 22.9649L163.691 23.377L163.725 23.9053L163.775 24.3604C163.837 24.7988 163.942 25.1905 164.14 25.5332H164.141C164.393 25.9656 164.832 26.3843 165.696 26.6807L165.909 26.7461C166.967 27.0324 167.937 26.7339 168.768 26.0762L168.935 25.9375C169.76 25.2188 170.403 24.1601 170.737 23.0742L170.839 22.7217C171.779 19.2072 170.54 15.9734 167.463 14.2285L167.149 14.0586ZM166.5 23.0498C166.752 23.0498 166.993 23.1501 167.172 23.3281C167.35 23.5063 167.45 23.7481 167.45 24C167.45 24.1247 167.425 24.2481 167.378 24.3633C167.33 24.4785 167.26 24.5837 167.172 24.6719C167.083 24.76 166.979 24.8302 166.864 24.8779C166.749 24.9257 166.624 24.9502 166.5 24.9502C166.375 24.9502 166.251 24.9256 166.136 24.8779C166.021 24.8303 165.917 24.76 165.829 24.6719C165.741 24.5837 165.67 24.4785 165.623 24.3633C165.575 24.2481 165.55 24.1247 165.55 24C165.55 23.7481 165.651 23.5063 165.829 23.3281C166.007 23.1502 166.248 23.0499 166.5 23.0498ZM168.5 21.0498C168.752 21.0498 168.993 21.1501 169.172 21.3281C169.35 21.5063 169.45 21.7481 169.45 22C169.45 22.252 169.35 22.4937 169.172 22.6719C168.993 22.8499 168.752 22.9502 168.5 22.9502C168.248 22.9501 168.007 22.8498 167.829 22.6719C167.651 22.4937 167.55 22.252 167.55 22C167.55 21.7481 167.651 21.5063 167.829 21.3281C168.007 21.1502 168.248 21.0499 168.5 21.0498ZM168.5 18.0498C168.752 18.0498 168.993 18.1501 169.172 18.3281C169.35 18.5063 169.45 18.7481 169.45 19C169.45 19.252 169.35 19.4937 169.172 19.6719C168.993 19.8499 168.752 19.9502 168.5 19.9502C168.248 19.9501 168.007 19.8498 167.829 19.6719C167.651 19.4937 167.55 19.252 167.55 19C167.55 18.7481 167.651 18.5063 167.829 18.3281C168.007 18.1502 168.248 18.0499 168.5 18.0498ZM166.75 15.7998C167.002 15.7998 167.243 15.9001 167.422 16.0781C167.6 16.2563 167.7 16.4981 167.7 16.75C167.7 17.002 167.6 17.2437 167.422 17.4219C167.243 17.5999 167.002 17.7002 166.75 17.7002C166.498 17.7001 166.257 17.5998 166.079 17.4219C165.901 17.2437 165.8 17.002 165.8 16.75C165.8 16.4981 165.901 16.2563 166.079 16.0781C166.257 15.9002 166.498 15.7999 166.75 15.7998ZM163.75 14.7998C164.002 14.7998 164.243 14.9001 164.422 15.0781C164.6 15.2563 164.7 15.4981 164.7 15.75C164.7 16.002 164.6 16.2437 164.422 16.4219C164.243 16.5999 164.002 16.7002 163.75 16.7002C163.498 16.7001 163.257 16.5998 163.079 16.4219C162.901 16.2437 162.8 16.002 162.8 15.75C162.8 15.4981 162.901 15.2563 163.079 15.0781C163.257 14.9002 163.498 14.7999 163.75 14.7998Z" fill="#FEA501" stroke="#FEA501" stroke-width="0.4"/>
</g>
<defs>
<clipPath id="clip0_410_18832">
<rect width="194" height="40" fill="white"/>
</clipPath>
</defs>
</svg>
