<svg width="151" height="60" viewBox="0 0 151 60" fill="none" xmlns="http://www.w3.org/2000/svg">
<g clip-path="url(#clip0_413_22486)">
<path d="M6.74756 10.6289V12H2.10107V10.6289H6.74756ZM2.62793 2.75781V12H0.882324V2.75781H2.62793ZM11.5718 10.54V7.37256C11.5718 7.13981 11.5316 6.9388 11.4512 6.76953C11.3708 6.60026 11.248 6.46908 11.083 6.37598C10.918 6.28288 10.7085 6.23633 10.4546 6.23633C10.2303 6.23633 10.0335 6.27441 9.86426 6.35059C9.69922 6.42676 9.57227 6.53467 9.4834 6.67432C9.39453 6.80973 9.3501 6.96631 9.3501 7.14404H7.66797C7.66797 6.86051 7.73568 6.5918 7.87109 6.33789C8.00651 6.07975 8.19906 5.85124 8.44873 5.65234C8.70264 5.44922 9.00521 5.29053 9.35645 5.17627C9.71191 5.06201 10.1097 5.00488 10.5498 5.00488C11.0703 5.00488 11.5337 5.09375 11.9399 5.27148C12.3504 5.44499 12.672 5.70736 12.9048 6.05859C13.1418 6.40983 13.2603 6.85205 13.2603 7.38525V10.3813C13.2603 10.7241 13.2814 11.0182 13.3237 11.2637C13.3703 11.5049 13.438 11.7144 13.5269 11.8921V12H11.8193C11.7389 11.8265 11.6776 11.6064 11.6353 11.3398C11.5929 11.069 11.5718 10.8024 11.5718 10.54ZM11.8066 7.81689L11.8193 8.81348H10.7593C10.4969 8.81348 10.2663 8.84098 10.0674 8.896C9.86849 8.94678 9.70557 9.02295 9.57861 9.12451C9.45166 9.22184 9.35645 9.34033 9.29297 9.47998C9.22949 9.6154 9.19775 9.76986 9.19775 9.94336C9.19775 10.1126 9.23584 10.265 9.31201 10.4004C9.39242 10.5358 9.50667 10.6437 9.65479 10.7241C9.80713 10.8003 9.98486 10.8384 10.188 10.8384C10.4842 10.8384 10.7424 10.7791 10.9624 10.6606C11.1825 10.5379 11.3538 10.3898 11.4766 10.2163C11.5993 10.0428 11.6649 9.87777 11.6733 9.72119L12.1558 10.4448C12.0965 10.6183 12.0076 10.8024 11.8892 10.9971C11.7707 11.1917 11.6183 11.3737 11.4321 11.543C11.2459 11.7122 11.0216 11.8519 10.7593 11.9619C10.4969 12.0719 10.1922 12.127 9.84521 12.127C9.40088 12.127 9.00309 12.0381 8.65186 11.8604C8.30062 11.6826 8.02344 11.4393 7.82031 11.1304C7.61719 10.8215 7.51562 10.4702 7.51562 10.0767C7.51562 9.71273 7.58333 9.39111 7.71875 9.11182C7.85417 8.83252 8.05518 8.59766 8.32178 8.40723C8.58838 8.21257 8.91846 8.06657 9.31201 7.96924C9.7098 7.86768 10.1647 7.81689 10.6768 7.81689H11.8066ZM14.7646 2.25H16.4468V10.4829L16.2817 12H14.7646V2.25ZM20.8647 8.49609V8.62939C20.8647 9.14144 20.8076 9.61117 20.6934 10.0386C20.5833 10.466 20.4162 10.8363 20.1919 11.1494C19.9676 11.4583 19.6883 11.6995 19.354 11.873C19.0239 12.0423 18.6367 12.127 18.1924 12.127C17.7692 12.127 17.401 12.0444 17.0879 11.8794C16.779 11.7144 16.5187 11.4816 16.3071 11.1812C16.0955 10.8765 15.9263 10.5189 15.7993 10.1084C15.6724 9.69368 15.5771 9.24089 15.5137 8.75V8.38818C15.5771 7.89307 15.6724 7.44027 15.7993 7.02979C15.9263 6.6193 16.0955 6.26172 16.3071 5.95703C16.5187 5.65234 16.779 5.41748 17.0879 5.25244C17.3968 5.0874 17.7607 5.00488 18.1797 5.00488C18.6283 5.00488 19.0197 5.09163 19.354 5.26514C19.6925 5.43441 19.9718 5.67562 20.1919 5.98877C20.4162 6.29769 20.5833 6.66585 20.6934 7.09326C20.8076 7.51644 20.8647 7.98405 20.8647 8.49609ZM19.1826 8.62939V8.49609C19.1826 8.2041 19.1593 7.92904 19.1128 7.6709C19.0662 7.40853 18.9901 7.1779 18.8843 6.979C18.7785 6.78011 18.6346 6.62354 18.4526 6.50928C18.2707 6.39502 18.0422 6.33789 17.7671 6.33789C17.5047 6.33789 17.2804 6.38232 17.0942 6.47119C16.9123 6.56006 16.7599 6.68278 16.6372 6.83936C16.5187 6.99593 16.4256 7.18001 16.3579 7.3916C16.2944 7.60319 16.2521 7.83171 16.231 8.07715V9.06738C16.2606 9.39323 16.3304 9.68734 16.4404 9.94971C16.5505 10.2078 16.7134 10.4131 16.9292 10.5654C17.1493 10.7178 17.4328 10.7939 17.7798 10.7939C18.0506 10.7939 18.277 10.741 18.459 10.6353C18.641 10.5252 18.7848 10.3729 18.8906 10.1782C18.9964 9.97933 19.0705 9.7487 19.1128 9.48633C19.1593 9.22396 19.1826 8.93831 19.1826 8.62939ZM25.1685 12.127C24.6479 12.127 24.1803 12.0423 23.7656 11.873C23.3509 11.7038 22.9976 11.4689 22.7056 11.1685C22.4178 10.8638 22.1956 10.5104 22.0391 10.1084C21.8867 9.70215 21.8105 9.26628 21.8105 8.80078V8.54688C21.8105 8.0179 21.8867 7.5376 22.0391 7.10596C22.1914 6.67008 22.4072 6.29557 22.6865 5.98242C22.9658 5.66927 23.3001 5.42806 23.6895 5.25879C24.0788 5.08952 24.5083 5.00488 24.978 5.00488C25.4647 5.00488 25.8942 5.0874 26.2666 5.25244C26.639 5.41325 26.95 5.64176 27.1997 5.93799C27.4494 6.23421 27.6377 6.58968 27.7646 7.00439C27.8916 7.41488 27.9551 7.86979 27.9551 8.36914V9.07373H22.5723V7.91846H26.3047V7.7915C26.2962 7.5249 26.2454 7.28158 26.1523 7.06152C26.0592 6.83724 25.9154 6.65951 25.7207 6.52832C25.526 6.3929 25.2743 6.3252 24.9653 6.3252C24.7157 6.3252 24.4977 6.38021 24.3115 6.49023C24.1296 6.59603 23.9772 6.74837 23.8545 6.94727C23.736 7.14193 23.6471 7.37467 23.5879 7.64551C23.5286 7.91634 23.499 8.2168 23.499 8.54688V8.80078C23.499 9.08854 23.5371 9.35514 23.6133 9.60059C23.6937 9.84603 23.8101 10.0597 23.9624 10.2417C24.119 10.4194 24.3052 10.5591 24.521 10.6606C24.741 10.758 24.9907 10.8066 25.27 10.8066C25.6213 10.8066 25.9386 10.7389 26.2222 10.6035C26.5099 10.4639 26.7596 10.2586 26.9712 9.98779L27.8154 10.8638C27.6715 11.0754 27.4769 11.2785 27.2314 11.4731C26.9902 11.6678 26.6982 11.8265 26.3555 11.9492C26.0127 12.0677 25.617 12.127 25.1685 12.127ZM30.856 2.25V12H29.1738V2.25H30.856ZM39.8125 10.54V2.25H41.501V12H39.9775L39.8125 10.54ZM35.4009 8.64844V8.51514C35.4009 7.9904 35.4601 7.51432 35.5786 7.08691C35.7013 6.65527 35.8791 6.28499 36.1118 5.97607C36.3446 5.66715 36.626 5.42806 36.9561 5.25879C37.2904 5.08952 37.6691 5.00488 38.0923 5.00488C38.5028 5.00488 38.8604 5.0874 39.165 5.25244C39.474 5.41748 39.7363 5.65234 39.9521 5.95703C40.1722 6.26172 40.3478 6.62354 40.479 7.04248C40.6102 7.45719 40.7054 7.91423 40.7646 8.41357V8.77539C40.7054 9.26204 40.6102 9.7085 40.479 10.1147C40.3478 10.521 40.1722 10.8765 39.9521 11.1812C39.7363 11.4816 39.474 11.7144 39.165 11.8794C38.8561 12.0444 38.4943 12.127 38.0796 12.127C37.6606 12.127 37.284 12.0402 36.9497 11.8667C36.6196 11.6932 36.3382 11.4499 36.1055 11.1367C35.877 10.8236 35.7013 10.4554 35.5786 10.0322C35.4601 9.60905 35.4009 9.14779 35.4009 8.64844ZM37.083 8.51514V8.64844C37.083 8.94466 37.1084 9.22184 37.1592 9.47998C37.21 9.73812 37.2925 9.96663 37.4067 10.1655C37.521 10.3602 37.667 10.5125 37.8447 10.6226C38.0267 10.7326 38.2467 10.7876 38.5049 10.7876C38.835 10.7876 39.1058 10.7157 39.3174 10.5718C39.5332 10.4237 39.7004 10.2227 39.8188 9.96875C39.9373 9.71061 40.0135 9.42074 40.0474 9.09912V8.10254C40.0304 7.84863 39.986 7.61377 39.9141 7.39795C39.8464 7.18213 39.749 6.99593 39.6221 6.83936C39.4993 6.68278 39.347 6.56006 39.165 6.47119C38.9831 6.38232 38.7673 6.33789 38.5176 6.33789C38.2594 6.33789 38.0394 6.39502 37.8574 6.50928C37.6755 6.6193 37.5273 6.77376 37.4131 6.97266C37.2988 7.17155 37.2142 7.40218 37.1592 7.66455C37.1084 7.92692 37.083 8.21045 37.083 8.51514ZM42.7197 8.63574V8.50244C42.7197 7.99886 42.7917 7.53548 42.9355 7.1123C43.0794 6.6849 43.2889 6.31462 43.564 6.00146C43.839 5.68831 44.1755 5.44499 44.5732 5.27148C44.971 5.09375 45.4238 5.00488 45.9316 5.00488C46.4479 5.00488 46.9049 5.09375 47.3027 5.27148C47.7048 5.44499 48.0433 5.68831 48.3184 6.00146C48.5934 6.31462 48.8029 6.6849 48.9468 7.1123C49.0907 7.53548 49.1626 7.99886 49.1626 8.50244V8.63574C49.1626 9.13509 49.0907 9.59847 48.9468 10.0259C48.8029 10.4491 48.5934 10.8193 48.3184 11.1367C48.0433 11.4499 47.7069 11.6932 47.3091 11.8667C46.9113 12.0402 46.4564 12.127 45.9443 12.127C45.4365 12.127 44.9816 12.0402 44.5796 11.8667C44.1776 11.6932 43.839 11.4499 43.564 11.1367C43.2889 10.8193 43.0794 10.4491 42.9355 10.0259C42.7917 9.59847 42.7197 9.13509 42.7197 8.63574ZM44.3955 8.50244V8.63574C44.3955 8.9362 44.4251 9.21761 44.4844 9.47998C44.5436 9.74235 44.6346 9.97298 44.7573 10.1719C44.88 10.3708 45.0387 10.5273 45.2334 10.6416C45.4323 10.7516 45.6693 10.8066 45.9443 10.8066C46.2152 10.8066 46.4479 10.7516 46.6426 10.6416C46.8372 10.5273 46.9959 10.3708 47.1187 10.1719C47.2456 9.97298 47.3387 9.74235 47.3979 9.47998C47.4572 9.21761 47.4868 8.9362 47.4868 8.63574V8.50244C47.4868 8.20622 47.4572 7.92904 47.3979 7.6709C47.3387 7.40853 47.2456 7.1779 47.1187 6.979C46.9959 6.77588 46.8351 6.61719 46.6362 6.50293C46.4416 6.38444 46.2067 6.3252 45.9316 6.3252C45.6608 6.3252 45.4281 6.38444 45.2334 6.50293C45.0387 6.61719 44.88 6.77588 44.7573 6.979C44.6346 7.1779 44.5436 7.40853 44.4844 7.6709C44.4251 7.92904 44.3955 8.20622 44.3955 8.50244ZM55.396 5.13184V12H53.7139V5.13184H55.396ZM53.5996 3.33545C53.5996 3.08577 53.6842 2.87842 53.8535 2.71338C54.027 2.54834 54.2598 2.46582 54.5518 2.46582C54.8438 2.46582 55.0744 2.54834 55.2437 2.71338C55.4172 2.87842 55.5039 3.08577 55.5039 3.33545C55.5039 3.58089 55.4172 3.78613 55.2437 3.95117C55.0744 4.11621 54.8438 4.19873 54.5518 4.19873C54.2598 4.19873 54.027 4.11621 53.8535 3.95117C53.6842 3.78613 53.5996 3.58089 53.5996 3.33545ZM58.6396 6.59814V12H56.9639V5.13184H58.5381L58.6396 6.59814ZM58.373 8.31836H57.8779C57.8822 7.81901 57.9499 7.36621 58.0811 6.95996C58.2122 6.55371 58.3963 6.20459 58.6333 5.9126C58.8745 5.62061 59.1602 5.39632 59.4902 5.23975C59.8203 5.08317 60.1885 5.00488 60.5947 5.00488C60.9248 5.00488 61.2231 5.05143 61.4897 5.14453C61.7563 5.23763 61.9849 5.38574 62.1753 5.58887C62.37 5.79199 62.5181 6.05859 62.6196 6.38867C62.7254 6.71452 62.7783 7.11654 62.7783 7.59473V12H61.0898V7.58203C61.0898 7.26888 61.0433 7.02132 60.9502 6.83936C60.8613 6.65739 60.7301 6.52832 60.5566 6.45215C60.3874 6.37598 60.1779 6.33789 59.9282 6.33789C59.6701 6.33789 59.4437 6.39079 59.249 6.49658C59.0586 6.59814 58.8978 6.73991 58.7666 6.92188C58.6396 7.10384 58.5423 7.31331 58.4746 7.55029C58.4069 7.78727 58.373 8.04329 58.373 8.31836ZM65.9331 6.45215V14.6406H64.251V5.13184H65.8062L65.9331 6.45215ZM70.3447 8.49609V8.62939C70.3447 9.12874 70.2855 9.59212 70.167 10.0195C70.0527 10.4427 69.8835 10.813 69.6592 11.1304C69.4349 11.4435 69.1556 11.689 68.8213 11.8667C68.4912 12.0402 68.1104 12.127 67.6787 12.127C67.2555 12.127 66.8874 12.0465 66.5742 11.8857C66.2611 11.7207 65.9966 11.488 65.7808 11.1875C65.5649 10.887 65.3914 10.5379 65.2603 10.1401C65.1333 9.73812 65.0381 9.30013 64.9746 8.82617V8.40088C65.0381 7.8973 65.1333 7.44027 65.2603 7.02979C65.3914 6.61507 65.5649 6.25749 65.7808 5.95703C65.9966 5.65234 66.259 5.41748 66.5679 5.25244C66.881 5.0874 67.2471 5.00488 67.666 5.00488C68.1019 5.00488 68.4849 5.0874 68.8149 5.25244C69.1493 5.41748 69.4307 5.65446 69.6592 5.96338C69.8877 6.2723 70.0591 6.64046 70.1733 7.06787C70.2876 7.49528 70.3447 7.97135 70.3447 8.49609ZM68.6626 8.62939V8.49609C68.6626 8.19141 68.6351 7.90999 68.5801 7.65186C68.5251 7.38949 68.4404 7.16097 68.3262 6.96631C68.2119 6.76742 68.0638 6.61296 67.8818 6.50293C67.6999 6.3929 67.4798 6.33789 67.2217 6.33789C66.9635 6.33789 66.7414 6.38021 66.5552 6.46484C66.369 6.54948 66.2166 6.67008 66.0981 6.82666C65.9797 6.98324 65.8866 7.16943 65.8188 7.38525C65.7554 7.59684 65.7131 7.83171 65.6919 8.08984V9.14355C65.73 9.45671 65.804 9.73812 65.9141 9.98779C66.0241 10.2375 66.1849 10.4364 66.3965 10.5845C66.6123 10.7326 66.8916 10.8066 67.2344 10.8066C67.4925 10.8066 67.7126 10.7495 67.8945 10.6353C68.0765 10.521 68.2246 10.3644 68.3389 10.1655C68.4531 9.9624 68.5356 9.72965 68.5864 9.46729C68.6372 9.20492 68.6626 8.92562 68.6626 8.62939ZM75.6577 10.3687V5.13184H77.3462V12H75.7593L75.6577 10.3687ZM75.8735 8.94678L76.394 8.93408C76.394 9.39535 76.3433 9.82064 76.2417 10.21C76.1401 10.5993 75.9814 10.9378 75.7656 11.2256C75.554 11.5091 75.2853 11.7313 74.9595 11.8921C74.6336 12.0487 74.2485 12.127 73.8042 12.127C73.4657 12.127 73.1567 12.0804 72.8774 11.9873C72.5981 11.89 72.3569 11.7397 72.1538 11.5366C71.9549 11.3293 71.8005 11.0648 71.6904 10.7432C71.5804 10.4173 71.5254 10.0259 71.5254 9.56885V5.13184H73.2012V9.58154C73.2012 9.81006 73.2266 10.0005 73.2773 10.1528C73.3324 10.3052 73.4064 10.43 73.4995 10.5273C73.5968 10.6204 73.709 10.6882 73.8359 10.7305C73.9671 10.7686 74.1068 10.7876 74.2549 10.7876C74.6611 10.7876 74.9806 10.7072 75.2134 10.5464C75.4504 10.3813 75.6196 10.1613 75.7212 9.88623C75.8228 9.60693 75.8735 9.29378 75.8735 8.94678ZM82.0815 5.13184V6.33789H78.146V5.13184H82.0815ZM79.1997 3.44336H80.8818V10.0195C80.8818 10.2227 80.9093 10.3792 80.9644 10.4893C81.0194 10.5993 81.1019 10.6733 81.2119 10.7114C81.3219 10.7495 81.4531 10.7686 81.6055 10.7686C81.7155 10.7686 81.8171 10.7622 81.9102 10.7495C82.0033 10.7368 82.0815 10.7241 82.145 10.7114L82.1514 11.9683C82.0117 12.0148 81.853 12.0529 81.6753 12.0825C81.5018 12.1121 81.305 12.127 81.085 12.127C80.7083 12.127 80.3783 12.0635 80.0947 11.9365C79.8112 11.8053 79.5911 11.5959 79.4346 11.3081C79.278 11.0161 79.1997 10.631 79.1997 10.1528V3.44336Z" fill="#CC6237"/>
<rect y="20" width="151" height="40" rx="20" fill="#F6F6F6"/>
<g clip-path="url(#clip1_413_22486)">
<path d="M25.673 30C25.8587 30 26.0367 30.0737 26.168 30.205C26.2993 30.3363 26.373 30.5143 26.373 30.7V32.009H33.89V30.709C33.89 30.5233 33.9637 30.3453 34.095 30.214C34.2263 30.0827 34.4043 30.009 34.59 30.009C34.7757 30.009 34.9537 30.0827 35.085 30.214C35.2162 30.3453 35.29 30.5233 35.29 30.709V32.009H38C38.5303 32.009 39.0388 32.2196 39.4139 32.5944C39.7889 32.9693 39.9997 33.4777 40 34.008V48.001C39.9997 48.5313 39.7889 49.0397 39.4139 49.4146C39.0388 49.7894 38.5303 50 38 50H22C21.4697 50 20.9612 49.7894 20.5861 49.4146C20.2111 49.0397 20.0003 48.5313 20 48.001V34.008C20.0003 33.4777 20.2111 32.9693 20.5861 32.5944C20.9612 32.2196 21.4697 32.009 22 32.009H24.973V30.699C24.9733 30.5135 25.0471 30.3357 25.1784 30.2047C25.3096 30.0736 25.4875 30 25.673 30ZM21.4 37.742V48.001C21.4 48.0798 21.4155 48.1578 21.4457 48.2306C21.4758 48.3034 21.52 48.3695 21.5757 48.4253C21.6315 48.481 21.6976 48.5252 21.7704 48.5553C21.8432 48.5855 21.9212 48.601 22 48.601H38C38.0788 48.601 38.1568 48.5855 38.2296 48.5553C38.3024 48.5252 38.3685 48.481 38.4243 48.4253C38.48 48.3695 38.5242 48.3034 38.5543 48.2306C38.5845 48.1578 38.6 48.0798 38.6 48.001V37.756L21.4 37.742ZM26.667 44.619V46.285H25V44.619H26.667ZM30.833 44.619V46.285H29.167V44.619H30.833ZM35 44.619V46.285H33.333V44.619H35ZM26.667 40.642V42.308H25V40.642H26.667ZM30.833 40.642V42.308H29.167V40.642H30.833ZM35 40.642V42.308H33.333V40.642H35ZM24.973 33.408H22C21.9212 33.408 21.8432 33.4235 21.7704 33.4537C21.6976 33.4838 21.6315 33.528 21.5757 33.5837C21.52 33.6395 21.4758 33.7056 21.4457 33.7784C21.4155 33.8512 21.4 33.9292 21.4 34.008V36.343L38.6 36.357V34.008C38.6 33.9292 38.5845 33.8512 38.5543 33.7784C38.5242 33.7056 38.48 33.6395 38.4243 33.5837C38.3685 33.528 38.3024 33.4838 38.2296 33.4537C38.1568 33.4235 38.0788 33.408 38 33.408H35.29V34.337C35.29 34.5227 35.2162 34.7007 35.085 34.832C34.9537 34.9633 34.7757 35.037 34.59 35.037C34.4043 35.037 34.2263 34.9633 34.095 34.832C33.9637 34.7007 33.89 34.5227 33.89 34.337V33.408H26.373V34.328C26.373 34.5137 26.2993 34.6917 26.168 34.823C26.0367 34.9543 25.8587 35.028 25.673 35.028C25.4873 35.028 25.3093 34.9543 25.178 34.823C25.0467 34.6917 24.973 34.5137 24.973 34.328V33.408Z" fill="#657593"/>
</g>
<path d="M53.2988 44.5H51.5176L51.5293 43.5801H53.2988C53.9082 43.5801 54.416 43.4531 54.8223 43.1992C55.2285 42.9414 55.5332 42.582 55.7363 42.1211C55.9434 41.6562 56.0469 41.1133 56.0469 40.4922V39.9707C56.0469 39.4824 55.9883 39.0488 55.8711 38.6699C55.7539 38.2871 55.582 37.9648 55.3555 37.7031C55.1289 37.4375 54.8516 37.2363 54.5234 37.0996C54.1992 36.9629 53.8262 36.8945 53.4043 36.8945H51.4824V35.9688H53.4043C53.9629 35.9688 54.4727 36.0625 54.9336 36.25C55.3945 36.4336 55.791 36.7012 56.123 37.0527C56.459 37.4004 56.7168 37.8223 56.8965 38.3184C57.0762 38.8105 57.166 39.3652 57.166 39.9824V40.4922C57.166 41.1094 57.0762 41.666 56.8965 42.1621C56.7168 42.6543 56.457 43.0742 56.1172 43.4219C55.7812 43.7695 55.375 44.0371 54.8984 44.2246C54.4258 44.4082 53.8926 44.5 53.2988 44.5ZM52.1211 35.9688V44.5H50.9902V35.9688H52.1211ZM61.1738 44.5H59.3926L59.4043 43.5801H61.1738C61.7832 43.5801 62.291 43.4531 62.6973 43.1992C63.1035 42.9414 63.4082 42.582 63.6113 42.1211C63.8184 41.6562 63.9219 41.1133 63.9219 40.4922V39.9707C63.9219 39.4824 63.8633 39.0488 63.7461 38.6699C63.6289 38.2871 63.457 37.9648 63.2305 37.7031C63.0039 37.4375 62.7266 37.2363 62.3984 37.0996C62.0742 36.9629 61.7012 36.8945 61.2793 36.8945H59.3574V35.9688H61.2793C61.8379 35.9688 62.3477 36.0625 62.8086 36.25C63.2695 36.4336 63.666 36.7012 63.998 37.0527C64.334 37.4004 64.5918 37.8223 64.7715 38.3184C64.9512 38.8105 65.041 39.3652 65.041 39.9824V40.4922C65.041 41.1094 64.9512 41.666 64.7715 42.1621C64.5918 42.6543 64.332 43.0742 63.9922 43.4219C63.6562 43.7695 63.25 44.0371 62.7734 44.2246C62.3008 44.4082 61.7676 44.5 61.1738 44.5ZM59.9961 35.9688V44.5H58.8652V35.9688H59.9961ZM70.3496 35.9688L66.793 45.2324H65.8613L69.4238 35.9688H70.3496ZM72.0547 35.9688H73.1504L75.9453 42.9238L78.7344 35.9688H79.8359L76.3672 44.5H75.5117L72.0547 35.9688ZM71.6973 35.9688H72.6641L72.8223 41.1719V44.5H71.6973V35.9688ZM79.2207 35.9688H80.1875V44.5H79.0625V41.1719L79.2207 35.9688ZM82.5312 35.9688H83.627L86.4219 42.9238L89.2109 35.9688H90.3125L86.8438 44.5H85.9883L82.5312 35.9688ZM82.1738 35.9688H83.1406L83.2988 41.1719V44.5H82.1738V35.9688ZM89.6973 35.9688H90.6641V44.5H89.5391V41.1719L89.6973 35.9688ZM96.2598 35.9688L92.7031 45.2324H91.7715L95.334 35.9688H96.2598ZM100.766 36.7246L97.9414 44.5H96.7871L100.039 35.9688H100.783L100.766 36.7246ZM103.133 44.5L100.303 36.7246L100.285 35.9688H101.029L104.293 44.5H103.133ZM102.986 41.3418V42.2676H98.1934V41.3418H102.986ZM108.594 36.7246L105.77 44.5H104.615L107.867 35.9688H108.611L108.594 36.7246ZM110.961 44.5L108.131 36.7246L108.113 35.9688H108.857L112.121 44.5H110.961ZM110.814 41.3418V42.2676H106.021V41.3418H110.814ZM116.422 36.7246L113.598 44.5H112.443L115.695 35.9688H116.439L116.422 36.7246ZM118.789 44.5L115.959 36.7246L115.941 35.9688H116.686L119.949 44.5H118.789ZM118.643 41.3418V42.2676H113.85V41.3418H118.643ZM124.25 36.7246L121.426 44.5H120.271L123.523 35.9688H124.268L124.25 36.7246ZM126.617 44.5L123.787 36.7246L123.77 35.9688H124.514L127.777 44.5H126.617ZM126.471 41.3418V42.2676H121.678V41.3418H126.471Z" fill="#657593"/>
</g>
<defs>
<clipPath id="clip0_413_22486">
<rect width="151" height="60" fill="white"/>
</clipPath>
<clipPath id="clip1_413_22486">
<rect width="20" height="20" fill="white" transform="translate(20 30)"/>
</clipPath>
</defs>
</svg>
