<svg width="333" height="60" viewBox="0 0 333 60" fill="none" xmlns="http://www.w3.org/2000/svg">
<g clip-path="url(#clip0_14_3460)">
<path d="M6.74756 10.6289V12H2.10107V10.6289H6.74756ZM2.62793 2.75781V12H0.882324V2.75781H2.62793ZM11.5718 10.54V7.37256C11.5718 7.13981 11.5316 6.9388 11.4512 6.76953C11.3708 6.60026 11.248 6.46908 11.083 6.37598C10.918 6.28288 10.7085 6.23633 10.4546 6.23633C10.2303 6.23633 10.0335 6.27441 9.86426 6.35059C9.69922 6.42676 9.57227 6.53467 9.4834 6.67432C9.39453 6.80973 9.3501 6.96631 9.3501 7.14404H7.66797C7.66797 6.86051 7.73568 6.5918 7.87109 6.33789C8.00651 6.07975 8.19906 5.85124 8.44873 5.65234C8.70264 5.44922 9.00521 5.29053 9.35645 5.17627C9.71191 5.06201 10.1097 5.00488 10.5498 5.00488C11.0703 5.00488 11.5337 5.09375 11.9399 5.27148C12.3504 5.44499 12.672 5.70736 12.9048 6.05859C13.1418 6.40983 13.2603 6.85205 13.2603 7.38525V10.3813C13.2603 10.7241 13.2814 11.0182 13.3237 11.2637C13.3703 11.5049 13.438 11.7144 13.5269 11.8921V12H11.8193C11.7389 11.8265 11.6776 11.6064 11.6353 11.3398C11.5929 11.069 11.5718 10.8024 11.5718 10.54ZM11.8066 7.81689L11.8193 8.81348H10.7593C10.4969 8.81348 10.2663 8.84098 10.0674 8.896C9.86849 8.94678 9.70557 9.02295 9.57861 9.12451C9.45166 9.22184 9.35645 9.34033 9.29297 9.47998C9.22949 9.6154 9.19775 9.76986 9.19775 9.94336C9.19775 10.1126 9.23584 10.265 9.31201 10.4004C9.39242 10.5358 9.50667 10.6437 9.65479 10.7241C9.80713 10.8003 9.98486 10.8384 10.188 10.8384C10.4842 10.8384 10.7424 10.7791 10.9624 10.6606C11.1825 10.5379 11.3538 10.3898 11.4766 10.2163C11.5993 10.0428 11.6649 9.87777 11.6733 9.72119L12.1558 10.4448C12.0965 10.6183 12.0076 10.8024 11.8892 10.9971C11.7707 11.1917 11.6183 11.3737 11.4321 11.543C11.2459 11.7122 11.0216 11.8519 10.7593 11.9619C10.4969 12.0719 10.1922 12.127 9.84521 12.127C9.40088 12.127 9.00309 12.0381 8.65186 11.8604C8.30062 11.6826 8.02344 11.4393 7.82031 11.1304C7.61719 10.8215 7.51562 10.4702 7.51562 10.0767C7.51562 9.71273 7.58333 9.39111 7.71875 9.11182C7.85417 8.83252 8.05518 8.59766 8.32178 8.40723C8.58838 8.21257 8.91846 8.06657 9.31201 7.96924C9.7098 7.86768 10.1647 7.81689 10.6768 7.81689H11.8066ZM14.7646 2.25H16.4468V10.4829L16.2817 12H14.7646V2.25ZM20.8647 8.49609V8.62939C20.8647 9.14144 20.8076 9.61117 20.6934 10.0386C20.5833 10.466 20.4162 10.8363 20.1919 11.1494C19.9676 11.4583 19.6883 11.6995 19.354 11.873C19.0239 12.0423 18.6367 12.127 18.1924 12.127C17.7692 12.127 17.401 12.0444 17.0879 11.8794C16.779 11.7144 16.5187 11.4816 16.3071 11.1812C16.0955 10.8765 15.9263 10.5189 15.7993 10.1084C15.6724 9.69368 15.5771 9.24089 15.5137 8.75V8.38818C15.5771 7.89307 15.6724 7.44027 15.7993 7.02979C15.9263 6.6193 16.0955 6.26172 16.3071 5.95703C16.5187 5.65234 16.779 5.41748 17.0879 5.25244C17.3968 5.0874 17.7607 5.00488 18.1797 5.00488C18.6283 5.00488 19.0197 5.09163 19.354 5.26514C19.6925 5.43441 19.9718 5.67562 20.1919 5.98877C20.4162 6.29769 20.5833 6.66585 20.6934 7.09326C20.8076 7.51644 20.8647 7.98405 20.8647 8.49609ZM19.1826 8.62939V8.49609C19.1826 8.2041 19.1593 7.92904 19.1128 7.6709C19.0662 7.40853 18.9901 7.1779 18.8843 6.979C18.7785 6.78011 18.6346 6.62354 18.4526 6.50928C18.2707 6.39502 18.0422 6.33789 17.7671 6.33789C17.5047 6.33789 17.2804 6.38232 17.0942 6.47119C16.9123 6.56006 16.7599 6.68278 16.6372 6.83936C16.5187 6.99593 16.4256 7.18001 16.3579 7.3916C16.2944 7.60319 16.2521 7.83171 16.231 8.07715V9.06738C16.2606 9.39323 16.3304 9.68734 16.4404 9.94971C16.5505 10.2078 16.7134 10.4131 16.9292 10.5654C17.1493 10.7178 17.4328 10.7939 17.7798 10.7939C18.0506 10.7939 18.277 10.741 18.459 10.6353C18.641 10.5252 18.7848 10.3729 18.8906 10.1782C18.9964 9.97933 19.0705 9.7487 19.1128 9.48633C19.1593 9.22396 19.1826 8.93831 19.1826 8.62939ZM25.1685 12.127C24.6479 12.127 24.1803 12.0423 23.7656 11.873C23.3509 11.7038 22.9976 11.4689 22.7056 11.1685C22.4178 10.8638 22.1956 10.5104 22.0391 10.1084C21.8867 9.70215 21.8105 9.26628 21.8105 8.80078V8.54688C21.8105 8.0179 21.8867 7.5376 22.0391 7.10596C22.1914 6.67008 22.4072 6.29557 22.6865 5.98242C22.9658 5.66927 23.3001 5.42806 23.6895 5.25879C24.0788 5.08952 24.5083 5.00488 24.978 5.00488C25.4647 5.00488 25.8942 5.0874 26.2666 5.25244C26.639 5.41325 26.95 5.64176 27.1997 5.93799C27.4494 6.23421 27.6377 6.58968 27.7646 7.00439C27.8916 7.41488 27.9551 7.86979 27.9551 8.36914V9.07373H22.5723V7.91846H26.3047V7.7915C26.2962 7.5249 26.2454 7.28158 26.1523 7.06152C26.0592 6.83724 25.9154 6.65951 25.7207 6.52832C25.526 6.3929 25.2743 6.3252 24.9653 6.3252C24.7157 6.3252 24.4977 6.38021 24.3115 6.49023C24.1296 6.59603 23.9772 6.74837 23.8545 6.94727C23.736 7.14193 23.6471 7.37467 23.5879 7.64551C23.5286 7.91634 23.499 8.2168 23.499 8.54688V8.80078C23.499 9.08854 23.5371 9.35514 23.6133 9.60059C23.6937 9.84603 23.8101 10.0597 23.9624 10.2417C24.119 10.4194 24.3052 10.5591 24.521 10.6606C24.741 10.758 24.9907 10.8066 25.27 10.8066C25.6213 10.8066 25.9386 10.7389 26.2222 10.6035C26.5099 10.4639 26.7596 10.2586 26.9712 9.98779L27.8154 10.8638C27.6715 11.0754 27.4769 11.2785 27.2314 11.4731C26.9902 11.6678 26.6982 11.8265 26.3555 11.9492C26.0127 12.0677 25.617 12.127 25.1685 12.127ZM30.856 2.25V12H29.1738V2.25H30.856ZM39.8125 10.54V2.25H41.501V12H39.9775L39.8125 10.54ZM35.4009 8.64844V8.51514C35.4009 7.9904 35.4601 7.51432 35.5786 7.08691C35.7013 6.65527 35.8791 6.28499 36.1118 5.97607C36.3446 5.66715 36.626 5.42806 36.9561 5.25879C37.2904 5.08952 37.6691 5.00488 38.0923 5.00488C38.5028 5.00488 38.8604 5.0874 39.165 5.25244C39.474 5.41748 39.7363 5.65234 39.9521 5.95703C40.1722 6.26172 40.3478 6.62354 40.479 7.04248C40.6102 7.45719 40.7054 7.91423 40.7646 8.41357V8.77539C40.7054 9.26204 40.6102 9.7085 40.479 10.1147C40.3478 10.521 40.1722 10.8765 39.9521 11.1812C39.7363 11.4816 39.474 11.7144 39.165 11.8794C38.8561 12.0444 38.4943 12.127 38.0796 12.127C37.6606 12.127 37.284 12.0402 36.9497 11.8667C36.6196 11.6932 36.3382 11.4499 36.1055 11.1367C35.877 10.8236 35.7013 10.4554 35.5786 10.0322C35.4601 9.60905 35.4009 9.14779 35.4009 8.64844ZM37.083 8.51514V8.64844C37.083 8.94466 37.1084 9.22184 37.1592 9.47998C37.21 9.73812 37.2925 9.96663 37.4067 10.1655C37.521 10.3602 37.667 10.5125 37.8447 10.6226C38.0267 10.7326 38.2467 10.7876 38.5049 10.7876C38.835 10.7876 39.1058 10.7157 39.3174 10.5718C39.5332 10.4237 39.7004 10.2227 39.8188 9.96875C39.9373 9.71061 40.0135 9.42074 40.0474 9.09912V8.10254C40.0304 7.84863 39.986 7.61377 39.9141 7.39795C39.8464 7.18213 39.749 6.99593 39.6221 6.83936C39.4993 6.68278 39.347 6.56006 39.165 6.47119C38.9831 6.38232 38.7673 6.33789 38.5176 6.33789C38.2594 6.33789 38.0394 6.39502 37.8574 6.50928C37.6755 6.6193 37.5273 6.77376 37.4131 6.97266C37.2988 7.17155 37.2142 7.40218 37.1592 7.66455C37.1084 7.92692 37.083 8.21045 37.083 8.51514ZM42.7197 8.63574V8.50244C42.7197 7.99886 42.7917 7.53548 42.9355 7.1123C43.0794 6.6849 43.2889 6.31462 43.564 6.00146C43.839 5.68831 44.1755 5.44499 44.5732 5.27148C44.971 5.09375 45.4238 5.00488 45.9316 5.00488C46.4479 5.00488 46.9049 5.09375 47.3027 5.27148C47.7048 5.44499 48.0433 5.68831 48.3184 6.00146C48.5934 6.31462 48.8029 6.6849 48.9468 7.1123C49.0907 7.53548 49.1626 7.99886 49.1626 8.50244V8.63574C49.1626 9.13509 49.0907 9.59847 48.9468 10.0259C48.8029 10.4491 48.5934 10.8193 48.3184 11.1367C48.0433 11.4499 47.7069 11.6932 47.3091 11.8667C46.9113 12.0402 46.4564 12.127 45.9443 12.127C45.4365 12.127 44.9816 12.0402 44.5796 11.8667C44.1776 11.6932 43.839 11.4499 43.564 11.1367C43.2889 10.8193 43.0794 10.4491 42.9355 10.0259C42.7917 9.59847 42.7197 9.13509 42.7197 8.63574ZM44.3955 8.50244V8.63574C44.3955 8.9362 44.4251 9.21761 44.4844 9.47998C44.5436 9.74235 44.6346 9.97298 44.7573 10.1719C44.88 10.3708 45.0387 10.5273 45.2334 10.6416C45.4323 10.7516 45.6693 10.8066 45.9443 10.8066C46.2152 10.8066 46.4479 10.7516 46.6426 10.6416C46.8372 10.5273 46.9959 10.3708 47.1187 10.1719C47.2456 9.97298 47.3387 9.74235 47.3979 9.47998C47.4572 9.21761 47.4868 8.9362 47.4868 8.63574V8.50244C47.4868 8.20622 47.4572 7.92904 47.3979 7.6709C47.3387 7.40853 47.2456 7.1779 47.1187 6.979C46.9959 6.77588 46.8351 6.61719 46.6362 6.50293C46.4416 6.38444 46.2067 6.3252 45.9316 6.3252C45.6608 6.3252 45.4281 6.38444 45.2334 6.50293C45.0387 6.61719 44.88 6.77588 44.7573 6.979C44.6346 7.1779 44.5436 7.40853 44.4844 7.6709C44.4251 7.92904 44.3955 8.20622 44.3955 8.50244ZM55.396 5.13184V12H53.7139V5.13184H55.396ZM53.5996 3.33545C53.5996 3.08577 53.6842 2.87842 53.8535 2.71338C54.027 2.54834 54.2598 2.46582 54.5518 2.46582C54.8438 2.46582 55.0744 2.54834 55.2437 2.71338C55.4172 2.87842 55.5039 3.08577 55.5039 3.33545C55.5039 3.58089 55.4172 3.78613 55.2437 3.95117C55.0744 4.11621 54.8438 4.19873 54.5518 4.19873C54.2598 4.19873 54.027 4.11621 53.8535 3.95117C53.6842 3.78613 53.5996 3.58089 53.5996 3.33545ZM58.6396 6.59814V12H56.9639V5.13184H58.5381L58.6396 6.59814ZM58.373 8.31836H57.8779C57.8822 7.81901 57.9499 7.36621 58.0811 6.95996C58.2122 6.55371 58.3963 6.20459 58.6333 5.9126C58.8745 5.62061 59.1602 5.39632 59.4902 5.23975C59.8203 5.08317 60.1885 5.00488 60.5947 5.00488C60.9248 5.00488 61.2231 5.05143 61.4897 5.14453C61.7563 5.23763 61.9849 5.38574 62.1753 5.58887C62.37 5.79199 62.5181 6.05859 62.6196 6.38867C62.7254 6.71452 62.7783 7.11654 62.7783 7.59473V12H61.0898V7.58203C61.0898 7.26888 61.0433 7.02132 60.9502 6.83936C60.8613 6.65739 60.7301 6.52832 60.5566 6.45215C60.3874 6.37598 60.1779 6.33789 59.9282 6.33789C59.6701 6.33789 59.4437 6.39079 59.249 6.49658C59.0586 6.59814 58.8978 6.73991 58.7666 6.92188C58.6396 7.10384 58.5423 7.31331 58.4746 7.55029C58.4069 7.78727 58.373 8.04329 58.373 8.31836ZM65.9331 6.45215V14.6406H64.251V5.13184H65.8062L65.9331 6.45215ZM70.3447 8.49609V8.62939C70.3447 9.12874 70.2855 9.59212 70.167 10.0195C70.0527 10.4427 69.8835 10.813 69.6592 11.1304C69.4349 11.4435 69.1556 11.689 68.8213 11.8667C68.4912 12.0402 68.1104 12.127 67.6787 12.127C67.2555 12.127 66.8874 12.0465 66.5742 11.8857C66.2611 11.7207 65.9966 11.488 65.7808 11.1875C65.5649 10.887 65.3914 10.5379 65.2603 10.1401C65.1333 9.73812 65.0381 9.30013 64.9746 8.82617V8.40088C65.0381 7.8973 65.1333 7.44027 65.2603 7.02979C65.3914 6.61507 65.5649 6.25749 65.7808 5.95703C65.9966 5.65234 66.259 5.41748 66.5679 5.25244C66.881 5.0874 67.2471 5.00488 67.666 5.00488C68.1019 5.00488 68.4849 5.0874 68.8149 5.25244C69.1493 5.41748 69.4307 5.65446 69.6592 5.96338C69.8877 6.2723 70.0591 6.64046 70.1733 7.06787C70.2876 7.49528 70.3447 7.97135 70.3447 8.49609ZM68.6626 8.62939V8.49609C68.6626 8.19141 68.6351 7.90999 68.5801 7.65186C68.5251 7.38949 68.4404 7.16097 68.3262 6.96631C68.2119 6.76742 68.0638 6.61296 67.8818 6.50293C67.6999 6.3929 67.4798 6.33789 67.2217 6.33789C66.9635 6.33789 66.7414 6.38021 66.5552 6.46484C66.369 6.54948 66.2166 6.67008 66.0981 6.82666C65.9797 6.98324 65.8866 7.16943 65.8188 7.38525C65.7554 7.59684 65.7131 7.83171 65.6919 8.08984V9.14355C65.73 9.45671 65.804 9.73812 65.9141 9.98779C66.0241 10.2375 66.1849 10.4364 66.3965 10.5845C66.6123 10.7326 66.8916 10.8066 67.2344 10.8066C67.4925 10.8066 67.7126 10.7495 67.8945 10.6353C68.0765 10.521 68.2246 10.3644 68.3389 10.1655C68.4531 9.9624 68.5356 9.72965 68.5864 9.46729C68.6372 9.20492 68.6626 8.92562 68.6626 8.62939ZM75.6577 10.3687V5.13184H77.3462V12H75.7593L75.6577 10.3687ZM75.8735 8.94678L76.394 8.93408C76.394 9.39535 76.3433 9.82064 76.2417 10.21C76.1401 10.5993 75.9814 10.9378 75.7656 11.2256C75.554 11.5091 75.2853 11.7313 74.9595 11.8921C74.6336 12.0487 74.2485 12.127 73.8042 12.127C73.4657 12.127 73.1567 12.0804 72.8774 11.9873C72.5981 11.89 72.3569 11.7397 72.1538 11.5366C71.9549 11.3293 71.8005 11.0648 71.6904 10.7432C71.5804 10.4173 71.5254 10.0259 71.5254 9.56885V5.13184H73.2012V9.58154C73.2012 9.81006 73.2266 10.0005 73.2773 10.1528C73.3324 10.3052 73.4064 10.43 73.4995 10.5273C73.5968 10.6204 73.709 10.6882 73.8359 10.7305C73.9671 10.7686 74.1068 10.7876 74.2549 10.7876C74.6611 10.7876 74.9806 10.7072 75.2134 10.5464C75.4504 10.3813 75.6196 10.1613 75.7212 9.88623C75.8228 9.60693 75.8735 9.29378 75.8735 8.94678ZM82.0815 5.13184V6.33789H78.146V5.13184H82.0815ZM79.1997 3.44336H80.8818V10.0195C80.8818 10.2227 80.9093 10.3792 80.9644 10.4893C81.0194 10.5993 81.1019 10.6733 81.2119 10.7114C81.3219 10.7495 81.4531 10.7686 81.6055 10.7686C81.7155 10.7686 81.8171 10.7622 81.9102 10.7495C82.0033 10.7368 82.0815 10.7241 82.145 10.7114L82.1514 11.9683C82.0117 12.0148 81.853 12.0529 81.6753 12.0825C81.5018 12.1121 81.305 12.127 81.085 12.127C80.7083 12.127 80.3783 12.0635 80.0947 11.9365C79.8112 11.8053 79.5911 11.5959 79.4346 11.3081C79.278 11.0161 79.1997 10.631 79.1997 10.1528V3.44336Z" fill="#CC6237"/>
<rect y="20" width="333" height="40" rx="20" fill="#F6F6F6"/>
<path d="M23.2988 44.5H21.5176L21.5293 43.5801H23.2988C23.9082 43.5801 24.416 43.4531 24.8223 43.1992C25.2285 42.9414 25.5332 42.582 25.7363 42.1211C25.9434 41.6562 26.0469 41.1133 26.0469 40.4922V39.9707C26.0469 39.4824 25.9883 39.0488 25.8711 38.6699C25.7539 38.2871 25.582 37.9648 25.3555 37.7031C25.1289 37.4375 24.8516 37.2363 24.5234 37.0996C24.1992 36.9629 23.8262 36.8945 23.4043 36.8945H21.4824V35.9688H23.4043C23.9629 35.9688 24.4727 36.0625 24.9336 36.25C25.3945 36.4336 25.791 36.7012 26.123 37.0527C26.459 37.4004 26.7168 37.8223 26.8965 38.3184C27.0762 38.8105 27.166 39.3652 27.166 39.9824V40.4922C27.166 41.1094 27.0762 41.666 26.8965 42.1621C26.7168 42.6543 26.457 43.0742 26.1172 43.4219C25.7812 43.7695 25.375 44.0371 24.8984 44.2246C24.4258 44.4082 23.8926 44.5 23.2988 44.5ZM22.1211 35.9688V44.5H20.9902V35.9688H22.1211ZM29.8789 38.1602V44.5H28.7891V38.1602H29.8789ZM28.707 36.4785C28.707 36.3027 28.7598 36.1543 28.8652 36.0332C28.9746 35.9121 29.1348 35.8516 29.3457 35.8516C29.5527 35.8516 29.7109 35.9121 29.8203 36.0332C29.9336 36.1543 29.9902 36.3027 29.9902 36.4785C29.9902 36.6465 29.9336 36.791 29.8203 36.9121C29.7109 37.0293 29.5527 37.0879 29.3457 37.0879C29.1348 37.0879 28.9746 37.0293 28.8652 36.9121C28.7598 36.791 28.707 36.6465 28.707 36.4785ZM35.7266 38.1602H36.7109V44.3652C36.7109 44.9238 36.5977 45.4004 36.3711 45.7949C36.1445 46.1895 35.8281 46.4883 35.4219 46.6914C35.0195 46.8984 34.5547 47.002 34.0273 47.002C33.8086 47.002 33.5508 46.9668 33.2539 46.8965C32.9609 46.8301 32.6719 46.7148 32.3867 46.5508C32.1055 46.3906 31.8691 46.1738 31.6777 45.9004L32.2461 45.2559C32.5117 45.5762 32.7891 45.7988 33.0781 45.9238C33.3711 46.0488 33.6602 46.1113 33.9453 46.1113C34.2891 46.1113 34.5859 46.0469 34.8359 45.918C35.0859 45.7891 35.2793 45.5977 35.416 45.3438C35.5566 45.0938 35.627 44.7852 35.627 44.418V39.5547L35.7266 38.1602ZM31.3613 41.4004V41.2773C31.3613 40.793 31.418 40.3535 31.5312 39.959C31.6484 39.5605 31.8145 39.2188 32.0293 38.9336C32.248 38.6484 32.5117 38.4297 32.8203 38.2773C33.1289 38.1211 33.4766 38.043 33.8633 38.043C34.2617 38.043 34.6094 38.1133 34.9062 38.2539C35.207 38.3906 35.4609 38.5918 35.668 38.8574C35.8789 39.1191 36.0449 39.4355 36.166 39.8066C36.2871 40.1777 36.3711 40.5977 36.418 41.0664V41.6055C36.375 42.0703 36.291 42.4883 36.166 42.8594C36.0449 43.2305 35.8789 43.5469 35.668 43.8086C35.4609 44.0703 35.207 44.2715 34.9062 44.4121C34.6055 44.5488 34.2539 44.6172 33.8516 44.6172C33.4727 44.6172 33.1289 44.5371 32.8203 44.377C32.5156 44.2168 32.2539 43.9922 32.0352 43.7031C31.8164 43.4141 31.6484 43.0742 31.5312 42.6836C31.418 42.2891 31.3613 41.8613 31.3613 41.4004ZM32.4453 41.2773V41.4004C32.4453 41.7168 32.4766 42.0137 32.5391 42.291C32.6055 42.5684 32.7051 42.8125 32.8379 43.0234C32.9746 43.2344 33.1484 43.4004 33.3594 43.5215C33.5703 43.6387 33.8223 43.6973 34.1152 43.6973C34.4746 43.6973 34.7715 43.6211 35.0059 43.4688C35.2402 43.3164 35.4258 43.1152 35.5625 42.8652C35.7031 42.6152 35.8125 42.3438 35.8906 42.0508V40.6387C35.8477 40.4238 35.7812 40.2168 35.6914 40.0176C35.6055 39.8145 35.4922 39.6348 35.3516 39.4785C35.2148 39.3184 35.0449 39.1914 34.8418 39.0977C34.6387 39.0039 34.4004 38.957 34.127 38.957C33.8301 38.957 33.5742 39.0195 33.3594 39.1445C33.1484 39.2656 32.9746 39.4336 32.8379 39.6484C32.7051 39.8594 32.6055 40.1055 32.5391 40.3867C32.4766 40.6641 32.4453 40.9609 32.4453 41.2773ZM39.5352 38.1602V44.5H38.4453V38.1602H39.5352ZM38.3633 36.4785C38.3633 36.3027 38.416 36.1543 38.5215 36.0332C38.6309 35.9121 38.791 35.8516 39.002 35.8516C39.209 35.8516 39.3672 35.9121 39.4766 36.0332C39.5898 36.1543 39.6465 36.3027 39.6465 36.4785C39.6465 36.6465 39.5898 36.791 39.4766 36.9121C39.3672 37.0293 39.209 37.0879 39.002 37.0879C38.791 37.0879 38.6309 37.0293 38.5215 36.9121C38.416 36.791 38.3633 36.6465 38.3633 36.4785ZM43.9297 38.1602V38.9922H40.502V38.1602H43.9297ZM41.6621 36.6191H42.7461V42.9297C42.7461 43.1445 42.7793 43.3066 42.8457 43.416C42.9121 43.5254 42.998 43.5977 43.1035 43.6328C43.209 43.668 43.3223 43.6855 43.4434 43.6855C43.5332 43.6855 43.627 43.6777 43.7246 43.6621C43.8262 43.6426 43.9023 43.627 43.9531 43.6152L43.959 44.5C43.873 44.5273 43.7598 44.5527 43.6191 44.5762C43.4824 44.6035 43.3164 44.6172 43.1211 44.6172C42.8555 44.6172 42.6113 44.5645 42.3887 44.459C42.166 44.3535 41.9883 44.1777 41.8555 43.9316C41.7266 43.6816 41.6621 43.3457 41.6621 42.9238V36.6191ZM47.832 44.6172C47.3906 44.6172 46.9902 44.543 46.6309 44.3945C46.2754 44.2422 45.9688 44.0293 45.7109 43.7559C45.457 43.4824 45.2617 43.1582 45.125 42.7832C44.9883 42.4082 44.9199 41.998 44.9199 41.5527V41.3066C44.9199 40.791 44.9961 40.332 45.1484 39.9297C45.3008 39.5234 45.5078 39.1797 45.7695 38.8984C46.0312 38.6172 46.3281 38.4043 46.6602 38.2598C46.9922 38.1152 47.3359 38.043 47.6914 38.043C48.1445 38.043 48.5352 38.1211 48.8633 38.2773C49.1953 38.4336 49.4668 38.6523 49.6777 38.9336C49.8887 39.2109 50.0449 39.5391 50.1465 39.918C50.248 40.293 50.2988 40.7031 50.2988 41.1484V41.6348H45.5645V40.75H49.2148V40.668C49.1992 40.3867 49.1406 40.1133 49.0391 39.8477C48.9414 39.582 48.7852 39.3633 48.5703 39.1914C48.3555 39.0195 48.0625 38.9336 47.6914 38.9336C47.4453 38.9336 47.2188 38.9863 47.0117 39.0918C46.8047 39.1934 46.627 39.3457 46.4785 39.5488C46.3301 39.752 46.2148 40 46.1328 40.293C46.0508 40.5859 46.0098 40.9238 46.0098 41.3066V41.5527C46.0098 41.8535 46.0508 42.1367 46.1328 42.4023C46.2188 42.6641 46.3418 42.8945 46.502 43.0938C46.666 43.293 46.8633 43.4492 47.0938 43.5625C47.3281 43.6758 47.5938 43.7324 47.8906 43.7324C48.2734 43.7324 48.5977 43.6543 48.8633 43.498C49.1289 43.3418 49.3613 43.1328 49.5605 42.8711L50.2168 43.3926C50.0801 43.5996 49.9062 43.7969 49.6953 43.9844C49.4844 44.1719 49.2246 44.3242 48.916 44.4414C48.6113 44.5586 48.25 44.6172 47.832 44.6172ZM58.2793 43.416V40.1523C58.2793 39.9023 58.2285 39.6855 58.127 39.502C58.0293 39.3145 57.8809 39.1699 57.6816 39.0684C57.4824 38.9668 57.2363 38.916 56.9434 38.916C56.6699 38.916 56.4297 38.9629 56.2227 39.0566C56.0195 39.1504 55.8594 39.2734 55.7422 39.4258C55.6289 39.5781 55.5723 39.7422 55.5723 39.918H54.4883C54.4883 39.6914 54.5469 39.4668 54.6641 39.2441C54.7812 39.0215 54.9492 38.8203 55.168 38.6406C55.3906 38.457 55.6562 38.3125 55.9648 38.207C56.2773 38.0977 56.625 38.043 57.0078 38.043C57.4688 38.043 57.875 38.1211 58.2266 38.2773C58.582 38.4336 58.8594 38.6699 59.0586 38.9863C59.2617 39.2988 59.3633 39.6914 59.3633 40.1641V43.1172C59.3633 43.3281 59.3809 43.5527 59.416 43.791C59.4551 44.0293 59.5117 44.2344 59.5859 44.4062V44.5H58.4551C58.4004 44.375 58.3574 44.209 58.3262 44.002C58.2949 43.791 58.2793 43.5957 58.2793 43.416ZM58.4668 40.6562L58.4785 41.418H57.3828C57.0742 41.418 56.7988 41.4434 56.5566 41.4941C56.3145 41.541 56.1113 41.6133 55.9473 41.7109C55.7832 41.8086 55.6582 41.9316 55.5723 42.0801C55.4863 42.2246 55.4434 42.3945 55.4434 42.5898C55.4434 42.7891 55.4883 42.9707 55.5781 43.1348C55.668 43.2988 55.8027 43.4297 55.9824 43.5273C56.166 43.6211 56.3906 43.668 56.6562 43.668C56.9883 43.668 57.2812 43.5977 57.5352 43.457C57.7891 43.3164 57.9902 43.1445 58.1387 42.9414C58.291 42.7383 58.373 42.541 58.3848 42.3496L58.8477 42.8711C58.8203 43.0352 58.7461 43.2168 58.625 43.416C58.5039 43.6152 58.3418 43.8066 58.1387 43.9902C57.9395 44.1699 57.7012 44.3203 57.4238 44.4414C57.1504 44.5586 56.8418 44.6172 56.498 44.6172C56.0684 44.6172 55.6914 44.5332 55.3672 44.3652C55.0469 44.1973 54.7969 43.9727 54.6172 43.6914C54.4414 43.4062 54.3535 43.0879 54.3535 42.7363C54.3535 42.3965 54.4199 42.0977 54.5527 41.8398C54.6855 41.5781 54.877 41.3613 55.127 41.1895C55.377 41.0137 55.6777 40.8809 56.0293 40.791C56.3809 40.7012 56.7734 40.6562 57.207 40.6562H58.4668ZM65.0586 46.9375V39.3789L65.1523 38.1602H66.1484V46.9375H65.0586ZM60.7988 41.4004V41.2773C60.7988 40.793 60.8555 40.3535 60.9688 39.959C61.082 39.5605 61.248 39.2188 61.4668 38.9336C61.6855 38.6484 61.9492 38.4297 62.2578 38.2773C62.5703 38.1211 62.9258 38.043 63.3242 38.043C63.7227 38.043 64.0723 38.1133 64.373 38.2539C64.6777 38.3906 64.9355 38.5918 65.1465 38.8574C65.3613 39.1191 65.5312 39.4355 65.6562 39.8066C65.7812 40.1777 65.8672 40.5977 65.9141 41.0664V41.6055C65.8711 42.0703 65.7871 42.4883 65.6621 42.8594C65.5371 43.2305 65.3672 43.5469 65.1523 43.8086C64.9414 44.0703 64.6816 44.2715 64.373 44.4121C64.0684 44.5488 63.7148 44.6172 63.3125 44.6172C62.9219 44.6172 62.5703 44.5371 62.2578 44.377C61.9492 44.2168 61.6855 43.9922 61.4668 43.7031C61.252 43.4141 61.0859 43.0742 60.9688 42.6836C60.8555 42.2891 60.7988 41.8613 60.7988 41.4004ZM61.8887 41.2773V41.4004C61.8887 41.7168 61.9219 42.0156 61.9883 42.2969C62.0547 42.5742 62.1562 42.8203 62.293 43.0352C62.4336 43.25 62.6094 43.4199 62.8203 43.5449C63.0352 43.666 63.2891 43.7266 63.582 43.7266C63.9414 43.7266 64.2402 43.6484 64.4785 43.4922C64.7207 43.3359 64.9141 43.1309 65.0586 42.877C65.2031 42.6191 65.3145 42.3438 65.3926 42.0508V40.6387C65.3496 40.4238 65.2812 40.2148 65.1875 40.0117C65.0977 39.8086 64.9805 39.627 64.8359 39.4668C64.6914 39.3027 64.5156 39.1738 64.3086 39.0801C64.1055 38.9824 63.8672 38.9336 63.5938 38.9336C63.2969 38.9336 63.041 38.9961 62.8262 39.1211C62.6113 39.2461 62.4336 39.418 62.293 39.6367C62.1562 39.8516 62.0547 40.0996 61.9883 40.3809C61.9219 40.6621 61.8887 40.9609 61.8887 41.2773ZM71.7676 43.0352V38.1602H72.8574V44.5H71.8203L71.7676 43.0352ZM71.9727 41.6992L72.4238 41.6875C72.4238 42.1094 72.3789 42.5 72.2891 42.8594C72.2031 43.2148 72.0625 43.5234 71.8672 43.7852C71.6719 44.0469 71.416 44.252 71.0996 44.4004C70.7832 44.5449 70.3984 44.6172 69.9453 44.6172C69.6367 44.6172 69.3535 44.5723 69.0957 44.4824C68.8418 44.3926 68.623 44.2539 68.4395 44.0664C68.2559 43.8789 68.1133 43.6348 68.0117 43.334C67.9141 43.0332 67.8652 42.6719 67.8652 42.25V38.1602H68.9492V42.2617C68.9492 42.5469 68.9805 42.7832 69.043 42.9707C69.1094 43.1543 69.1973 43.3008 69.3066 43.4102C69.4199 43.5156 69.5449 43.5898 69.6816 43.6328C69.8223 43.6758 69.9668 43.6973 70.1152 43.6973C70.5762 43.6973 70.9414 43.6094 71.2109 43.4336C71.4805 43.2539 71.6738 43.0137 71.791 42.7129C71.9121 42.4082 71.9727 42.0703 71.9727 41.6992ZM75.6875 38.1602V44.5H74.5977V38.1602H75.6875ZM74.5156 36.4785C74.5156 36.3027 74.5684 36.1543 74.6738 36.0332C74.7832 35.9121 74.9434 35.8516 75.1543 35.8516C75.3613 35.8516 75.5195 35.9121 75.6289 36.0332C75.7422 36.1543 75.7988 36.3027 75.7988 36.4785C75.7988 36.6465 75.7422 36.791 75.6289 36.9121C75.5195 37.0293 75.3613 37.0879 75.1543 37.0879C74.9434 37.0879 74.7832 37.0293 74.6738 36.9121C74.5684 36.791 74.5156 36.6465 74.5156 36.4785Z" fill="#657593"/>
</g>
<defs>
<clipPath id="clip0_14_3460">
<rect width="333" height="60" fill="white"/>
</clipPath>
</defs>
</svg>
