<svg width="333" height="60" viewBox="0 0 333 60" fill="none" xmlns="http://www.w3.org/2000/svg">
<g clip-path="url(#clip0_14_3556)">
<path d="M5.71924 9.60059C5.71924 9.42285 5.69173 9.26416 5.63672 9.12451C5.58594 8.98063 5.49072 8.85156 5.35107 8.7373C5.21566 8.61882 5.02311 8.50456 4.77344 8.39453C4.52799 8.28027 4.21061 8.16178 3.82129 8.03906C3.38965 7.90365 2.98763 7.7513 2.61523 7.58203C2.24284 7.41276 1.91488 7.21598 1.63135 6.9917C1.35205 6.76742 1.13411 6.50928 0.977539 6.21729C0.820964 5.92106 0.742676 5.57829 0.742676 5.18896C0.742676 4.80811 0.823079 4.4611 0.983887 4.14795C1.14893 3.8348 1.38167 3.56608 1.68213 3.3418C1.98258 3.11328 2.33594 2.93766 2.74219 2.81494C3.15267 2.69222 3.60547 2.63086 4.10059 2.63086C4.78613 2.63086 5.37858 2.7557 5.87793 3.00537C6.38151 3.25505 6.77083 3.59359 7.0459 4.021C7.32096 4.4484 7.4585 4.92871 7.4585 5.46191H5.71924C5.71924 5.17415 5.65788 4.92025 5.53516 4.7002C5.41667 4.48014 5.2347 4.30664 4.98926 4.17969C4.74805 4.05273 4.44336 3.98926 4.0752 3.98926C3.71973 3.98926 3.4235 4.04215 3.18652 4.14795C2.95378 4.25374 2.77816 4.39762 2.65967 4.57959C2.54541 4.76156 2.48828 4.96468 2.48828 5.18896C2.48828 5.35824 2.52848 5.51058 2.60889 5.646C2.68929 5.77718 2.8099 5.90202 2.9707 6.02051C3.13151 6.13477 3.3304 6.24268 3.56738 6.34424C3.80859 6.44157 4.08789 6.5389 4.40527 6.63623C4.91309 6.78857 5.35742 6.95785 5.73828 7.14404C6.12337 7.33024 6.44287 7.54183 6.69678 7.77881C6.95492 8.01579 7.14746 8.28239 7.27441 8.57861C7.4056 8.87484 7.47119 9.21126 7.47119 9.58789C7.47119 9.98568 7.3929 10.3411 7.23633 10.6543C7.07975 10.9674 6.85547 11.234 6.56348 11.4541C6.27148 11.6742 5.92025 11.8413 5.50977 11.9556C5.10352 12.0698 4.6486 12.127 4.14502 12.127C3.69645 12.127 3.25212 12.0677 2.81201 11.9492C2.37614 11.8265 1.98047 11.6445 1.625 11.4033C1.26953 11.1579 0.986003 10.849 0.774414 10.4766C0.562826 10.0999 0.457031 9.65983 0.457031 9.15625H2.20898C2.20898 9.44824 2.25553 9.69792 2.34863 9.90527C2.44596 10.1084 2.58138 10.2756 2.75488 10.4067C2.93262 10.5337 3.13997 10.6268 3.37695 10.686C3.61393 10.7453 3.86995 10.7749 4.14502 10.7749C4.50049 10.7749 4.79248 10.7262 5.021 10.6289C5.25374 10.5273 5.42725 10.3877 5.5415 10.21C5.65999 10.0322 5.71924 9.8291 5.71924 9.60059ZM11.7749 12.127C11.2544 12.127 10.7868 12.0423 10.3721 11.873C9.95736 11.7038 9.604 11.4689 9.31201 11.1685C9.02425 10.8638 8.80208 10.5104 8.64551 10.1084C8.49316 9.70215 8.41699 9.26628 8.41699 8.80078V8.54688C8.41699 8.0179 8.49316 7.5376 8.64551 7.10596C8.79785 6.67008 9.01367 6.29557 9.29297 5.98242C9.57227 5.66927 9.90658 5.42806 10.2959 5.25879C10.6852 5.08952 11.1147 5.00488 11.5845 5.00488C12.0711 5.00488 12.5007 5.0874 12.873 5.25244C13.2454 5.41325 13.5565 5.64176 13.8062 5.93799C14.0558 6.23421 14.2441 6.58968 14.3711 7.00439C14.498 7.41488 14.5615 7.86979 14.5615 8.36914V9.07373H9.17871V7.91846H12.9111V7.7915C12.9027 7.5249 12.8519 7.28158 12.7588 7.06152C12.6657 6.83724 12.5218 6.65951 12.3271 6.52832C12.1325 6.3929 11.8807 6.3252 11.5718 6.3252C11.3221 6.3252 11.1042 6.38021 10.918 6.49023C10.736 6.59603 10.5837 6.74837 10.4609 6.94727C10.3424 7.14193 10.2536 7.37467 10.1943 7.64551C10.1351 7.91634 10.1055 8.2168 10.1055 8.54688V8.80078C10.1055 9.08854 10.1436 9.35514 10.2197 9.60059C10.3001 9.84603 10.4165 10.0597 10.5688 10.2417C10.7254 10.4194 10.9116 10.5591 11.1274 10.6606C11.3475 10.758 11.5972 10.8066 11.8765 10.8066C12.2277 10.8066 12.5451 10.7389 12.8286 10.6035C13.1164 10.4639 13.366 10.2586 13.5776 9.98779L14.4219 10.8638C14.278 11.0754 14.0833 11.2785 13.8379 11.4731C13.5967 11.6678 13.3047 11.8265 12.9619 11.9492C12.6191 12.0677 12.2235 12.127 11.7749 12.127ZM17.3291 6.59814V12H15.6533V5.13184H17.2275L17.3291 6.59814ZM17.0625 8.31836H16.5674C16.5716 7.81901 16.6393 7.36621 16.7705 6.95996C16.9017 6.55371 17.0858 6.20459 17.3228 5.9126C17.564 5.62061 17.8496 5.39632 18.1797 5.23975C18.5098 5.08317 18.8779 5.00488 19.2842 5.00488C19.6143 5.00488 19.9126 5.05143 20.1792 5.14453C20.4458 5.23763 20.6743 5.38574 20.8647 5.58887C21.0594 5.79199 21.2075 6.05859 21.3091 6.38867C21.4149 6.71452 21.4678 7.11654 21.4678 7.59473V12H19.7793V7.58203C19.7793 7.26888 19.7327 7.02132 19.6396 6.83936C19.5508 6.65739 19.4196 6.52832 19.2461 6.45215C19.0768 6.37598 18.8674 6.33789 18.6177 6.33789C18.3595 6.33789 18.1331 6.39079 17.9385 6.49658C17.748 6.59814 17.5872 6.73991 17.4561 6.92188C17.3291 7.10384 17.2318 7.31331 17.1641 7.55029C17.0964 7.78727 17.0625 8.04329 17.0625 8.31836ZM24.5908 2.25V12H22.9087V2.25H24.5908ZM24.3242 8.31836H23.8291C23.8291 7.84017 23.8926 7.40007 24.0195 6.99805C24.1465 6.59603 24.3263 6.24691 24.5591 5.95068C24.7918 5.65023 25.069 5.41748 25.3906 5.25244C25.7165 5.0874 26.0762 5.00488 26.4697 5.00488C26.8083 5.00488 27.1151 5.05355 27.3901 5.15088C27.6694 5.24398 27.9085 5.39421 28.1074 5.60156C28.3063 5.80892 28.4587 6.07975 28.5645 6.41406C28.6745 6.74414 28.7295 7.14616 28.7295 7.62012V12H27.041V7.60742C27.041 7.29004 26.9945 7.04036 26.9014 6.8584C26.8083 6.6722 26.675 6.5389 26.5015 6.4585C26.3322 6.37809 26.1227 6.33789 25.873 6.33789C25.6022 6.33789 25.3695 6.39079 25.1748 6.49658C24.9801 6.59814 24.8193 6.73991 24.6924 6.92188C24.5697 7.10384 24.4766 7.31331 24.4131 7.55029C24.3538 7.78727 24.3242 8.04329 24.3242 8.31836ZM33.9917 10.54V7.37256C33.9917 7.13981 33.9515 6.9388 33.8711 6.76953C33.7907 6.60026 33.668 6.46908 33.5029 6.37598C33.3379 6.28288 33.1284 6.23633 32.8745 6.23633C32.6502 6.23633 32.4535 6.27441 32.2842 6.35059C32.1191 6.42676 31.9922 6.53467 31.9033 6.67432C31.8145 6.80973 31.77 6.96631 31.77 7.14404H30.0879C30.0879 6.86051 30.1556 6.5918 30.291 6.33789C30.4264 6.07975 30.619 5.85124 30.8687 5.65234C31.1226 5.44922 31.4251 5.29053 31.7764 5.17627C32.1318 5.06201 32.5296 5.00488 32.9697 5.00488C33.4902 5.00488 33.9536 5.09375 34.3599 5.27148C34.7703 5.44499 35.092 5.70736 35.3247 6.05859C35.5617 6.40983 35.6802 6.85205 35.6802 7.38525V10.3813C35.6802 10.7241 35.7013 11.0182 35.7437 11.2637C35.7902 11.5049 35.8579 11.7144 35.9468 11.8921V12H34.2393C34.1589 11.8265 34.0975 11.6064 34.0552 11.3398C34.0129 11.069 33.9917 10.8024 33.9917 10.54ZM34.2266 7.81689L34.2393 8.81348H33.1792C32.9168 8.81348 32.6862 8.84098 32.4873 8.896C32.2884 8.94678 32.1255 9.02295 31.9985 9.12451C31.8716 9.22184 31.7764 9.34033 31.7129 9.47998C31.6494 9.6154 31.6177 9.76986 31.6177 9.94336C31.6177 10.1126 31.6558 10.265 31.7319 10.4004C31.8123 10.5358 31.9266 10.6437 32.0747 10.7241C32.2271 10.8003 32.4048 10.8384 32.6079 10.8384C32.9041 10.8384 33.1623 10.7791 33.3823 10.6606C33.6024 10.5379 33.7738 10.3898 33.8965 10.2163C34.0192 10.0428 34.0848 9.87777 34.0933 9.72119L34.5757 10.4448C34.5164 10.6183 34.4276 10.8024 34.3091 10.9971C34.1906 11.1917 34.0382 11.3737 33.8521 11.543C33.6659 11.7122 33.4416 11.8519 33.1792 11.9619C32.9168 12.0719 32.6121 12.127 32.2651 12.127C31.8208 12.127 31.423 12.0381 31.0718 11.8604C30.7205 11.6826 30.4434 11.4393 30.2402 11.1304C30.0371 10.8215 29.9355 10.4702 29.9355 10.0767C29.9355 9.71273 30.0033 9.39111 30.1387 9.11182C30.2741 8.83252 30.4751 8.59766 30.7417 8.40723C31.0083 8.21257 31.3384 8.06657 31.7319 7.96924C32.1297 7.86768 32.5846 7.81689 33.0967 7.81689H34.2266Z" fill="#CC6237"/>
<rect y="20" width="333" height="40" rx="20" fill="#F6F6F6"/>
<path d="M23.2988 44.5H21.5176L21.5293 43.5801H23.2988C23.9082 43.5801 24.416 43.4531 24.8223 43.1992C25.2285 42.9414 25.5332 42.582 25.7363 42.1211C25.9434 41.6562 26.0469 41.1133 26.0469 40.4922V39.9707C26.0469 39.4824 25.9883 39.0488 25.8711 38.6699C25.7539 38.2871 25.582 37.9648 25.3555 37.7031C25.1289 37.4375 24.8516 37.2363 24.5234 37.0996C24.1992 36.9629 23.8262 36.8945 23.4043 36.8945H21.4824V35.9688H23.4043C23.9629 35.9688 24.4727 36.0625 24.9336 36.25C25.3945 36.4336 25.791 36.7012 26.123 37.0527C26.459 37.4004 26.7168 37.8223 26.8965 38.3184C27.0762 38.8105 27.166 39.3652 27.166 39.9824V40.4922C27.166 41.1094 27.0762 41.666 26.8965 42.1621C26.7168 42.6543 26.457 43.0742 26.1172 43.4219C25.7812 43.7695 25.375 44.0371 24.8984 44.2246C24.4258 44.4082 23.8926 44.5 23.2988 44.5ZM22.1211 35.9688V44.5H20.9902V35.9688H22.1211ZM29.8789 38.1602V44.5H28.7891V38.1602H29.8789ZM28.707 36.4785C28.707 36.3027 28.7598 36.1543 28.8652 36.0332C28.9746 35.9121 29.1348 35.8516 29.3457 35.8516C29.5527 35.8516 29.7109 35.9121 29.8203 36.0332C29.9336 36.1543 29.9902 36.3027 29.9902 36.4785C29.9902 36.6465 29.9336 36.791 29.8203 36.9121C29.7109 37.0293 29.5527 37.0879 29.3457 37.0879C29.1348 37.0879 28.9746 37.0293 28.8652 36.9121C28.7598 36.791 28.707 36.6465 28.707 36.4785ZM35.7266 38.1602H36.7109V44.3652C36.7109 44.9238 36.5977 45.4004 36.3711 45.7949C36.1445 46.1895 35.8281 46.4883 35.4219 46.6914C35.0195 46.8984 34.5547 47.002 34.0273 47.002C33.8086 47.002 33.5508 46.9668 33.2539 46.8965C32.9609 46.8301 32.6719 46.7148 32.3867 46.5508C32.1055 46.3906 31.8691 46.1738 31.6777 45.9004L32.2461 45.2559C32.5117 45.5762 32.7891 45.7988 33.0781 45.9238C33.3711 46.0488 33.6602 46.1113 33.9453 46.1113C34.2891 46.1113 34.5859 46.0469 34.8359 45.918C35.0859 45.7891 35.2793 45.5977 35.416 45.3438C35.5566 45.0938 35.627 44.7852 35.627 44.418V39.5547L35.7266 38.1602ZM31.3613 41.4004V41.2773C31.3613 40.793 31.418 40.3535 31.5312 39.959C31.6484 39.5605 31.8145 39.2188 32.0293 38.9336C32.248 38.6484 32.5117 38.4297 32.8203 38.2773C33.1289 38.1211 33.4766 38.043 33.8633 38.043C34.2617 38.043 34.6094 38.1133 34.9062 38.2539C35.207 38.3906 35.4609 38.5918 35.668 38.8574C35.8789 39.1191 36.0449 39.4355 36.166 39.8066C36.2871 40.1777 36.3711 40.5977 36.418 41.0664V41.6055C36.375 42.0703 36.291 42.4883 36.166 42.8594C36.0449 43.2305 35.8789 43.5469 35.668 43.8086C35.4609 44.0703 35.207 44.2715 34.9062 44.4121C34.6055 44.5488 34.2539 44.6172 33.8516 44.6172C33.4727 44.6172 33.1289 44.5371 32.8203 44.377C32.5156 44.2168 32.2539 43.9922 32.0352 43.7031C31.8164 43.4141 31.6484 43.0742 31.5312 42.6836C31.418 42.2891 31.3613 41.8613 31.3613 41.4004ZM32.4453 41.2773V41.4004C32.4453 41.7168 32.4766 42.0137 32.5391 42.291C32.6055 42.5684 32.7051 42.8125 32.8379 43.0234C32.9746 43.2344 33.1484 43.4004 33.3594 43.5215C33.5703 43.6387 33.8223 43.6973 34.1152 43.6973C34.4746 43.6973 34.7715 43.6211 35.0059 43.4688C35.2402 43.3164 35.4258 43.1152 35.5625 42.8652C35.7031 42.6152 35.8125 42.3438 35.8906 42.0508V40.6387C35.8477 40.4238 35.7812 40.2168 35.6914 40.0176C35.6055 39.8145 35.4922 39.6348 35.3516 39.4785C35.2148 39.3184 35.0449 39.1914 34.8418 39.0977C34.6387 39.0039 34.4004 38.957 34.127 38.957C33.8301 38.957 33.5742 39.0195 33.3594 39.1445C33.1484 39.2656 32.9746 39.4336 32.8379 39.6484C32.7051 39.8594 32.6055 40.1055 32.5391 40.3867C32.4766 40.6641 32.4453 40.9609 32.4453 41.2773ZM39.5352 38.1602V44.5H38.4453V38.1602H39.5352ZM38.3633 36.4785C38.3633 36.3027 38.416 36.1543 38.5215 36.0332C38.6309 35.9121 38.791 35.8516 39.002 35.8516C39.209 35.8516 39.3672 35.9121 39.4766 36.0332C39.5898 36.1543 39.6465 36.3027 39.6465 36.4785C39.6465 36.6465 39.5898 36.791 39.4766 36.9121C39.3672 37.0293 39.209 37.0879 39.002 37.0879C38.791 37.0879 38.6309 37.0293 38.5215 36.9121C38.416 36.791 38.3633 36.6465 38.3633 36.4785ZM43.9297 38.1602V38.9922H40.502V38.1602H43.9297ZM41.6621 36.6191H42.7461V42.9297C42.7461 43.1445 42.7793 43.3066 42.8457 43.416C42.9121 43.5254 42.998 43.5977 43.1035 43.6328C43.209 43.668 43.3223 43.6855 43.4434 43.6855C43.5332 43.6855 43.627 43.6777 43.7246 43.6621C43.8262 43.6426 43.9023 43.627 43.9531 43.6152L43.959 44.5C43.873 44.5273 43.7598 44.5527 43.6191 44.5762C43.4824 44.6035 43.3164 44.6172 43.1211 44.6172C42.8555 44.6172 42.6113 44.5645 42.3887 44.459C42.166 44.3535 41.9883 44.1777 41.8555 43.9316C41.7266 43.6816 41.6621 43.3457 41.6621 42.9238V36.6191ZM47.832 44.6172C47.3906 44.6172 46.9902 44.543 46.6309 44.3945C46.2754 44.2422 45.9688 44.0293 45.7109 43.7559C45.457 43.4824 45.2617 43.1582 45.125 42.7832C44.9883 42.4082 44.9199 41.998 44.9199 41.5527V41.3066C44.9199 40.791 44.9961 40.332 45.1484 39.9297C45.3008 39.5234 45.5078 39.1797 45.7695 38.8984C46.0312 38.6172 46.3281 38.4043 46.6602 38.2598C46.9922 38.1152 47.3359 38.043 47.6914 38.043C48.1445 38.043 48.5352 38.1211 48.8633 38.2773C49.1953 38.4336 49.4668 38.6523 49.6777 38.9336C49.8887 39.2109 50.0449 39.5391 50.1465 39.918C50.248 40.293 50.2988 40.7031 50.2988 41.1484V41.6348H45.5645V40.75H49.2148V40.668C49.1992 40.3867 49.1406 40.1133 49.0391 39.8477C48.9414 39.582 48.7852 39.3633 48.5703 39.1914C48.3555 39.0195 48.0625 38.9336 47.6914 38.9336C47.4453 38.9336 47.2188 38.9863 47.0117 39.0918C46.8047 39.1934 46.627 39.3457 46.4785 39.5488C46.3301 39.752 46.2148 40 46.1328 40.293C46.0508 40.5859 46.0098 40.9238 46.0098 41.3066V41.5527C46.0098 41.8535 46.0508 42.1367 46.1328 42.4023C46.2188 42.6641 46.3418 42.8945 46.502 43.0938C46.666 43.293 46.8633 43.4492 47.0938 43.5625C47.3281 43.6758 47.5938 43.7324 47.8906 43.7324C48.2734 43.7324 48.5977 43.6543 48.8633 43.498C49.1289 43.3418 49.3613 43.1328 49.5605 42.8711L50.2168 43.3926C50.0801 43.5996 49.9062 43.7969 49.6953 43.9844C49.4844 44.1719 49.2246 44.3242 48.916 44.4414C48.6113 44.5586 48.25 44.6172 47.832 44.6172ZM58.2793 43.416V40.1523C58.2793 39.9023 58.2285 39.6855 58.127 39.502C58.0293 39.3145 57.8809 39.1699 57.6816 39.0684C57.4824 38.9668 57.2363 38.916 56.9434 38.916C56.6699 38.916 56.4297 38.9629 56.2227 39.0566C56.0195 39.1504 55.8594 39.2734 55.7422 39.4258C55.6289 39.5781 55.5723 39.7422 55.5723 39.918H54.4883C54.4883 39.6914 54.5469 39.4668 54.6641 39.2441C54.7812 39.0215 54.9492 38.8203 55.168 38.6406C55.3906 38.457 55.6562 38.3125 55.9648 38.207C56.2773 38.0977 56.625 38.043 57.0078 38.043C57.4688 38.043 57.875 38.1211 58.2266 38.2773C58.582 38.4336 58.8594 38.6699 59.0586 38.9863C59.2617 39.2988 59.3633 39.6914 59.3633 40.1641V43.1172C59.3633 43.3281 59.3809 43.5527 59.416 43.791C59.4551 44.0293 59.5117 44.2344 59.5859 44.4062V44.5H58.4551C58.4004 44.375 58.3574 44.209 58.3262 44.002C58.2949 43.791 58.2793 43.5957 58.2793 43.416ZM58.4668 40.6562L58.4785 41.418H57.3828C57.0742 41.418 56.7988 41.4434 56.5566 41.4941C56.3145 41.541 56.1113 41.6133 55.9473 41.7109C55.7832 41.8086 55.6582 41.9316 55.5723 42.0801C55.4863 42.2246 55.4434 42.3945 55.4434 42.5898C55.4434 42.7891 55.4883 42.9707 55.5781 43.1348C55.668 43.2988 55.8027 43.4297 55.9824 43.5273C56.166 43.6211 56.3906 43.668 56.6562 43.668C56.9883 43.668 57.2812 43.5977 57.5352 43.457C57.7891 43.3164 57.9902 43.1445 58.1387 42.9414C58.291 42.7383 58.373 42.541 58.3848 42.3496L58.8477 42.8711C58.8203 43.0352 58.7461 43.2168 58.625 43.416C58.5039 43.6152 58.3418 43.8066 58.1387 43.9902C57.9395 44.1699 57.7012 44.3203 57.4238 44.4414C57.1504 44.5586 56.8418 44.6172 56.498 44.6172C56.0684 44.6172 55.6914 44.5332 55.3672 44.3652C55.0469 44.1973 54.7969 43.9727 54.6172 43.6914C54.4414 43.4062 54.3535 43.0879 54.3535 42.7363C54.3535 42.3965 54.4199 42.0977 54.5527 41.8398C54.6855 41.5781 54.877 41.3613 55.127 41.1895C55.377 41.0137 55.6777 40.8809 56.0293 40.791C56.3809 40.7012 56.7734 40.6562 57.207 40.6562H58.4668ZM65.0586 46.9375V39.3789L65.1523 38.1602H66.1484V46.9375H65.0586ZM60.7988 41.4004V41.2773C60.7988 40.793 60.8555 40.3535 60.9688 39.959C61.082 39.5605 61.248 39.2188 61.4668 38.9336C61.6855 38.6484 61.9492 38.4297 62.2578 38.2773C62.5703 38.1211 62.9258 38.043 63.3242 38.043C63.7227 38.043 64.0723 38.1133 64.373 38.2539C64.6777 38.3906 64.9355 38.5918 65.1465 38.8574C65.3613 39.1191 65.5312 39.4355 65.6562 39.8066C65.7812 40.1777 65.8672 40.5977 65.9141 41.0664V41.6055C65.8711 42.0703 65.7871 42.4883 65.6621 42.8594C65.5371 43.2305 65.3672 43.5469 65.1523 43.8086C64.9414 44.0703 64.6816 44.2715 64.373 44.4121C64.0684 44.5488 63.7148 44.6172 63.3125 44.6172C62.9219 44.6172 62.5703 44.5371 62.2578 44.377C61.9492 44.2168 61.6855 43.9922 61.4668 43.7031C61.252 43.4141 61.0859 43.0742 60.9688 42.6836C60.8555 42.2891 60.7988 41.8613 60.7988 41.4004ZM61.8887 41.2773V41.4004C61.8887 41.7168 61.9219 42.0156 61.9883 42.2969C62.0547 42.5742 62.1562 42.8203 62.293 43.0352C62.4336 43.25 62.6094 43.4199 62.8203 43.5449C63.0352 43.666 63.2891 43.7266 63.582 43.7266C63.9414 43.7266 64.2402 43.6484 64.4785 43.4922C64.7207 43.3359 64.9141 43.1309 65.0586 42.877C65.2031 42.6191 65.3145 42.3438 65.3926 42.0508V40.6387C65.3496 40.4238 65.2812 40.2148 65.1875 40.0117C65.0977 39.8086 64.9805 39.627 64.8359 39.4668C64.6914 39.3027 64.5156 39.1738 64.3086 39.0801C64.1055 38.9824 63.8672 38.9336 63.5938 38.9336C63.2969 38.9336 63.041 38.9961 62.8262 39.1211C62.6113 39.2461 62.4336 39.418 62.293 39.6367C62.1562 39.8516 62.0547 40.0996 61.9883 40.3809C61.9219 40.6621 61.8887 40.9609 61.8887 41.2773ZM71.7676 43.0352V38.1602H72.8574V44.5H71.8203L71.7676 43.0352ZM71.9727 41.6992L72.4238 41.6875C72.4238 42.1094 72.3789 42.5 72.2891 42.8594C72.2031 43.2148 72.0625 43.5234 71.8672 43.7852C71.6719 44.0469 71.416 44.252 71.0996 44.4004C70.7832 44.5449 70.3984 44.6172 69.9453 44.6172C69.6367 44.6172 69.3535 44.5723 69.0957 44.4824C68.8418 44.3926 68.623 44.2539 68.4395 44.0664C68.2559 43.8789 68.1133 43.6348 68.0117 43.334C67.9141 43.0332 67.8652 42.6719 67.8652 42.25V38.1602H68.9492V42.2617C68.9492 42.5469 68.9805 42.7832 69.043 42.9707C69.1094 43.1543 69.1973 43.3008 69.3066 43.4102C69.4199 43.5156 69.5449 43.5898 69.6816 43.6328C69.8223 43.6758 69.9668 43.6973 70.1152 43.6973C70.5762 43.6973 70.9414 43.6094 71.2109 43.4336C71.4805 43.2539 71.6738 43.0137 71.791 42.7129C71.9121 42.4082 71.9727 42.0703 71.9727 41.6992ZM75.6875 38.1602V44.5H74.5977V38.1602H75.6875ZM74.5156 36.4785C74.5156 36.3027 74.5684 36.1543 74.6738 36.0332C74.7832 35.9121 74.9434 35.8516 75.1543 35.8516C75.3613 35.8516 75.5195 35.9121 75.6289 36.0332C75.7422 36.1543 75.7988 36.3027 75.7988 36.4785C75.7988 36.6465 75.7422 36.791 75.6289 36.9121C75.5195 37.0293 75.3613 37.0879 75.1543 37.0879C74.9434 37.0879 74.7832 37.0293 74.6738 36.9121C74.5684 36.791 74.5156 36.6465 74.5156 36.4785Z" fill="#657593"/>
<path d="M312.117 39.6709C312.082 39.5907 311.222 37.6823 309.309 35.7699C306.761 33.2217 303.542 31.875 300 31.875C296.457 31.875 293.239 33.2217 290.691 35.7699C288.778 37.6823 287.914 39.5938 287.883 39.6709C287.836 39.7748 287.812 39.8873 287.812 40.001C287.812 40.1147 287.836 40.2272 287.883 40.3311C287.918 40.4113 288.778 42.3187 290.691 44.2311C293.239 46.7783 296.457 48.125 300 48.125C303.542 48.125 306.761 46.7783 309.309 44.2311C311.222 42.3187 312.082 40.4113 312.117 40.3311C312.164 40.2272 312.187 40.1147 312.187 40.001C312.187 39.8873 312.164 39.7748 312.117 39.6709ZM300 46.5C296.874 46.5 294.143 45.3635 291.882 43.123C290.954 42.2005 290.165 41.1486 289.539 40C290.165 38.8513 290.954 37.7993 291.882 36.877C294.143 34.6365 296.874 33.5 300 33.5C303.126 33.5 305.857 34.6365 308.118 36.877C309.047 37.7991 309.838 38.851 310.466 40C309.734 41.367 306.544 46.5 300 46.5ZM300 35.125C299.036 35.125 298.093 35.4109 297.292 35.9466C296.49 36.4823 295.865 37.2436 295.496 38.1344C295.127 39.0252 295.031 40.0054 295.219 40.9511C295.407 41.8967 295.871 42.7654 296.553 43.4471C297.235 44.1289 298.103 44.5932 299.049 44.7813C299.995 44.9694 300.975 44.8729 301.866 44.5039C302.756 44.1349 303.518 43.5101 304.053 42.7084C304.589 41.9067 304.875 40.9642 304.875 40C304.874 38.7075 304.36 37.4683 303.446 36.5543C302.532 35.6404 301.293 35.1263 300 35.125ZM300 43.25C299.357 43.25 298.729 43.0594 298.194 42.7023C297.66 42.3452 297.243 41.8376 296.997 41.2437C296.751 40.6499 296.687 39.9964 296.812 39.366C296.938 38.7355 297.247 38.1564 297.702 37.7019C298.156 37.2474 298.736 36.9378 299.366 36.8124C299.996 36.687 300.65 36.7514 301.244 36.9974C301.838 37.2434 302.345 37.6599 302.702 38.1944C303.059 38.7289 303.25 39.3572 303.25 40C303.25 40.862 302.908 41.6886 302.298 42.2981C301.689 42.9076 300.862 43.25 300 43.25Z" fill="#CC6237"/>
</g>
<defs>
<clipPath id="clip0_14_3556">
<rect width="333" height="60" fill="white"/>
</clipPath>
</defs>
</svg>
