<svg width="139" height="40" viewBox="0 0 139 40" fill="none" xmlns="http://www.w3.org/2000/svg">
<g clip-path="url(#clip0_56_6666)">
<rect width="139" height="40" rx="20" fill="#F6F6F6"/>
<path d="M23.9985 22.1641C23.9985 21.9482 23.9647 21.7578 23.897 21.5928C23.8335 21.4235 23.7192 21.2712 23.5542 21.1357C23.3934 21.0003 23.1691 20.8713 22.8813 20.7485C22.5978 20.6258 22.2381 20.501 21.8022 20.374C21.3452 20.2386 20.9326 20.0884 20.5645 19.9233C20.1963 19.7541 19.881 19.5615 19.6187 19.3457C19.3563 19.1299 19.1553 18.8823 19.0156 18.603C18.876 18.3237 18.8062 18.0042 18.8062 17.6445C18.8062 17.2848 18.8802 16.9526 19.0283 16.6479C19.1764 16.3433 19.388 16.0788 19.6631 15.8545C19.9424 15.626 20.2746 15.4482 20.6597 15.3213C21.0448 15.1943 21.4743 15.1309 21.9482 15.1309C22.6423 15.1309 23.2305 15.2642 23.7129 15.5308C24.1995 15.7931 24.5698 16.138 24.8237 16.5654C25.0776 16.9886 25.2046 17.4414 25.2046 17.9238H23.9858C23.9858 17.5768 23.9118 17.27 23.7637 17.0034C23.6156 16.7326 23.3913 16.521 23.0908 16.3687C22.7904 16.2121 22.4095 16.1338 21.9482 16.1338C21.5124 16.1338 21.1527 16.1994 20.8691 16.3306C20.5856 16.4618 20.374 16.6395 20.2344 16.8638C20.099 17.0881 20.0312 17.3441 20.0312 17.6318C20.0312 17.8265 20.0715 18.0042 20.1519 18.165C20.2365 18.3216 20.3656 18.4676 20.5391 18.603C20.7168 18.7384 20.9411 18.8633 21.2119 18.9775C21.487 19.0918 21.8149 19.2018 22.1958 19.3076C22.7205 19.4557 23.1733 19.6208 23.5542 19.8027C23.9351 19.9847 24.2482 20.1899 24.4937 20.4185C24.7433 20.6427 24.9274 20.8988 25.0459 21.1865C25.1686 21.4701 25.23 21.7917 25.23 22.1514C25.23 22.528 25.1538 22.8687 25.0015 23.1733C24.8491 23.478 24.6312 23.7383 24.3477 23.9541C24.0641 24.1699 23.7235 24.3371 23.3257 24.4556C22.9321 24.5698 22.492 24.627 22.0054 24.627C21.578 24.627 21.1569 24.5677 20.7422 24.4492C20.3317 24.3307 19.9572 24.153 19.6187 23.916C19.2843 23.679 19.0156 23.387 18.8125 23.04C18.6136 22.6888 18.5142 22.2826 18.5142 21.8213H19.7329C19.7329 22.1387 19.7943 22.4116 19.917 22.6401C20.0397 22.8644 20.2069 23.0506 20.4185 23.1987C20.6343 23.3468 20.8776 23.4569 21.1484 23.5288C21.4235 23.5965 21.7091 23.6304 22.0054 23.6304C22.4328 23.6304 22.7946 23.5711 23.0908 23.4526C23.387 23.3341 23.6113 23.1649 23.7637 22.9448C23.9202 22.7248 23.9985 22.4645 23.9985 22.1641ZM29.4639 24.627C28.9857 24.627 28.5519 24.5465 28.1626 24.3857C27.7775 24.2207 27.4453 23.9901 27.166 23.6938C26.891 23.3976 26.6794 23.0464 26.5312 22.6401C26.3831 22.2339 26.3091 21.7896 26.3091 21.3071V21.0405C26.3091 20.4819 26.3916 19.9847 26.5566 19.5488C26.7217 19.1087 26.946 18.7363 27.2295 18.4316C27.513 18.127 27.8346 17.8963 28.1943 17.7397C28.554 17.5832 28.9264 17.5049 29.3115 17.5049C29.8024 17.5049 30.2256 17.5895 30.5811 17.7588C30.9408 17.9281 31.2349 18.165 31.4634 18.4697C31.6919 18.7702 31.8612 19.1257 31.9712 19.5361C32.0812 19.9424 32.1362 20.3867 32.1362 20.8691V21.396H27.0073V20.4375H30.9619V20.3486C30.945 20.0439 30.8815 19.7477 30.7715 19.46C30.6657 19.1722 30.4964 18.9352 30.2637 18.749C30.0309 18.5628 29.7135 18.4697 29.3115 18.4697C29.0449 18.4697 28.7995 18.5269 28.5752 18.6411C28.3509 18.7511 28.1584 18.9162 27.9976 19.1362C27.8368 19.3563 27.7119 19.625 27.623 19.9424C27.5342 20.2598 27.4897 20.6258 27.4897 21.0405V21.3071C27.4897 21.633 27.5342 21.9398 27.623 22.2275C27.7161 22.5111 27.8494 22.7607 28.0229 22.9766C28.2007 23.1924 28.4144 23.3617 28.6641 23.4844C28.918 23.6071 29.2057 23.6685 29.5273 23.6685C29.9421 23.6685 30.2933 23.5838 30.5811 23.4146C30.8688 23.2453 31.1206 23.0189 31.3364 22.7354L32.0474 23.3003C31.8993 23.5246 31.7109 23.7383 31.4824 23.9414C31.2539 24.1445 30.9725 24.3096 30.6382 24.4365C30.3081 24.5635 29.9167 24.627 29.4639 24.627ZM34.7832 14.75V24.5H33.6025V14.75H34.7832ZM39.5186 24.627C39.0404 24.627 38.6066 24.5465 38.2173 24.3857C37.8322 24.2207 37.5 23.9901 37.2207 23.6938C36.9456 23.3976 36.734 23.0464 36.5859 22.6401C36.4378 22.2339 36.3638 21.7896 36.3638 21.3071V21.0405C36.3638 20.4819 36.4463 19.9847 36.6113 19.5488C36.7764 19.1087 37.0007 18.7363 37.2842 18.4316C37.5677 18.127 37.8893 17.8963 38.249 17.7397C38.6087 17.5832 38.9811 17.5049 39.3662 17.5049C39.8571 17.5049 40.2803 17.5895 40.6357 17.7588C40.9954 17.9281 41.2896 18.165 41.5181 18.4697C41.7466 18.7702 41.9159 19.1257 42.0259 19.5361C42.1359 19.9424 42.1909 20.3867 42.1909 20.8691V21.396H37.062V20.4375H41.0166V20.3486C40.9997 20.0439 40.9362 19.7477 40.8262 19.46C40.7204 19.1722 40.5511 18.9352 40.3184 18.749C40.0856 18.5628 39.7682 18.4697 39.3662 18.4697C39.0996 18.4697 38.8542 18.5269 38.6299 18.6411C38.4056 18.7511 38.2131 18.9162 38.0522 19.1362C37.8914 19.3563 37.7666 19.625 37.6777 19.9424C37.5889 20.2598 37.5444 20.6258 37.5444 21.0405V21.3071C37.5444 21.633 37.5889 21.9398 37.6777 22.2275C37.7708 22.5111 37.9041 22.7607 38.0776 22.9766C38.2554 23.1924 38.4691 23.3617 38.7188 23.4844C38.9727 23.6071 39.2604 23.6685 39.582 23.6685C39.9967 23.6685 40.348 23.5838 40.6357 23.4146C40.9235 23.2453 41.1753 23.0189 41.3911 22.7354L42.1021 23.3003C41.9539 23.5246 41.7656 23.7383 41.5371 23.9414C41.3086 24.1445 41.0272 24.3096 40.6929 24.4365C40.3628 24.5635 39.9714 24.627 39.5186 24.627ZM46.3105 23.6621C46.5898 23.6621 46.848 23.605 47.085 23.4907C47.3219 23.3765 47.5166 23.2199 47.6689 23.021C47.8213 22.8179 47.908 22.5872 47.9292 22.3291H49.0464C49.0252 22.7354 48.8877 23.1141 48.6338 23.4653C48.3841 23.8123 48.0562 24.0938 47.6499 24.3096C47.2437 24.5212 46.7972 24.627 46.3105 24.627C45.7943 24.627 45.3436 24.536 44.9585 24.354C44.5776 24.172 44.2603 23.9224 44.0063 23.605C43.7567 23.2876 43.5684 22.9237 43.4414 22.5132C43.3187 22.0985 43.2573 21.6605 43.2573 21.1992V20.9326C43.2573 20.4714 43.3187 20.0355 43.4414 19.625C43.5684 19.2103 43.7567 18.8442 44.0063 18.5269C44.2603 18.2095 44.5776 17.9598 44.9585 17.7778C45.3436 17.5959 45.7943 17.5049 46.3105 17.5049C46.848 17.5049 47.3177 17.6149 47.7197 17.835C48.1217 18.0508 48.437 18.347 48.6655 18.7236C48.8983 19.096 49.0252 19.5192 49.0464 19.9932H47.9292C47.908 19.7096 47.8276 19.4536 47.688 19.2251C47.5526 18.9966 47.3664 18.8146 47.1294 18.6792C46.8966 18.5396 46.6237 18.4697 46.3105 18.4697C45.9508 18.4697 45.6483 18.5417 45.4028 18.6855C45.1616 18.8252 44.9691 19.0156 44.8252 19.2568C44.6855 19.4938 44.584 19.7583 44.5205 20.0503C44.4613 20.3381 44.4316 20.6322 44.4316 20.9326V21.1992C44.4316 21.4997 44.4613 21.7959 44.5205 22.0879C44.5798 22.3799 44.6792 22.6444 44.8188 22.8813C44.9627 23.1183 45.1553 23.3088 45.3965 23.4526C45.6419 23.5923 45.9466 23.6621 46.3105 23.6621ZM53.2422 17.6318V18.5332H49.5288V17.6318H53.2422ZM50.7856 15.9624H51.96V22.7988C51.96 23.0316 51.9959 23.2072 52.0679 23.3257C52.1398 23.4442 52.2329 23.5225 52.3472 23.5605C52.4614 23.5986 52.5841 23.6177 52.7153 23.6177C52.8127 23.6177 52.9142 23.6092 53.02 23.5923C53.13 23.5711 53.2126 23.5542 53.2676 23.5415L53.2739 24.5C53.1808 24.5296 53.0581 24.5571 52.9058 24.5825C52.7576 24.6121 52.5778 24.627 52.3662 24.627C52.0785 24.627 51.814 24.5698 51.5728 24.4556C51.3315 24.3413 51.139 24.1509 50.9951 23.8843C50.8555 23.6134 50.7856 23.2495 50.7856 22.7925V15.9624Z" fill="#657593"/>
<path fill-rule="evenodd" clip-rule="evenodd" d="M109.707 23.707C109.519 23.8945 109.265 23.9998 109 23.9998C108.735 23.9998 108.481 23.8945 108.293 23.707L102.636 18.05C102.54 17.9578 102.464 17.8474 102.412 17.7254C102.359 17.6034 102.332 17.4722 102.331 17.3394C102.33 17.2066 102.355 17.0749 102.405 16.9521C102.455 16.8292 102.53 16.7175 102.624 16.6236C102.717 16.5297 102.829 16.4555 102.952 16.4052C103.075 16.3549 103.207 16.3296 103.339 16.3308C103.472 16.3319 103.603 16.3595 103.725 16.4119C103.847 16.4643 103.958 16.5405 104.05 16.636L109 21.586L113.95 16.636C114.139 16.4538 114.391 16.3531 114.653 16.3553C114.916 16.3576 115.166 16.4628 115.352 16.6482C115.537 16.8336 115.642 17.0844 115.645 17.3466C115.647 17.6088 115.546 17.8614 115.364 18.05L109.707 23.707Z" fill="#657593"/>
</g>
<defs>
<clipPath id="clip0_56_6666">
<rect width="139" height="40" fill="white"/>
</clipPath>
</defs>
</svg>
