<svg width="132" height="142" viewBox="0 0 132 142" fill="none" xmlns="http://www.w3.org/2000/svg">
<g clip-path="url(#clip0_9_4970)">
<g filter="url(#filter0_d_9_4970)">
<g clip-path="url(#clip1_9_4970)">
<rect x="2" y="1" width="123" height="105" rx="15" fill="white" shape-rendering="crispEdges"/>
<mask id="path-3-inside-1_9_4970" fill="white">
<path d="M2 1H125V36H2V1Z"/>
</mask>
<path d="M125 35H2V37H125V35Z" fill="black" fill-opacity="0.1" mask="url(#path-3-inside-1_9_4970)"/>
<g clip-path="url(#clip2_9_4970)">
<path d="M36.9422 18.2911C35.4445 15.5222 32.8178 13.8467 29.9111 13.8467C27.0045 13.8467 24.3734 15.5222 22.8889 18.2911L22.7645 18.5L22.88 18.7133C24.3778 21.4822 27.0045 23.1578 29.9111 23.1578C32.8178 23.1578 35.4489 21.5045 36.9422 18.7133L37.0578 18.5L36.9422 18.2911ZM29.9111 22.2467C27.4089 22.2467 25.1111 20.8511 23.7778 18.5C25.1111 16.1489 27.4089 14.7533 29.9111 14.7533C32.4134 14.7533 34.6845 16.1533 36.04 18.5C34.6845 20.8511 32.4089 22.2467 29.9111 22.2467Z" fill="black"/>
<path d="M30.04 15.4644C29.4374 15.4688 28.8496 15.6517 28.3509 15.99C27.8521 16.3283 27.4648 16.8067 27.2379 17.365C27.0109 17.9232 26.9545 18.5362 27.0757 19.1266C27.1969 19.7169 27.4904 20.258 27.919 20.6817C28.3476 21.1053 28.8921 21.3924 29.4838 21.5067C30.0754 21.6211 30.6877 21.5575 31.2433 21.3241C31.7989 21.0906 32.2728 20.6978 32.6053 20.1951C32.9377 19.6925 33.1137 19.1026 33.1111 18.5C33.1094 18.0989 33.0285 17.702 32.8731 17.3322C32.7177 16.9624 32.4909 16.6268 32.2056 16.3448C31.9203 16.0628 31.5821 15.8399 31.2105 15.6888C30.8389 15.5378 30.4411 15.4615 30.04 15.4644ZM30.04 20.6733C29.6143 20.6689 29.1995 20.5389 28.8475 20.2995C28.4955 20.0601 28.2221 19.722 28.0616 19.3277C27.9012 18.9334 27.8608 18.5005 27.9455 18.0833C28.0303 17.6662 28.2364 17.2834 28.538 16.983C28.8397 16.6826 29.2233 16.478 29.6408 16.395C30.0583 16.3119 30.4911 16.3541 30.8847 16.5161C31.2783 16.6782 31.6153 16.953 31.8532 17.3059C32.0912 17.6589 32.2196 18.0743 32.2222 18.5C32.2234 18.7865 32.1677 19.0704 32.0584 19.3352C31.949 19.5999 31.7882 19.8404 31.5852 20.0426C31.3822 20.2447 31.1411 20.4046 30.8758 20.5129C30.6106 20.6211 30.3265 20.6757 30.04 20.6733Z" fill="black"/>
</g>
<path d="M52.0562 21.5972L54.7793 13.7578H56.106L52.6846 23H51.7388L52.0562 21.5972ZM49.5107 13.7578L52.2085 21.5972L52.5449 23H51.5991L48.1841 13.7578H49.5107ZM58.4482 16.1318V23H57.2676V16.1318H58.4482ZM57.1787 14.3101C57.1787 14.1196 57.2358 13.9588 57.3501 13.8276C57.4686 13.6965 57.6421 13.6309 57.8706 13.6309C58.0949 13.6309 58.2663 13.6965 58.3848 13.8276C58.5075 13.9588 58.5688 14.1196 58.5688 14.3101C58.5688 14.492 58.5075 14.6486 58.3848 14.7798C58.2663 14.9067 58.0949 14.9702 57.8706 14.9702C57.6421 14.9702 57.4686 14.9067 57.3501 14.7798C57.2358 14.6486 57.1787 14.492 57.1787 14.3101ZM64.3325 21.1782C64.3325 21.009 64.2944 20.8524 64.2183 20.7085C64.1463 20.5604 63.9961 20.4271 63.7676 20.3086C63.5433 20.1859 63.2048 20.0801 62.752 19.9912C62.3711 19.9108 62.0262 19.8156 61.7173 19.7056C61.4126 19.5955 61.1523 19.4622 60.9365 19.3057C60.7249 19.1491 60.562 18.965 60.4478 18.7534C60.3335 18.5418 60.2764 18.2943 60.2764 18.0107C60.2764 17.7399 60.3356 17.4839 60.4541 17.2427C60.5768 17.0015 60.7482 16.7878 60.9683 16.6016C61.1925 16.4154 61.4613 16.2694 61.7744 16.1636C62.0876 16.0578 62.4367 16.0049 62.8218 16.0049C63.3719 16.0049 63.8416 16.1022 64.231 16.2969C64.6203 16.4915 64.9186 16.7518 65.126 17.0776C65.3333 17.3993 65.437 17.7568 65.437 18.1504H64.2627C64.2627 17.96 64.2056 17.7759 64.0913 17.5981C63.9813 17.4162 63.8184 17.266 63.6025 17.1475C63.391 17.029 63.1307 16.9697 62.8218 16.9697C62.4959 16.9697 62.2314 17.0205 62.0283 17.1221C61.8294 17.2194 61.6834 17.3442 61.5903 17.4966C61.5015 17.6489 61.457 17.8097 61.457 17.979C61.457 18.106 61.4782 18.2202 61.5205 18.3218C61.5671 18.4191 61.6475 18.5101 61.7617 18.5947C61.876 18.6751 62.0368 18.7513 62.2441 18.8232C62.4515 18.8952 62.716 18.9671 63.0376 19.0391C63.6004 19.166 64.0638 19.3184 64.4277 19.4961C64.7917 19.6738 65.0625 19.8918 65.2402 20.1499C65.418 20.408 65.5068 20.7212 65.5068 21.0894C65.5068 21.3898 65.4434 21.6649 65.3164 21.9146C65.1937 22.1642 65.0138 22.38 64.7769 22.562C64.5441 22.7397 64.2648 22.8794 63.939 22.981C63.6174 23.0783 63.2555 23.127 62.8535 23.127C62.2484 23.127 61.7363 23.019 61.3174 22.8032C60.8984 22.5874 60.5811 22.3081 60.3652 21.9653C60.1494 21.6226 60.0415 21.2607 60.0415 20.8799H61.2222C61.2391 21.2015 61.3322 21.4575 61.5015 21.6479C61.6707 21.8341 61.8781 21.9674 62.1235 22.0479C62.369 22.124 62.6123 22.1621 62.8535 22.1621C63.1751 22.1621 63.4438 22.1198 63.6597 22.0352C63.8797 21.9505 64.0469 21.8341 64.1611 21.686C64.2754 21.5379 64.3325 21.3687 64.3325 21.1782ZM71.2515 21.4131V16.1318H72.4321V23H71.3086L71.2515 21.4131ZM71.4736 19.9658L71.9624 19.9531C71.9624 20.4102 71.9137 20.8333 71.8164 21.2227C71.7233 21.6077 71.571 21.9421 71.3594 22.2256C71.1478 22.5091 70.8706 22.7313 70.5278 22.8921C70.1851 23.0487 69.7682 23.127 69.2773 23.127C68.943 23.127 68.6362 23.0783 68.3569 22.981C68.0819 22.8836 67.8449 22.7334 67.646 22.5303C67.4471 22.3271 67.2926 22.0627 67.1826 21.7368C67.0768 21.411 67.0239 21.0195 67.0239 20.5625V16.1318H68.1982V20.5752C68.1982 20.8841 68.2321 21.1401 68.2998 21.3433C68.3717 21.5422 68.467 21.7008 68.5854 21.8193C68.7082 21.9336 68.8436 22.014 68.9917 22.0605C69.144 22.1071 69.3006 22.1304 69.4614 22.1304C69.9608 22.1304 70.3564 22.0352 70.6484 21.8447C70.9404 21.6501 71.1499 21.3898 71.2769 21.064C71.408 20.7339 71.4736 20.3678 71.4736 19.9658ZM78.272 21.8257V18.29C78.272 18.0192 78.217 17.7843 78.1069 17.5854C78.0011 17.3823 77.8403 17.2257 77.6245 17.1157C77.4087 17.0057 77.1421 16.9507 76.8247 16.9507C76.5285 16.9507 76.2682 17.0015 76.0439 17.103C75.8239 17.2046 75.6504 17.3379 75.5234 17.5029C75.4007 17.668 75.3394 17.8457 75.3394 18.0361H74.165C74.165 17.7907 74.2285 17.5474 74.3555 17.3062C74.4824 17.0649 74.6644 16.847 74.9014 16.6523C75.1426 16.4535 75.4303 16.2969 75.7646 16.1826C76.1032 16.0641 76.4798 16.0049 76.8945 16.0049C77.3939 16.0049 77.834 16.0895 78.2148 16.2588C78.5999 16.4281 78.9004 16.6841 79.1162 17.0269C79.3363 17.3654 79.4463 17.7907 79.4463 18.3027V21.502C79.4463 21.7305 79.4653 21.9738 79.5034 22.2319C79.5457 22.4901 79.6071 22.7122 79.6875 22.8984V23H78.4624C78.4032 22.8646 78.3566 22.6847 78.3228 22.4604C78.2889 22.2319 78.272 22.0203 78.272 21.8257ZM78.4751 18.8359L78.4878 19.6611H77.3008C76.9665 19.6611 76.6681 19.6886 76.4058 19.7437C76.1434 19.7944 75.9233 19.8727 75.7456 19.9785C75.5679 20.0843 75.4325 20.2176 75.3394 20.3784C75.2463 20.535 75.1997 20.7191 75.1997 20.9307C75.1997 21.1465 75.2484 21.3433 75.3457 21.521C75.443 21.6987 75.589 21.8405 75.7837 21.9463C75.9826 22.0479 76.2259 22.0986 76.5137 22.0986C76.8734 22.0986 77.1908 22.0225 77.4658 21.8701C77.7409 21.7178 77.9588 21.5316 78.1196 21.3115C78.2847 21.0915 78.3735 20.8778 78.3862 20.6704L78.8877 21.2354C78.8581 21.4131 78.7777 21.6099 78.6465 21.8257C78.5153 22.0415 78.3397 22.2489 78.1196 22.4478C77.9038 22.6424 77.6457 22.8053 77.3452 22.9365C77.049 23.0635 76.7147 23.127 76.3423 23.127C75.8768 23.127 75.4684 23.036 75.1172 22.854C74.7702 22.672 74.4993 22.4287 74.3047 22.124C74.1143 21.8151 74.019 21.4702 74.019 21.0894C74.019 20.7212 74.091 20.3975 74.2349 20.1182C74.3787 19.8346 74.5861 19.5998 74.8569 19.4136C75.1278 19.2231 75.4536 19.0793 75.8345 18.9819C76.2153 18.8846 76.6406 18.8359 77.1104 18.8359H78.4751ZM82.5693 13.25V23H81.3887V13.25H82.5693ZM85.7305 16.1318V23H84.5498V16.1318H85.7305ZM84.4609 14.3101C84.4609 14.1196 84.5181 13.9588 84.6323 13.8276C84.7508 13.6965 84.9243 13.6309 85.1528 13.6309C85.3771 13.6309 85.5485 13.6965 85.667 13.8276C85.7897 13.9588 85.8511 14.1196 85.8511 14.3101C85.8511 14.492 85.7897 14.6486 85.667 14.7798C85.5485 14.9067 85.3771 14.9702 85.1528 14.9702C84.9243 14.9702 84.7508 14.9067 84.6323 14.7798C84.5181 14.6486 84.4609 14.492 84.4609 14.3101ZM92.7319 22.0352V23H87.7363V22.0352H92.7319ZM92.5479 16.9634L88.0029 23H87.2856V22.1367L91.7988 16.1318H92.5479V16.9634ZM92.0273 16.1318V17.103H87.3364V16.1318H92.0273ZM98.1147 21.8257V18.29C98.1147 18.0192 98.0597 17.7843 97.9497 17.5854C97.8439 17.3823 97.6831 17.2257 97.4673 17.1157C97.2515 17.0057 96.9849 16.9507 96.6675 16.9507C96.3713 16.9507 96.111 17.0015 95.8867 17.103C95.6667 17.2046 95.4932 17.3379 95.3662 17.5029C95.2435 17.668 95.1821 17.8457 95.1821 18.0361H94.0078C94.0078 17.7907 94.0713 17.5474 94.1982 17.3062C94.3252 17.0649 94.5072 16.847 94.7441 16.6523C94.9854 16.4535 95.2731 16.2969 95.6074 16.1826C95.946 16.0641 96.3226 16.0049 96.7373 16.0049C97.2367 16.0049 97.6768 16.0895 98.0576 16.2588C98.4427 16.4281 98.7432 16.6841 98.959 17.0269C99.179 17.3654 99.2891 17.7907 99.2891 18.3027V21.502C99.2891 21.7305 99.3081 21.9738 99.3462 22.2319C99.3885 22.4901 99.4499 22.7122 99.5303 22.8984V23H98.3052C98.2459 22.8646 98.1994 22.6847 98.1655 22.4604C98.1317 22.2319 98.1147 22.0203 98.1147 21.8257ZM98.3179 18.8359L98.3306 19.6611H97.1436C96.8092 19.6611 96.5109 19.6886 96.2485 19.7437C95.9862 19.7944 95.7661 19.8727 95.5884 19.9785C95.4106 20.0843 95.2752 20.2176 95.1821 20.3784C95.089 20.535 95.0425 20.7191 95.0425 20.9307C95.0425 21.1465 95.0911 21.3433 95.1885 21.521C95.2858 21.6987 95.4318 21.8405 95.6265 21.9463C95.8254 22.0479 96.0687 22.0986 96.3564 22.0986C96.7161 22.0986 97.0335 22.0225 97.3086 21.8701C97.5837 21.7178 97.8016 21.5316 97.9624 21.3115C98.1274 21.0915 98.2163 20.8778 98.229 20.6704L98.7305 21.2354C98.7008 21.4131 98.6204 21.6099 98.4893 21.8257C98.3581 22.0415 98.1825 22.2489 97.9624 22.4478C97.7466 22.6424 97.4884 22.8053 97.188 22.9365C96.8918 23.0635 96.5575 23.127 96.1851 23.127C95.7196 23.127 95.3112 23.036 94.96 22.854C94.613 22.672 94.3421 22.4287 94.1475 22.124C93.957 21.8151 93.8618 21.4702 93.8618 21.0894C93.8618 20.7212 93.9338 20.3975 94.0776 20.1182C94.2215 19.8346 94.4289 19.5998 94.6997 19.4136C94.9705 19.2231 95.2964 19.0793 95.6772 18.9819C96.0581 18.8846 96.4834 18.8359 96.9531 18.8359H98.3179ZM102.311 17.2109V23H101.136V16.1318H102.279L102.311 17.2109ZM104.456 16.0938L104.45 17.1855C104.352 17.1644 104.259 17.1517 104.17 17.1475C104.086 17.139 103.988 17.1348 103.878 17.1348C103.608 17.1348 103.368 17.1771 103.161 17.2617C102.954 17.3464 102.778 17.4648 102.634 17.6172C102.49 17.7695 102.376 17.9515 102.292 18.1631C102.211 18.3704 102.158 18.599 102.133 18.8486L101.803 19.0391C101.803 18.6243 101.843 18.235 101.923 17.8711C102.008 17.5072 102.137 17.1855 102.311 16.9062C102.484 16.6227 102.704 16.4027 102.971 16.2461C103.242 16.0853 103.563 16.0049 103.936 16.0049C104.02 16.0049 104.118 16.0155 104.228 16.0366C104.338 16.0535 104.414 16.0726 104.456 16.0938Z" fill="black"/>
<path d="M35.4369 48.6359C35.2489 48.4381 35.0231 48.28 34.773 48.1708C34.5229 48.0617 34.2534 48.0036 33.9805 48.0002C33.7076 47.9967 33.4368 48.0479 33.184 48.1507C32.9312 48.2535 32.7015 48.4059 32.5085 48.5988L26.0623 55.0446C25.837 55.2699 25.6805 55.5546 25.6113 55.8656L25.0082 58.5814C24.9957 58.6379 24.9975 58.6966 25.0136 58.7521C25.0298 58.8076 25.0596 58.8582 25.1005 58.8991C25.1413 58.94 25.1919 58.97 25.2474 58.9862C25.3029 59.0024 25.3616 59.0044 25.418 58.9919L28.1182 58.3917C28.4396 58.3201 28.734 58.1584 28.9667 57.9255L35.4012 51.4913C35.7783 51.114 35.9932 50.6043 35.9998 50.0709C36.0065 49.5375 35.8045 49.0225 35.4369 48.6359ZM32.9946 49.0849C33.1204 48.9573 33.2702 48.8559 33.4353 48.7864C33.6004 48.717 33.7777 48.6809 33.9569 48.6803C34.136 48.6796 34.3135 48.7144 34.4792 48.7827C34.6448 48.8509 34.7953 48.9513 34.922 49.078C35.0486 49.2046 35.149 49.3551 35.2173 49.5208C35.2855 49.6864 35.3203 49.8639 35.3197 50.043C35.3191 50.2222 35.283 50.3994 35.2135 50.5646C35.1441 50.7297 35.0426 50.8795 34.9151 51.0052L34.4537 51.4666L32.5332 49.5469L32.9946 49.0849ZM32.0471 50.0337L33.9676 51.9534L28.4806 57.4401C28.3403 57.5806 28.1628 57.6781 27.969 57.7213L25.7962 58.2039L26.283 56.0155C26.3236 55.8319 26.4157 55.6641 26.5484 55.5314L32.0471 50.0337Z" fill="black"/>
<path d="M54.9443 57.0034V58H50.0503V57.0034H54.9443ZM50.2979 48.7578V58H49.0728V48.7578H50.2979ZM54.2969 52.7314V53.728H50.0503V52.7314H54.2969ZM54.8809 48.7578V49.7607H50.0503V48.7578H54.8809ZM60.4858 56.667V48.25H61.6665V58H60.5874L60.4858 56.667ZM55.8647 54.6421V54.5088C55.8647 53.984 55.9282 53.508 56.0552 53.0806C56.1864 52.6489 56.3704 52.2786 56.6074 51.9697C56.8486 51.6608 57.1343 51.4238 57.4644 51.2588C57.7987 51.0895 58.1711 51.0049 58.5815 51.0049C59.0132 51.0049 59.3898 51.0811 59.7114 51.2334C60.0373 51.3815 60.3123 51.5994 60.5366 51.8872C60.7651 52.1707 60.945 52.5135 61.0762 52.9155C61.2074 53.3175 61.2983 53.7725 61.3491 54.2803V54.8643C61.3026 55.3678 61.2116 55.8206 61.0762 56.2227C60.945 56.6247 60.7651 56.9674 60.5366 57.251C60.3123 57.5345 60.0373 57.7524 59.7114 57.9048C59.3856 58.0529 59.0047 58.127 58.5688 58.127C58.1668 58.127 57.7987 58.0402 57.4644 57.8667C57.1343 57.6932 56.8486 57.4499 56.6074 57.1367C56.3704 56.8236 56.1864 56.4554 56.0552 56.0322C55.9282 55.6048 55.8647 55.1414 55.8647 54.6421ZM57.0454 54.5088V54.6421C57.0454 54.9849 57.0793 55.3065 57.147 55.6069C57.2189 55.9074 57.3289 56.1719 57.4771 56.4004C57.6252 56.6289 57.8135 56.8088 58.042 56.9399C58.2705 57.0669 58.5435 57.1304 58.8608 57.1304C59.2502 57.1304 59.5697 57.0479 59.8193 56.8828C60.0732 56.7178 60.2764 56.4998 60.4287 56.229C60.5811 55.9582 60.6995 55.6641 60.7842 55.3467V53.8169C60.7334 53.5841 60.6593 53.3599 60.562 53.144C60.4689 52.924 60.3462 52.7293 60.1938 52.5601C60.0457 52.3866 59.8617 52.249 59.6416 52.1475C59.4258 52.0459 59.1698 51.9951 58.8735 51.9951C58.5519 51.9951 58.2747 52.0628 58.042 52.1982C57.8135 52.3294 57.6252 52.5114 57.4771 52.7441C57.3289 52.9727 57.2189 53.2393 57.147 53.5439C57.0793 53.8444 57.0454 54.166 57.0454 54.5088ZM64.7705 51.1318V58H63.5898V51.1318H64.7705ZM63.501 49.3101C63.501 49.1196 63.5581 48.9588 63.6724 48.8276C63.7909 48.6965 63.9644 48.6309 64.1929 48.6309C64.4172 48.6309 64.5885 48.6965 64.707 48.8276C64.8298 48.9588 64.8911 49.1196 64.8911 49.3101C64.8911 49.492 64.8298 49.6486 64.707 49.7798C64.5885 49.9067 64.4172 49.9702 64.1929 49.9702C63.9644 49.9702 63.7909 49.9067 63.6724 49.7798C63.5581 49.6486 63.501 49.492 63.501 49.3101ZM69.5312 51.1318V52.0332H65.8179V51.1318H69.5312ZM67.0747 49.4624H68.249V56.2988C68.249 56.5316 68.285 56.7072 68.3569 56.8257C68.4289 56.9442 68.522 57.0225 68.6362 57.0605C68.7505 57.0986 68.8732 57.1177 69.0044 57.1177C69.1017 57.1177 69.2033 57.1092 69.3091 57.0923C69.4191 57.0711 69.5016 57.0542 69.5566 57.0415L69.563 58C69.4699 58.0296 69.3472 58.0571 69.1948 58.0825C69.0467 58.1121 68.8669 58.127 68.6553 58.127C68.3675 58.127 68.103 58.0698 67.8618 57.9556C67.6206 57.8413 67.4281 57.6509 67.2842 57.3843C67.1445 57.1134 67.0747 56.7495 67.0747 56.2925V49.4624ZM74.9585 56.8257V53.29C74.9585 53.0192 74.9035 52.7843 74.7935 52.5854C74.6877 52.3823 74.5269 52.2257 74.311 52.1157C74.0952 52.0057 73.8286 51.9507 73.5112 51.9507C73.215 51.9507 72.9548 52.0015 72.7305 52.103C72.5104 52.2046 72.3369 52.3379 72.21 52.5029C72.0872 52.668 72.0259 52.8457 72.0259 53.0361H70.8516C70.8516 52.7907 70.915 52.5474 71.042 52.3062C71.1689 52.0649 71.3509 51.847 71.5879 51.6523C71.8291 51.4535 72.1169 51.2969 72.4512 51.1826C72.7897 51.0641 73.1663 51.0049 73.5811 51.0049C74.0804 51.0049 74.5205 51.0895 74.9014 51.2588C75.2865 51.4281 75.5869 51.6841 75.8027 52.0269C76.0228 52.3654 76.1328 52.7907 76.1328 53.3027V56.502C76.1328 56.7305 76.1519 56.9738 76.1899 57.2319C76.2323 57.4901 76.2936 57.7122 76.374 57.8984V58H75.1489C75.0897 57.8646 75.0431 57.6847 75.0093 57.4604C74.9754 57.2319 74.9585 57.0203 74.9585 56.8257ZM75.1616 53.8359L75.1743 54.6611H73.9873C73.653 54.6611 73.3547 54.6886 73.0923 54.7437C72.8299 54.7944 72.6099 54.8727 72.4321 54.9785C72.2544 55.0843 72.119 55.2176 72.0259 55.3784C71.9328 55.535 71.8862 55.7191 71.8862 55.9307C71.8862 56.1465 71.9349 56.3433 72.0322 56.521C72.1296 56.6987 72.2756 56.8405 72.4702 56.9463C72.6691 57.0479 72.9124 57.0986 73.2002 57.0986C73.5599 57.0986 73.8773 57.0225 74.1523 56.8701C74.4274 56.7178 74.6453 56.5316 74.8062 56.3115C74.9712 56.0915 75.0601 55.8778 75.0728 55.6704L75.5742 56.2354C75.5446 56.4131 75.4642 56.6099 75.333 56.8257C75.2018 57.0415 75.0262 57.2489 74.8062 57.4478C74.5903 57.6424 74.3322 57.8053 74.0317 57.9365C73.7355 58.0635 73.4012 58.127 73.0288 58.127C72.5633 58.127 72.1549 58.036 71.8037 57.854C71.4567 57.672 71.1859 57.4287 70.9912 57.124C70.8008 56.8151 70.7056 56.4702 70.7056 56.0894C70.7056 55.7212 70.7775 55.3975 70.9214 55.1182C71.0653 54.8346 71.2726 54.5998 71.5435 54.4136C71.8143 54.2231 72.1401 54.0793 72.521 53.9819C72.9019 53.8846 73.3271 53.8359 73.7969 53.8359H75.1616ZM79.1543 52.2109V58H77.98V51.1318H79.1226L79.1543 52.2109ZM81.2998 51.0938L81.2935 52.1855C81.1961 52.1644 81.103 52.1517 81.0142 52.1475C80.9295 52.139 80.8322 52.1348 80.7222 52.1348C80.4513 52.1348 80.2122 52.1771 80.0049 52.2617C79.7975 52.3464 79.6219 52.4648 79.478 52.6172C79.3341 52.7695 79.2199 52.9515 79.1353 53.1631C79.0549 53.3704 79.002 53.599 78.9766 53.8486L78.6465 54.0391C78.6465 53.6243 78.6867 53.235 78.7671 52.8711C78.8517 52.5072 78.9808 52.1855 79.1543 51.9062C79.3278 51.6227 79.5479 51.4027 79.8145 51.2461C80.0853 51.0853 80.4069 51.0049 80.7793 51.0049C80.8639 51.0049 80.9613 51.0155 81.0713 51.0366C81.1813 51.0535 81.2575 51.0726 81.2998 51.0938Z" fill="black"/>
<mask id="path-10-inside-2_9_4970" fill="white">
<path d="M2 71H125V106H2V71Z"/>
</mask>
<path d="M2 72H125V70H2V72Z" fill="black" fill-opacity="0.1" mask="url(#path-10-inside-2_9_4970)"/>
<g clip-path="url(#clip3_9_4970)">
<path d="M30.6913 87.7V92.5M27.5308 87.7V92.5M24.3703 84.5V94.1C24.3703 94.5243 24.5368 94.9313 24.8332 95.2314C25.1295 95.5314 25.5315 95.7 25.9506 95.7H32.2716C32.6907 95.7 33.0926 95.5314 33.389 95.2314C33.6853 94.9313 33.8518 94.5243 33.8518 94.1V84.5M22.7901 84.5H35.4321M25.1605 84.5L26.7407 81.3H31.4815L33.0617 84.5" stroke="#FF0000" stroke-linecap="round" stroke-linejoin="round"/>
</g>
<path d="M45.0728 83.7578H48.1323C48.8263 83.7578 49.4124 83.8636 49.8906 84.0752C50.373 84.2868 50.7391 84.5999 50.9888 85.0146C51.2427 85.4251 51.3696 85.9308 51.3696 86.5317C51.3696 86.9549 51.2829 87.3421 51.1094 87.6934C50.9401 88.0404 50.6947 88.3366 50.373 88.582C50.0557 88.8232 49.6748 89.0031 49.2305 89.1216L48.8877 89.2549H46.0122L45.9995 88.2583H48.1704C48.6105 88.2583 48.9766 88.1821 49.2686 88.0298C49.5605 87.8732 49.7806 87.6637 49.9287 87.4014C50.0768 87.139 50.1509 86.8491 50.1509 86.5317C50.1509 86.1763 50.0811 85.8652 49.9414 85.5986C49.8018 85.332 49.5817 85.1268 49.2812 84.9829C48.985 84.8348 48.6021 84.7607 48.1323 84.7607H46.2979V93H45.0728V83.7578ZM50.4746 93L48.2275 88.8105L49.5034 88.8042L51.7822 92.9238V93H50.4746ZM55.7559 93.127C55.2777 93.127 54.8439 93.0465 54.4546 92.8857C54.0695 92.7207 53.7373 92.4901 53.458 92.1938C53.1829 91.8976 52.9714 91.5464 52.8232 91.1401C52.6751 90.7339 52.6011 90.2896 52.6011 89.8071V89.5405C52.6011 88.9819 52.6836 88.4847 52.8486 88.0488C53.0137 87.6087 53.238 87.2363 53.5215 86.9316C53.805 86.627 54.1266 86.3963 54.4863 86.2397C54.846 86.0832 55.2184 86.0049 55.6035 86.0049C56.0944 86.0049 56.5176 86.0895 56.873 86.2588C57.2327 86.4281 57.5269 86.665 57.7554 86.9697C57.9839 87.2702 58.1532 87.6257 58.2632 88.0361C58.3732 88.4424 58.4282 88.8867 58.4282 89.3691V89.896H53.2993V88.9375H57.2539V88.8486C57.237 88.5439 57.1735 88.2477 57.0635 87.96C56.9577 87.6722 56.7884 87.4352 56.5557 87.249C56.3229 87.0628 56.0055 86.9697 55.6035 86.9697C55.3369 86.9697 55.0915 87.0269 54.8672 87.1411C54.6429 87.2511 54.4504 87.4162 54.2896 87.6362C54.1287 87.8563 54.0039 88.125 53.915 88.4424C53.8262 88.7598 53.7817 89.1258 53.7817 89.5405V89.8071C53.7817 90.133 53.8262 90.4398 53.915 90.7275C54.0081 91.0111 54.1414 91.2607 54.3149 91.4766C54.4927 91.6924 54.7064 91.8617 54.9561 91.9844C55.21 92.1071 55.4977 92.1685 55.8193 92.1685C56.234 92.1685 56.5853 92.0838 56.873 91.9146C57.1608 91.7453 57.4126 91.5189 57.6284 91.2354L58.3394 91.8003C58.1912 92.0246 58.0029 92.2383 57.7744 92.4414C57.5459 92.6445 57.2645 92.8096 56.9302 92.9365C56.6001 93.0635 56.2087 93.127 55.7559 93.127ZM60.9673 87.4966V93H59.7866V86.1318H60.9038L60.9673 87.4966ZM60.7261 89.3057L60.1802 89.2866C60.1844 88.8169 60.2458 88.3831 60.3643 87.9854C60.4827 87.5833 60.6584 87.2342 60.8911 86.938C61.1239 86.6418 61.4137 86.4132 61.7607 86.2524C62.1077 86.0874 62.5098 86.0049 62.9668 86.0049C63.2884 86.0049 63.5846 86.0514 63.8555 86.1445C64.1263 86.2334 64.3612 86.3752 64.5601 86.5698C64.759 86.7645 64.9134 87.0142 65.0234 87.3188C65.1335 87.6235 65.1885 87.9917 65.1885 88.4233V93H64.0142V88.4805C64.0142 88.1208 63.9528 87.833 63.8301 87.6172C63.7116 87.4014 63.5423 87.2448 63.3223 87.1475C63.1022 87.0459 62.8441 86.9951 62.5479 86.9951C62.2008 86.9951 61.911 87.0565 61.6782 87.1792C61.4455 87.3019 61.2593 87.4712 61.1196 87.687C60.98 87.9028 60.8784 88.1504 60.8149 88.4297C60.7557 88.7048 60.7261 88.9967 60.7261 89.3057ZM65.1758 88.6582L64.3887 88.8994C64.3929 88.5228 64.4543 88.161 64.5728 87.814C64.6955 87.467 64.8711 87.158 65.0996 86.8872C65.3324 86.6164 65.618 86.4027 65.9565 86.2461C66.2951 86.0853 66.6823 86.0049 67.1182 86.0049C67.4863 86.0049 67.8122 86.0535 68.0957 86.1509C68.3835 86.2482 68.6247 86.3984 68.8193 86.6016C69.0182 86.8005 69.1685 87.0565 69.27 87.3696C69.3716 87.6828 69.4224 88.0552 69.4224 88.4868V93H68.2417V88.4741C68.2417 88.089 68.1803 87.7907 68.0576 87.5791C67.9391 87.3633 67.7699 87.2131 67.5498 87.1284C67.334 87.0396 67.0758 86.9951 66.7754 86.9951C66.5173 86.9951 66.2887 87.0396 66.0898 87.1284C65.891 87.2173 65.7238 87.34 65.5884 87.4966C65.453 87.6489 65.3493 87.8245 65.2773 88.0234C65.2096 88.2223 65.1758 88.4339 65.1758 88.6582ZM70.8887 89.6421V89.4961C70.8887 89.001 70.9606 88.5418 71.1045 88.1187C71.2484 87.6912 71.4557 87.321 71.7266 87.0078C71.9974 86.6904 72.3254 86.445 72.7104 86.2715C73.0955 86.0938 73.5272 86.0049 74.0054 86.0049C74.4878 86.0049 74.9215 86.0938 75.3066 86.2715C75.696 86.445 76.026 86.6904 76.2969 87.0078C76.5719 87.321 76.7814 87.6912 76.9253 88.1187C77.0692 88.5418 77.1411 89.001 77.1411 89.4961V89.6421C77.1411 90.1372 77.0692 90.5964 76.9253 91.0195C76.7814 91.4427 76.5719 91.813 76.2969 92.1304C76.026 92.4435 75.6981 92.689 75.313 92.8667C74.9321 93.0402 74.5005 93.127 74.0181 93.127C73.5356 93.127 73.1019 93.0402 72.7168 92.8667C72.3317 92.689 72.0016 92.4435 71.7266 92.1304C71.4557 91.813 71.2484 91.4427 71.1045 91.0195C70.9606 90.5964 70.8887 90.1372 70.8887 89.6421ZM72.063 89.4961V89.6421C72.063 89.9849 72.1032 90.3086 72.1836 90.6133C72.264 90.9137 72.3846 91.1803 72.5454 91.4131C72.7104 91.6458 72.9157 91.8299 73.1611 91.9653C73.4066 92.0965 73.6922 92.1621 74.0181 92.1621C74.3397 92.1621 74.6211 92.0965 74.8623 91.9653C75.1077 91.8299 75.3109 91.6458 75.4717 91.4131C75.6325 91.1803 75.7531 90.9137 75.8335 90.6133C75.9181 90.3086 75.9604 89.9849 75.9604 89.6421V89.4961C75.9604 89.1576 75.9181 88.8381 75.8335 88.5376C75.7531 88.2329 75.6304 87.9642 75.4653 87.7314C75.3045 87.4945 75.1014 87.3083 74.856 87.1729C74.6147 87.0374 74.3312 86.9697 74.0054 86.9697C73.6838 86.9697 73.4002 87.0374 73.1548 87.1729C72.9136 87.3083 72.7104 87.4945 72.5454 87.7314C72.3846 87.9642 72.264 88.2329 72.1836 88.5376C72.1032 88.8381 72.063 89.1576 72.063 89.4961ZM80.6006 91.9399L82.4795 86.1318H83.6792L81.21 93H80.4229L80.6006 91.9399ZM79.0327 86.1318L80.9688 91.9717L81.1021 93H80.3149L77.8267 86.1318H79.0327ZM87.5703 93.127C87.0921 93.127 86.6584 93.0465 86.269 92.8857C85.884 92.7207 85.5518 92.4901 85.2725 92.1938C84.9974 91.8976 84.7858 91.5464 84.6377 91.1401C84.4896 90.7339 84.4155 90.2896 84.4155 89.8071V89.5405C84.4155 88.9819 84.498 88.4847 84.6631 88.0488C84.8281 87.6087 85.0524 87.2363 85.3359 86.9316C85.6195 86.627 85.9411 86.3963 86.3008 86.2397C86.6605 86.0832 87.0329 86.0049 87.418 86.0049C87.9089 86.0049 88.332 86.0895 88.6875 86.2588C89.0472 86.4281 89.3413 86.665 89.5698 86.9697C89.7983 87.2702 89.9676 87.6257 90.0776 88.0361C90.1877 88.4424 90.2427 88.8867 90.2427 89.3691V89.896H85.1138V88.9375H89.0684V88.8486C89.0514 88.5439 88.988 88.2477 88.8779 87.96C88.7721 87.6722 88.6029 87.4352 88.3701 87.249C88.1374 87.0628 87.82 86.9697 87.418 86.9697C87.1514 86.9697 86.9059 87.0269 86.6816 87.1411C86.4574 87.2511 86.2648 87.4162 86.104 87.6362C85.9432 87.8563 85.8184 88.125 85.7295 88.4424C85.6406 88.7598 85.5962 89.1258 85.5962 89.5405V89.8071C85.5962 90.133 85.6406 90.4398 85.7295 90.7275C85.8226 91.0111 85.9559 91.2607 86.1294 91.4766C86.3071 91.6924 86.5208 91.8617 86.7705 91.9844C87.0244 92.1071 87.3122 92.1685 87.6338 92.1685C88.0485 92.1685 88.3997 92.0838 88.6875 91.9146C88.9753 91.7453 89.2271 91.5189 89.4429 91.2354L90.1538 91.8003C90.0057 92.0246 89.8174 92.2383 89.5889 92.4414C89.3604 92.6445 89.0789 92.8096 88.7446 92.9365C88.4146 93.0635 88.0231 93.127 87.5703 93.127ZM92.7881 87.2109V93H91.6138V86.1318H92.7563L92.7881 87.2109ZM94.9336 86.0938L94.9272 87.1855C94.8299 87.1644 94.7368 87.1517 94.6479 87.1475C94.5633 87.139 94.466 87.1348 94.356 87.1348C94.0851 87.1348 93.846 87.1771 93.6387 87.2617C93.4313 87.3464 93.2557 87.4648 93.1118 87.6172C92.9679 87.7695 92.8537 87.9515 92.769 88.1631C92.6886 88.3704 92.6357 88.599 92.6104 88.8486L92.2803 89.0391C92.2803 88.6243 92.3205 88.235 92.4009 87.8711C92.4855 87.5072 92.6146 87.1855 92.7881 86.9062C92.9616 86.6227 93.1816 86.4027 93.4482 86.2461C93.7191 86.0853 94.0407 86.0049 94.4131 86.0049C94.4977 86.0049 94.5951 86.0155 94.7051 86.0366C94.8151 86.0535 94.8913 86.0726 94.9336 86.0938Z" fill="#FF0000"/>
</g>
<rect x="1.5" y="0.5" width="124" height="106" rx="15.5" stroke="black" stroke-opacity="0.05" shape-rendering="crispEdges"/>
</g>
</g>
<defs>
<filter id="filter0_d_9_4970" x="-3" y="0" width="133" height="115" filterUnits="userSpaceOnUse" color-interpolation-filters="sRGB">
<feFlood flood-opacity="0" result="BackgroundImageFix"/>
<feColorMatrix in="SourceAlpha" type="matrix" values="0 0 0 0 0 0 0 0 0 0 0 0 0 0 0 0 0 0 127 0" result="hardAlpha"/>
<feOffset dy="4"/>
<feGaussianBlur stdDeviation="2"/>
<feComposite in2="hardAlpha" operator="out"/>
<feColorMatrix type="matrix" values="0 0 0 0 0 0 0 0 0 0 0 0 0 0 0 0 0 0 0.05 0"/>
<feBlend mode="normal" in2="BackgroundImageFix" result="effect1_dropShadow_9_4970"/>
<feBlend mode="normal" in="SourceGraphic" in2="effect1_dropShadow_9_4970" result="shape"/>
</filter>
<clipPath id="clip0_9_4970">
<rect width="132" height="142" fill="white"/>
</clipPath>
<clipPath id="clip1_9_4970">
<rect x="2" y="1" width="123" height="105" rx="15" fill="white"/>
</clipPath>
<clipPath id="clip2_9_4970">
<rect width="16" height="16" fill="white" transform="translate(22 10.5)"/>
</clipPath>
<clipPath id="clip3_9_4970">
<rect width="14" height="16" fill="white" transform="translate(22 80.5)"/>
</clipPath>
</defs>
</svg>
