<svg width="368" height="40" viewBox="0 0 368 40" fill="none" xmlns="http://www.w3.org/2000/svg">
<g clip-path="url(#clip0_143_27804)">
<rect width="368" height="40" rx="20" fill="white"/>
<rect width="187" height="40" rx="20" fill="#FEA501"/>
<path d="M21.5869 15.2578H23.0088L25.6812 22.3862L28.3472 15.2578H29.769L26.2397 24.5H25.1099L21.5869 15.2578ZM20.9395 15.2578H22.2915L22.5264 21.4277V24.5H20.9395V15.2578ZM29.0645 15.2578H30.4229V24.5H28.8296V21.4277L29.0645 15.2578ZM31.8701 21.1421V20.9961C31.8701 20.501 31.9421 20.0418 32.0859 19.6187C32.2298 19.1912 32.4372 18.821 32.708 18.5078C32.9831 18.1904 33.3174 17.945 33.7109 17.7715C34.1087 17.5938 34.5573 17.5049 35.0566 17.5049C35.5602 17.5049 36.0088 17.5938 36.4023 17.7715C36.8001 17.945 37.1366 18.1904 37.4116 18.5078C37.6867 18.821 37.8962 19.1912 38.04 19.6187C38.1839 20.0418 38.2559 20.501 38.2559 20.9961V21.1421C38.2559 21.6372 38.1839 22.0964 38.04 22.5195C37.8962 22.9427 37.6867 23.313 37.4116 23.6304C37.1366 23.9435 36.8022 24.189 36.4087 24.3667C36.0151 24.5402 35.5687 24.627 35.0693 24.627C34.5658 24.627 34.1151 24.5402 33.7173 24.3667C33.3237 24.189 32.9894 23.9435 32.7144 23.6304C32.4393 23.313 32.2298 22.9427 32.0859 22.5195C31.9421 22.0964 31.8701 21.6372 31.8701 21.1421ZM33.3999 20.9961V21.1421C33.3999 21.451 33.4316 21.743 33.4951 22.0181C33.5586 22.2931 33.658 22.5343 33.7935 22.7417C33.9289 22.9491 34.1024 23.112 34.314 23.2305C34.5256 23.349 34.7773 23.4082 35.0693 23.4082C35.3529 23.4082 35.5983 23.349 35.8057 23.2305C36.0173 23.112 36.1908 22.9491 36.3262 22.7417C36.4616 22.5343 36.561 22.2931 36.6245 22.0181C36.6922 21.743 36.7261 21.451 36.7261 21.1421V20.9961C36.7261 20.6914 36.6922 20.4036 36.6245 20.1328C36.561 19.8577 36.4595 19.6144 36.3198 19.4028C36.1844 19.1912 36.0109 19.0262 35.7993 18.9077C35.592 18.785 35.3444 18.7236 35.0566 18.7236C34.7689 18.7236 34.5192 18.785 34.3076 18.9077C34.1003 19.0262 33.9289 19.1912 33.7935 19.4028C33.658 19.6144 33.5586 19.8577 33.4951 20.1328C33.4316 20.4036 33.3999 20.6914 33.3999 20.9961ZM43.7275 23.0781V14.75H45.2637V24.5H43.8735L43.7275 23.0781ZM39.2588 21.1421V21.0088C39.2588 20.4883 39.3201 20.0143 39.4429 19.5869C39.5656 19.1553 39.7433 18.785 39.9761 18.4761C40.2088 18.1629 40.4924 17.9238 40.8267 17.7588C41.161 17.5895 41.5376 17.5049 41.9565 17.5049C42.3713 17.5049 42.7352 17.5853 43.0483 17.7461C43.3615 17.9069 43.6281 18.1375 43.8481 18.438C44.0682 18.7342 44.2438 19.0897 44.375 19.5044C44.5062 19.9149 44.5993 20.3719 44.6543 20.8755V21.3008C44.5993 21.7917 44.5062 22.2402 44.375 22.6465C44.2438 23.0527 44.0682 23.404 43.8481 23.7002C43.6281 23.9964 43.3594 24.2249 43.042 24.3857C42.7288 24.5465 42.3628 24.627 41.9438 24.627C41.5291 24.627 41.1546 24.5402 40.8203 24.3667C40.4902 24.1932 40.2088 23.9499 39.9761 23.6367C39.7433 23.3236 39.5656 22.9554 39.4429 22.5322C39.3201 22.1048 39.2588 21.6414 39.2588 21.1421ZM40.7886 21.0088V21.1421C40.7886 21.4552 40.8161 21.7472 40.8711 22.0181C40.9303 22.2889 41.0213 22.528 41.144 22.7354C41.2668 22.9385 41.4255 23.0993 41.6201 23.2178C41.819 23.332 42.056 23.3892 42.3311 23.3892C42.6781 23.3892 42.9637 23.313 43.188 23.1606C43.4123 23.0083 43.5879 22.8031 43.7148 22.5449C43.846 22.2826 43.9349 21.9906 43.9814 21.6689V20.52C43.9561 20.2703 43.9032 20.0376 43.8228 19.8218C43.7466 19.606 43.6429 19.4176 43.5117 19.2568C43.3805 19.0918 43.2176 18.9648 43.0229 18.876C42.8325 18.7829 42.6061 18.7363 42.3438 18.7363C42.0645 18.7363 41.8275 18.7956 41.6328 18.9141C41.4382 19.0326 41.2773 19.1955 41.1504 19.4028C41.0277 19.6102 40.9367 19.8514 40.8774 20.1265C40.8182 20.4015 40.7886 20.6956 40.7886 21.0088ZM50.7354 23.1226V19.8472C50.7354 19.6017 50.6909 19.3901 50.6021 19.2124C50.5132 19.0347 50.3778 18.8971 50.1958 18.7998C50.0181 18.7025 49.7938 18.6538 49.5229 18.6538C49.2733 18.6538 49.0575 18.6961 48.8755 18.7808C48.6935 18.8654 48.5518 18.9797 48.4502 19.1235C48.3486 19.2674 48.2979 19.4303 48.2979 19.6123H46.7744C46.7744 19.3415 46.84 19.0791 46.9712 18.8252C47.1024 18.5713 47.2928 18.3449 47.5425 18.146C47.7922 17.9471 48.0905 17.7905 48.4375 17.6763C48.7845 17.562 49.1738 17.5049 49.6055 17.5049C50.1217 17.5049 50.5788 17.5916 50.9766 17.7651C51.3786 17.9386 51.6938 18.201 51.9224 18.5522C52.1551 18.8993 52.2715 19.3351 52.2715 19.8599V22.9131C52.2715 23.2262 52.2926 23.5076 52.335 23.7573C52.3815 24.0028 52.4471 24.2165 52.5317 24.3984V24.5H50.9639C50.8919 24.335 50.8348 24.1255 50.7925 23.8716C50.7544 23.6134 50.7354 23.3638 50.7354 23.1226ZM50.9575 20.3232L50.9702 21.269H49.8721C49.5885 21.269 49.3389 21.2965 49.123 21.3516C48.9072 21.4023 48.7274 21.4785 48.5835 21.5801C48.4396 21.6816 48.3317 21.8044 48.2598 21.9482C48.1878 22.0921 48.1519 22.255 48.1519 22.437C48.1519 22.619 48.1942 22.7861 48.2788 22.9385C48.3634 23.0866 48.4862 23.203 48.647 23.2876C48.812 23.3722 49.0109 23.4146 49.2437 23.4146C49.5568 23.4146 49.8298 23.3511 50.0625 23.2241C50.2995 23.0929 50.4857 22.9342 50.6211 22.748C50.7565 22.5576 50.8285 22.3778 50.8369 22.2085L51.332 22.8877C51.2812 23.0612 51.1945 23.2474 51.0718 23.4463C50.9491 23.6452 50.7882 23.8356 50.5894 24.0176C50.3947 24.1953 50.1598 24.3413 49.8848 24.4556C49.6139 24.5698 49.3008 24.627 48.9453 24.627C48.4967 24.627 48.0968 24.5381 47.7456 24.3604C47.3944 24.1784 47.1193 23.9351 46.9204 23.6304C46.7215 23.3215 46.6221 22.9723 46.6221 22.583C46.6221 22.2191 46.6898 21.8975 46.8252 21.6182C46.9648 21.3346 47.168 21.0977 47.4346 20.9072C47.7054 20.7168 48.0355 20.5729 48.4248 20.4756C48.8141 20.374 49.2585 20.3232 49.7578 20.3232H50.9575ZM55.5088 14.75V24.5H53.9727V14.75H55.5088ZM58.8223 17.6318V24.5H57.2861V17.6318H58.8223ZM57.1846 15.8291C57.1846 15.5964 57.2607 15.4038 57.4131 15.2515C57.5697 15.0949 57.7855 15.0166 58.0605 15.0166C58.3314 15.0166 58.5451 15.0949 58.7017 15.2515C58.8582 15.4038 58.9365 15.5964 58.9365 15.8291C58.9365 16.0576 58.8582 16.248 58.7017 16.4004C58.5451 16.5527 58.3314 16.6289 58.0605 16.6289C57.7855 16.6289 57.5697 16.5527 57.4131 16.4004C57.2607 16.248 57.1846 16.0576 57.1846 15.8291ZM64.6875 23.0781V14.75H66.2236V24.5H64.8335L64.6875 23.0781ZM60.2188 21.1421V21.0088C60.2188 20.4883 60.2801 20.0143 60.4028 19.5869C60.5256 19.1553 60.7033 18.785 60.936 18.4761C61.1688 18.1629 61.4523 17.9238 61.7866 17.7588C62.1209 17.5895 62.4976 17.5049 62.9165 17.5049C63.3312 17.5049 63.6951 17.5853 64.0083 17.7461C64.3215 17.9069 64.5881 18.1375 64.8081 18.438C65.0282 18.7342 65.2038 19.0897 65.335 19.5044C65.4661 19.9149 65.5592 20.3719 65.6143 20.8755V21.3008C65.5592 21.7917 65.4661 22.2402 65.335 22.6465C65.2038 23.0527 65.0282 23.404 64.8081 23.7002C64.5881 23.9964 64.3193 24.2249 64.002 24.3857C63.6888 24.5465 63.3228 24.627 62.9038 24.627C62.4891 24.627 62.1146 24.5402 61.7803 24.3667C61.4502 24.1932 61.1688 23.9499 60.936 23.6367C60.7033 23.3236 60.5256 22.9554 60.4028 22.5322C60.2801 22.1048 60.2188 21.6414 60.2188 21.1421ZM61.7485 21.0088V21.1421C61.7485 21.4552 61.776 21.7472 61.8311 22.0181C61.8903 22.2889 61.9813 22.528 62.104 22.7354C62.2267 22.9385 62.3854 23.0993 62.5801 23.2178C62.779 23.332 63.016 23.3892 63.291 23.3892C63.638 23.3892 63.9237 23.313 64.1479 23.1606C64.3722 23.0083 64.5479 22.8031 64.6748 22.5449C64.806 22.2826 64.8949 21.9906 64.9414 21.6689V20.52C64.916 20.2703 64.8631 20.0376 64.7827 19.8218C64.7065 19.606 64.6029 19.4176 64.4717 19.2568C64.3405 19.0918 64.1776 18.9648 63.9829 18.876C63.7925 18.7829 63.5661 18.7363 63.3037 18.7363C63.0244 18.7363 62.7874 18.7956 62.5928 18.9141C62.3981 19.0326 62.2373 19.1955 62.1104 19.4028C61.9876 19.6102 61.8966 19.8514 61.8374 20.1265C61.7782 20.4015 61.7485 20.6956 61.7485 21.0088ZM71.6953 23.1226V19.8472C71.6953 19.6017 71.6509 19.3901 71.562 19.2124C71.4731 19.0347 71.3377 18.8971 71.1558 18.7998C70.978 18.7025 70.7537 18.6538 70.4829 18.6538C70.2332 18.6538 70.0174 18.6961 69.8354 18.7808C69.6535 18.8654 69.5117 18.9797 69.4102 19.1235C69.3086 19.2674 69.2578 19.4303 69.2578 19.6123H67.7344C67.7344 19.3415 67.8 19.0791 67.9312 18.8252C68.0623 18.5713 68.2528 18.3449 68.5024 18.146C68.7521 17.9471 69.0505 17.7905 69.3975 17.6763C69.7445 17.562 70.1338 17.5049 70.5654 17.5049C71.0817 17.5049 71.5387 17.5916 71.9365 17.7651C72.3385 17.9386 72.6538 18.201 72.8823 18.5522C73.1151 18.8993 73.2314 19.3351 73.2314 19.8599V22.9131C73.2314 23.2262 73.2526 23.5076 73.2949 23.7573C73.3415 24.0028 73.4071 24.2165 73.4917 24.3984V24.5H71.9238C71.8519 24.335 71.7948 24.1255 71.7524 23.8716C71.7144 23.6134 71.6953 23.3638 71.6953 23.1226ZM71.9175 20.3232L71.9302 21.269H70.832C70.5485 21.269 70.2988 21.2965 70.083 21.3516C69.8672 21.4023 69.6873 21.4785 69.5435 21.5801C69.3996 21.6816 69.2917 21.8044 69.2197 21.9482C69.1478 22.0921 69.1118 22.255 69.1118 22.437C69.1118 22.619 69.1541 22.7861 69.2388 22.9385C69.3234 23.0866 69.4461 23.203 69.6069 23.2876C69.772 23.3722 69.9709 23.4146 70.2036 23.4146C70.5168 23.4146 70.7897 23.3511 71.0225 23.2241C71.2594 23.0929 71.4456 22.9342 71.5811 22.748C71.7165 22.5576 71.7884 22.3778 71.7969 22.2085L72.292 22.8877C72.2412 23.0612 72.1545 23.2474 72.0317 23.4463C71.909 23.6452 71.7482 23.8356 71.5493 24.0176C71.3547 24.1953 71.1198 24.3413 70.8447 24.4556C70.5739 24.5698 70.2607 24.627 69.9053 24.627C69.4567 24.627 69.0568 24.5381 68.7056 24.3604C68.3543 24.1784 68.0793 23.9351 67.8804 23.6304C67.6815 23.3215 67.582 22.9723 67.582 22.583C67.582 22.2191 67.6497 21.8975 67.7852 21.6182C67.9248 21.3346 68.1279 21.0977 68.3945 20.9072C68.6654 20.7168 68.9954 20.5729 69.3848 20.4756C69.7741 20.374 70.2184 20.3232 70.7178 20.3232H71.9175ZM79.0205 23.0781V14.75H80.5566V24.5H79.1665L79.0205 23.0781ZM74.5518 21.1421V21.0088C74.5518 20.4883 74.6131 20.0143 74.7358 19.5869C74.8586 19.1553 75.0363 18.785 75.269 18.4761C75.5018 18.1629 75.7853 17.9238 76.1196 17.7588C76.4539 17.5895 76.8306 17.5049 77.2495 17.5049C77.6642 17.5049 78.0282 17.5853 78.3413 17.7461C78.6545 17.9069 78.9211 18.1375 79.1411 18.438C79.3612 18.7342 79.5368 19.0897 79.668 19.5044C79.7992 19.9149 79.8923 20.3719 79.9473 20.8755V21.3008C79.8923 21.7917 79.7992 22.2402 79.668 22.6465C79.5368 23.0527 79.3612 23.404 79.1411 23.7002C78.9211 23.9964 78.6523 24.2249 78.335 24.3857C78.0218 24.5465 77.6558 24.627 77.2368 24.627C76.8221 24.627 76.4476 24.5402 76.1133 24.3667C75.7832 24.1932 75.5018 23.9499 75.269 23.6367C75.0363 23.3236 74.8586 22.9554 74.7358 22.5322C74.6131 22.1048 74.5518 21.6414 74.5518 21.1421ZM76.0815 21.0088V21.1421C76.0815 21.4552 76.109 21.7472 76.1641 22.0181C76.2233 22.2889 76.3143 22.528 76.437 22.7354C76.5597 22.9385 76.7184 23.0993 76.9131 23.2178C77.112 23.332 77.349 23.3892 77.624 23.3892C77.971 23.3892 78.2567 23.313 78.481 23.1606C78.7052 23.0083 78.8809 22.8031 79.0078 22.5449C79.139 22.2826 79.2279 21.9906 79.2744 21.6689V20.52C79.249 20.2703 79.1961 20.0376 79.1157 19.8218C79.0396 19.606 78.9359 19.4176 78.8047 19.2568C78.6735 19.0918 78.5106 18.9648 78.3159 18.876C78.1255 18.7829 77.8991 18.7363 77.6367 18.7363C77.3574 18.7363 77.1204 18.7956 76.9258 18.9141C76.7311 19.0326 76.5703 19.1955 76.4434 19.4028C76.3206 19.6102 76.2297 19.8514 76.1704 20.1265C76.1112 20.4015 76.0815 20.6956 76.0815 21.0088ZM85.1841 24.627C84.6763 24.627 84.2171 24.5444 83.8066 24.3794C83.4004 24.2101 83.0534 23.9753 82.7656 23.6748C82.4821 23.3743 82.2642 23.021 82.1118 22.6147C81.9595 22.2085 81.8833 21.7705 81.8833 21.3008V21.0469C81.8833 20.5094 81.9616 20.0228 82.1182 19.5869C82.2747 19.151 82.4927 18.7786 82.772 18.4697C83.0513 18.1566 83.3813 17.9175 83.7622 17.7524C84.1431 17.5874 84.5557 17.5049 85 17.5049C85.4909 17.5049 85.9204 17.5874 86.2886 17.7524C86.6567 17.9175 86.9614 18.1502 87.2026 18.4507C87.4481 18.7469 87.63 19.1003 87.7485 19.5107C87.8713 19.9212 87.9326 20.374 87.9326 20.8691V21.5229H82.626V20.4248H86.4219V20.3042C86.4134 20.0291 86.3584 19.771 86.2568 19.5298C86.1595 19.2886 86.0093 19.0939 85.8062 18.9458C85.603 18.7977 85.3322 18.7236 84.9937 18.7236C84.7397 18.7236 84.5133 18.7786 84.3145 18.8887C84.1198 18.9945 83.9569 19.1489 83.8257 19.3521C83.6945 19.5552 83.5929 19.8006 83.521 20.0884C83.4533 20.3719 83.4194 20.6914 83.4194 21.0469V21.3008C83.4194 21.6012 83.4596 21.8805 83.54 22.1387C83.6247 22.3926 83.7474 22.6147 83.9082 22.8052C84.069 22.9956 84.2637 23.1458 84.4922 23.2559C84.7207 23.3617 84.981 23.4146 85.2729 23.4146C85.6411 23.4146 85.9691 23.3405 86.2568 23.1924C86.5446 23.0443 86.7943 22.8348 87.0059 22.564L87.812 23.3447C87.6639 23.5605 87.4714 23.7679 87.2344 23.9668C86.9974 24.1615 86.7075 24.3201 86.3647 24.4429C86.0262 24.5656 85.6326 24.627 85.1841 24.627ZM92.979 22.6401C92.979 22.4878 92.9409 22.3503 92.8647 22.2275C92.7886 22.1006 92.6426 21.9863 92.4268 21.8848C92.2152 21.7832 91.902 21.6901 91.4873 21.6055C91.1234 21.5251 90.7891 21.4299 90.4844 21.3198C90.1839 21.2056 89.9258 21.068 89.71 20.9072C89.4941 20.7464 89.327 20.556 89.2085 20.3359C89.09 20.1159 89.0308 19.862 89.0308 19.5742C89.0308 19.2949 89.0921 19.0304 89.2148 18.7808C89.3376 18.5311 89.5132 18.311 89.7417 18.1206C89.9702 17.9302 90.2474 17.7799 90.5732 17.6699C90.9033 17.5599 91.2715 17.5049 91.6777 17.5049C92.2533 17.5049 92.7463 17.6022 93.1567 17.7969C93.5715 17.9873 93.8888 18.2476 94.1089 18.5776C94.3289 18.9035 94.439 19.2716 94.439 19.6821H92.9092C92.9092 19.5002 92.8626 19.3309 92.7695 19.1743C92.6807 19.0135 92.5452 18.8844 92.3633 18.7871C92.1813 18.6855 91.9528 18.6348 91.6777 18.6348C91.4154 18.6348 91.1974 18.6771 91.0239 18.7617C90.8547 18.8421 90.7277 18.9479 90.6431 19.0791C90.5627 19.2103 90.5225 19.3542 90.5225 19.5107C90.5225 19.625 90.5436 19.7287 90.5859 19.8218C90.6325 19.9106 90.7087 19.9932 90.8145 20.0693C90.9202 20.1413 91.0641 20.209 91.2461 20.2725C91.4323 20.3359 91.665 20.3973 91.9443 20.4565C92.4691 20.5666 92.9198 20.7083 93.2964 20.8818C93.6772 21.0511 93.9692 21.2712 94.1724 21.542C94.3755 21.8086 94.4771 22.1471 94.4771 22.5576C94.4771 22.8623 94.4115 23.1416 94.2803 23.3955C94.1533 23.6452 93.9671 23.8631 93.7217 24.0493C93.4762 24.2313 93.1821 24.373 92.8394 24.4746C92.5008 24.5762 92.12 24.627 91.6968 24.627C91.0747 24.627 90.5479 24.5169 90.1162 24.2969C89.6846 24.0726 89.3566 23.7869 89.1323 23.4399C88.9123 23.0887 88.8022 22.7248 88.8022 22.3481H90.2812C90.2982 22.6317 90.3765 22.8581 90.5161 23.0273C90.66 23.1924 90.8377 23.313 91.0493 23.3892C91.2651 23.4611 91.4873 23.4971 91.7158 23.4971C91.9909 23.4971 92.2215 23.4611 92.4077 23.3892C92.5939 23.313 92.7357 23.2114 92.833 23.0845C92.9303 22.9533 92.979 22.8052 92.979 22.6401ZM100.59 18.9521V27.1406H99.0601V17.6318H100.469L100.59 18.9521ZM105.065 21.0024V21.1357C105.065 21.6351 105.006 22.0985 104.887 22.5259C104.773 22.9491 104.602 23.3193 104.373 23.6367C104.149 23.9499 103.872 24.1932 103.542 24.3667C103.211 24.5402 102.831 24.627 102.399 24.627C101.972 24.627 101.597 24.5487 101.275 24.3921C100.958 24.2313 100.689 24.0049 100.469 23.7129C100.249 23.4209 100.071 23.0781 99.936 22.6846C99.8049 22.2868 99.7118 21.8509 99.6567 21.377V20.8628C99.7118 20.3592 99.8049 19.9022 99.936 19.4917C100.071 19.0812 100.249 18.7279 100.469 18.4316C100.689 18.1354 100.958 17.9069 101.275 17.7461C101.593 17.5853 101.963 17.5049 102.386 17.5049C102.818 17.5049 103.201 17.5895 103.535 17.7588C103.869 17.9238 104.151 18.1608 104.379 18.4697C104.608 18.7744 104.779 19.1426 104.894 19.5742C105.008 20.0016 105.065 20.4777 105.065 21.0024ZM103.535 21.1357V21.0024C103.535 20.6851 103.506 20.391 103.446 20.1201C103.387 19.8451 103.294 19.6038 103.167 19.3965C103.04 19.1891 102.877 19.0283 102.678 18.9141C102.484 18.7956 102.249 18.7363 101.974 18.7363C101.703 18.7363 101.47 18.7829 101.275 18.876C101.081 18.9648 100.918 19.0897 100.787 19.2505C100.655 19.4113 100.554 19.5996 100.482 19.8154C100.41 20.027 100.359 20.2576 100.33 20.5073V21.7388C100.38 22.0435 100.467 22.3228 100.59 22.5767C100.713 22.8306 100.886 23.0337 101.11 23.186C101.339 23.3341 101.631 23.4082 101.986 23.4082C102.261 23.4082 102.496 23.349 102.691 23.2305C102.886 23.112 103.044 22.9491 103.167 22.7417C103.294 22.5301 103.387 22.2868 103.446 22.0117C103.506 21.7367 103.535 21.4447 103.535 21.1357ZM106.074 21.1421V20.9961C106.074 20.501 106.146 20.0418 106.29 19.6187C106.434 19.1912 106.641 18.821 106.912 18.5078C107.187 18.1904 107.521 17.945 107.915 17.7715C108.313 17.5938 108.761 17.5049 109.261 17.5049C109.764 17.5049 110.213 17.5938 110.606 17.7715C111.004 17.945 111.341 18.1904 111.616 18.5078C111.891 18.821 112.1 19.1912 112.244 19.6187C112.388 20.0418 112.46 20.501 112.46 20.9961V21.1421C112.46 21.6372 112.388 22.0964 112.244 22.5195C112.1 22.9427 111.891 23.313 111.616 23.6304C111.341 23.9435 111.006 24.189 110.613 24.3667C110.219 24.5402 109.773 24.627 109.273 24.627C108.77 24.627 108.319 24.5402 107.921 24.3667C107.528 24.189 107.194 23.9435 106.918 23.6304C106.643 23.313 106.434 22.9427 106.29 22.5195C106.146 22.0964 106.074 21.6372 106.074 21.1421ZM107.604 20.9961V21.1421C107.604 21.451 107.636 21.743 107.699 22.0181C107.763 22.2931 107.862 22.5343 107.998 22.7417C108.133 22.9491 108.306 23.112 108.518 23.2305C108.73 23.349 108.981 23.4082 109.273 23.4082C109.557 23.4082 109.802 23.349 110.01 23.2305C110.221 23.112 110.395 22.9491 110.53 22.7417C110.666 22.5343 110.765 22.2931 110.829 22.0181C110.896 21.743 110.93 21.451 110.93 21.1421V20.9961C110.93 20.6914 110.896 20.4036 110.829 20.1328C110.765 19.8577 110.664 19.6144 110.524 19.4028C110.389 19.1912 110.215 19.0262 110.003 18.9077C109.796 18.785 109.549 18.7236 109.261 18.7236C108.973 18.7236 108.723 18.785 108.512 18.9077C108.304 19.0262 108.133 19.1912 107.998 19.4028C107.862 19.6144 107.763 19.8577 107.699 20.1328C107.636 20.4036 107.604 20.6914 107.604 20.9961ZM115.278 18.9395V24.5H113.749V17.6318H115.208L115.278 18.9395ZM117.379 17.5874L117.367 19.0093C117.274 18.9924 117.172 18.9797 117.062 18.9712C116.956 18.9627 116.85 18.9585 116.745 18.9585C116.482 18.9585 116.252 18.9966 116.053 19.0728C115.854 19.1447 115.687 19.2505 115.551 19.3901C115.42 19.5256 115.319 19.6906 115.247 19.8853C115.175 20.0799 115.132 20.2979 115.12 20.5391L114.771 20.5645C114.771 20.1328 114.813 19.7329 114.897 19.3647C114.982 18.9966 115.109 18.6729 115.278 18.3936C115.452 18.1143 115.668 17.8963 115.926 17.7397C116.188 17.5832 116.491 17.5049 116.833 17.5049C116.927 17.5049 117.026 17.5133 117.132 17.5303C117.242 17.5472 117.324 17.5662 117.379 17.5874ZM124.603 24.627C124.095 24.627 123.636 24.5444 123.226 24.3794C122.819 24.2101 122.472 23.9753 122.185 23.6748C121.901 23.3743 121.683 23.021 121.531 22.6147C121.378 22.2085 121.302 21.7705 121.302 21.3008V21.0469C121.302 20.5094 121.381 20.0228 121.537 19.5869C121.694 19.151 121.912 18.7786 122.191 18.4697C122.47 18.1566 122.8 17.9175 123.181 17.7524C123.562 17.5874 123.975 17.5049 124.419 17.5049C124.91 17.5049 125.339 17.5874 125.708 17.7524C126.076 17.9175 126.38 18.1502 126.622 18.4507C126.867 18.7469 127.049 19.1003 127.167 19.5107C127.29 19.9212 127.352 20.374 127.352 20.8691V21.5229H122.045V20.4248H125.841V20.3042C125.832 20.0291 125.777 19.771 125.676 19.5298C125.578 19.2886 125.428 19.0939 125.225 18.9458C125.022 18.7977 124.751 18.7236 124.413 18.7236C124.159 18.7236 123.932 18.7786 123.733 18.8887C123.539 18.9945 123.376 19.1489 123.245 19.3521C123.113 19.5552 123.012 19.8006 122.94 20.0884C122.872 20.3719 122.838 20.6914 122.838 21.0469V21.3008C122.838 21.6012 122.879 21.8805 122.959 22.1387C123.044 22.3926 123.166 22.6147 123.327 22.8052C123.488 22.9956 123.683 23.1458 123.911 23.2559C124.14 23.3617 124.4 23.4146 124.692 23.4146C125.06 23.4146 125.388 23.3405 125.676 23.1924C125.964 23.0443 126.213 22.8348 126.425 22.564L127.231 23.3447C127.083 23.5605 126.89 23.7679 126.653 23.9668C126.416 24.1615 126.126 24.3201 125.784 24.4429C125.445 24.5656 125.052 24.627 124.603 24.627ZM132.728 27.1406V18.9966L132.906 17.6318H134.271V27.1406H132.728ZM128.266 21.1357V21.0024C128.266 20.4819 128.325 20.008 128.443 19.5806C128.562 19.1489 128.737 18.7786 128.97 18.4697C129.203 18.1608 129.486 17.9238 129.821 17.7588C130.155 17.5895 130.54 17.5049 130.976 17.5049C131.399 17.5049 131.767 17.5853 132.081 17.7461C132.398 17.9069 132.665 18.1375 132.88 18.438C133.1 18.7342 133.276 19.0876 133.407 19.498C133.538 19.9085 133.634 20.3656 133.693 20.8691V21.2944C133.638 21.7853 133.545 22.2339 133.414 22.6401C133.282 23.0464 133.107 23.3976 132.887 23.6938C132.667 23.9901 132.398 24.2207 132.081 24.3857C131.763 24.5465 131.391 24.627 130.963 24.627C130.536 24.627 130.155 24.5402 129.821 24.3667C129.486 24.1932 129.203 23.9499 128.97 23.6367C128.742 23.3193 128.566 22.9491 128.443 22.5259C128.325 22.0985 128.266 21.6351 128.266 21.1357ZM129.795 21.0024V21.1357C129.795 21.4489 129.823 21.743 129.878 22.0181C129.937 22.2889 130.03 22.5301 130.157 22.7417C130.284 22.9491 130.445 23.112 130.64 23.2305C130.834 23.349 131.069 23.4082 131.344 23.4082C131.704 23.4082 131.998 23.3299 132.227 23.1733C132.459 23.0168 132.637 22.8073 132.76 22.5449C132.887 22.2783 132.976 21.9842 133.026 21.6626V20.5137C132.997 20.264 132.944 20.0312 132.868 19.8154C132.792 19.5954 132.686 19.4049 132.55 19.2441C132.419 19.0791 132.254 18.9521 132.055 18.8633C131.861 18.7702 131.628 18.7236 131.357 18.7236C131.082 18.7236 130.845 18.7829 130.646 18.9014C130.447 19.0199 130.284 19.1849 130.157 19.3965C130.035 19.6038 129.944 19.8451 129.884 20.1201C129.825 20.3952 129.795 20.6893 129.795 21.0024ZM140.041 22.8813V17.6318H141.577V24.5H140.129L140.041 22.8813ZM140.256 21.4531L140.771 21.4404C140.771 21.9017 140.72 22.327 140.618 22.7163C140.517 23.1014 140.36 23.4378 140.148 23.7256C139.937 24.0091 139.666 24.2313 139.336 24.3921C139.006 24.5487 138.61 24.627 138.149 24.627C137.815 24.627 137.508 24.5783 137.229 24.481C136.949 24.3836 136.708 24.2334 136.505 24.0303C136.306 23.8271 136.152 23.5627 136.042 23.2368C135.931 22.911 135.876 22.5216 135.876 22.0688V17.6318H137.406V22.0815C137.406 22.3312 137.436 22.5407 137.495 22.71C137.554 22.875 137.635 23.0083 137.736 23.1099C137.838 23.2114 137.956 23.2834 138.092 23.3257C138.227 23.368 138.371 23.3892 138.523 23.3892C138.959 23.3892 139.302 23.3045 139.552 23.1353C139.806 22.9618 139.986 22.729 140.091 22.437C140.201 22.145 140.256 21.8171 140.256 21.4531ZM144.782 17.6318V24.5H143.246V17.6318H144.782ZM143.145 15.8291C143.145 15.5964 143.221 15.4038 143.373 15.2515C143.53 15.0949 143.745 15.0166 144.021 15.0166C144.291 15.0166 144.505 15.0949 144.662 15.2515C144.818 15.4038 144.896 15.5964 144.896 15.8291C144.896 16.0576 144.818 16.248 144.662 16.4004C144.505 16.5527 144.291 16.6289 144.021 16.6289C143.745 16.6289 143.53 16.5527 143.373 16.4004C143.221 16.248 143.145 16.0576 143.145 15.8291ZM147.994 18.9521V27.1406H146.464V17.6318H147.874L147.994 18.9521ZM152.469 21.0024V21.1357C152.469 21.6351 152.41 22.0985 152.292 22.5259C152.177 22.9491 152.006 23.3193 151.777 23.6367C151.553 23.9499 151.276 24.1932 150.946 24.3667C150.616 24.5402 150.235 24.627 149.803 24.627C149.376 24.627 149.001 24.5487 148.68 24.3921C148.362 24.2313 148.094 24.0049 147.874 23.7129C147.653 23.4209 147.476 23.0781 147.34 22.6846C147.209 22.2868 147.116 21.8509 147.061 21.377V20.8628C147.116 20.3592 147.209 19.9022 147.34 19.4917C147.476 19.0812 147.653 18.7279 147.874 18.4316C148.094 18.1354 148.362 17.9069 148.68 17.7461C148.997 17.5853 149.367 17.5049 149.791 17.5049C150.222 17.5049 150.605 17.5895 150.939 17.7588C151.274 17.9238 151.555 18.1608 151.784 18.4697C152.012 18.7744 152.184 19.1426 152.298 19.5742C152.412 20.0016 152.469 20.4777 152.469 21.0024ZM150.939 21.1357V21.0024C150.939 20.6851 150.91 20.391 150.851 20.1201C150.791 19.8451 150.698 19.6038 150.571 19.3965C150.444 19.1891 150.281 19.0283 150.083 18.9141C149.888 18.7956 149.653 18.7363 149.378 18.7363C149.107 18.7363 148.874 18.7829 148.68 18.876C148.485 18.9648 148.322 19.0897 148.191 19.2505C148.06 19.4113 147.958 19.5996 147.886 19.8154C147.814 20.027 147.764 20.2576 147.734 20.5073V21.7388C147.785 22.0435 147.871 22.3228 147.994 22.5767C148.117 22.8306 148.29 23.0337 148.515 23.186C148.743 23.3341 149.035 23.4082 149.391 23.4082C149.666 23.4082 149.901 23.349 150.095 23.2305C150.29 23.112 150.449 22.9491 150.571 22.7417C150.698 22.5301 150.791 22.2868 150.851 22.0117C150.91 21.7367 150.939 21.4447 150.939 21.1357ZM156.798 24.627C156.291 24.627 155.831 24.5444 155.421 24.3794C155.015 24.2101 154.668 23.9753 154.38 23.6748C154.096 23.3743 153.878 23.021 153.726 22.6147C153.574 22.2085 153.498 21.7705 153.498 21.3008V21.0469C153.498 20.5094 153.576 20.0228 153.732 19.5869C153.889 19.151 154.107 18.7786 154.386 18.4697C154.666 18.1566 154.996 17.9175 155.376 17.7524C155.757 17.5874 156.17 17.5049 156.614 17.5049C157.105 17.5049 157.535 17.5874 157.903 17.7524C158.271 17.9175 158.576 18.1502 158.817 18.4507C159.062 18.7469 159.244 19.1003 159.363 19.5107C159.486 19.9212 159.547 20.374 159.547 20.8691V21.5229H154.24V20.4248H158.036V20.3042C158.028 20.0291 157.973 19.771 157.871 19.5298C157.774 19.2886 157.624 19.0939 157.42 18.9458C157.217 18.7977 156.946 18.7236 156.608 18.7236C156.354 18.7236 156.128 18.7786 155.929 18.8887C155.734 18.9945 155.571 19.1489 155.44 19.3521C155.309 19.5552 155.207 19.8006 155.135 20.0884C155.068 20.3719 155.034 20.6914 155.034 21.0469V21.3008C155.034 21.6012 155.074 21.8805 155.154 22.1387C155.239 22.3926 155.362 22.6147 155.522 22.8052C155.683 22.9956 155.878 23.1458 156.106 23.2559C156.335 23.3617 156.595 23.4146 156.887 23.4146C157.255 23.4146 157.583 23.3405 157.871 23.1924C158.159 23.0443 158.409 22.8348 158.62 22.564L159.426 23.3447C159.278 23.5605 159.086 23.7679 158.849 23.9668C158.612 24.1615 158.322 24.3201 157.979 24.4429C157.64 24.5656 157.247 24.627 156.798 24.627ZM164.593 22.6401C164.593 22.4878 164.555 22.3503 164.479 22.2275C164.403 22.1006 164.257 21.9863 164.041 21.8848C163.829 21.7832 163.516 21.6901 163.102 21.6055C162.738 21.5251 162.403 21.4299 162.099 21.3198C161.798 21.2056 161.54 21.068 161.324 20.9072C161.108 20.7464 160.941 20.556 160.823 20.3359C160.704 20.1159 160.645 19.862 160.645 19.5742C160.645 19.2949 160.706 19.0304 160.829 18.7808C160.952 18.5311 161.127 18.311 161.356 18.1206C161.584 17.9302 161.862 17.7799 162.188 17.6699C162.518 17.5599 162.886 17.5049 163.292 17.5049C163.868 17.5049 164.361 17.6022 164.771 17.7969C165.186 17.9873 165.503 18.2476 165.723 18.5776C165.943 18.9035 166.053 19.2716 166.053 19.6821H164.523C164.523 19.5002 164.477 19.3309 164.384 19.1743C164.295 19.0135 164.16 18.8844 163.978 18.7871C163.796 18.6855 163.567 18.6348 163.292 18.6348C163.03 18.6348 162.812 18.6771 162.638 18.7617C162.469 18.8421 162.342 18.9479 162.257 19.0791C162.177 19.2103 162.137 19.3542 162.137 19.5107C162.137 19.625 162.158 19.7287 162.2 19.8218C162.247 19.9106 162.323 19.9932 162.429 20.0693C162.535 20.1413 162.678 20.209 162.86 20.2725C163.047 20.3359 163.279 20.3973 163.559 20.4565C164.083 20.5666 164.534 20.7083 164.911 20.8818C165.292 21.0511 165.583 21.2712 165.787 21.542C165.99 21.8086 166.091 22.1471 166.091 22.5576C166.091 22.8623 166.026 23.1416 165.895 23.3955C165.768 23.6452 165.581 23.8631 165.336 24.0493C165.09 24.2313 164.796 24.373 164.454 24.4746C164.115 24.5762 163.734 24.627 163.311 24.627C162.689 24.627 162.162 24.5169 161.73 24.2969C161.299 24.0726 160.971 23.7869 160.747 23.4399C160.527 23.0887 160.417 22.7248 160.417 22.3481H161.896C161.912 22.6317 161.991 22.8581 162.13 23.0273C162.274 23.1924 162.452 23.313 162.664 23.3892C162.879 23.4611 163.102 23.4971 163.33 23.4971C163.605 23.4971 163.836 23.4611 164.022 23.3892C164.208 23.313 164.35 23.2114 164.447 23.0845C164.545 22.9533 164.593 22.8052 164.593 22.6401Z" fill="white"/>
<path d="M208.587 15.2578H210.009L212.681 22.3862L215.347 15.2578H216.769L213.24 24.5H212.11L208.587 15.2578ZM207.939 15.2578H209.292L209.526 21.4277V24.5H207.939V15.2578ZM216.064 15.2578H217.423V24.5H215.83V21.4277L216.064 15.2578ZM218.87 21.1421V20.9961C218.87 20.501 218.942 20.0418 219.086 19.6187C219.23 19.1912 219.437 18.821 219.708 18.5078C219.983 18.1904 220.317 17.945 220.711 17.7715C221.109 17.5938 221.557 17.5049 222.057 17.5049C222.56 17.5049 223.009 17.5938 223.402 17.7715C223.8 17.945 224.137 18.1904 224.412 18.5078C224.687 18.821 224.896 19.1912 225.04 19.6187C225.184 20.0418 225.256 20.501 225.256 20.9961V21.1421C225.256 21.6372 225.184 22.0964 225.04 22.5195C224.896 22.9427 224.687 23.313 224.412 23.6304C224.137 23.9435 223.802 24.189 223.409 24.3667C223.015 24.5402 222.569 24.627 222.069 24.627C221.566 24.627 221.115 24.5402 220.717 24.3667C220.324 24.189 219.989 23.9435 219.714 23.6304C219.439 23.313 219.23 22.9427 219.086 22.5195C218.942 22.0964 218.87 21.6372 218.87 21.1421ZM220.4 20.9961V21.1421C220.4 21.451 220.432 21.743 220.495 22.0181C220.559 22.2931 220.658 22.5343 220.793 22.7417C220.929 22.9491 221.102 23.112 221.314 23.2305C221.526 23.349 221.777 23.4082 222.069 23.4082C222.353 23.4082 222.598 23.349 222.806 23.2305C223.017 23.112 223.191 22.9491 223.326 22.7417C223.462 22.5343 223.561 22.2931 223.625 22.0181C223.692 21.743 223.726 21.451 223.726 21.1421V20.9961C223.726 20.6914 223.692 20.4036 223.625 20.1328C223.561 19.8577 223.459 19.6144 223.32 19.4028C223.184 19.1912 223.011 19.0262 222.799 18.9077C222.592 18.785 222.344 18.7236 222.057 18.7236C221.769 18.7236 221.519 18.785 221.308 18.9077C221.1 19.0262 220.929 19.1912 220.793 19.4028C220.658 19.6144 220.559 19.8577 220.495 20.1328C220.432 20.4036 220.4 20.6914 220.4 20.9961ZM230.728 23.0781V14.75H232.264V24.5H230.874L230.728 23.0781ZM226.259 21.1421V21.0088C226.259 20.4883 226.32 20.0143 226.443 19.5869C226.566 19.1553 226.743 18.785 226.976 18.4761C227.209 18.1629 227.492 17.9238 227.827 17.7588C228.161 17.5895 228.538 17.5049 228.957 17.5049C229.371 17.5049 229.735 17.5853 230.048 17.7461C230.361 17.9069 230.628 18.1375 230.848 18.438C231.068 18.7342 231.244 19.0897 231.375 19.5044C231.506 19.9149 231.599 20.3719 231.654 20.8755V21.3008C231.599 21.7917 231.506 22.2402 231.375 22.6465C231.244 23.0527 231.068 23.404 230.848 23.7002C230.628 23.9964 230.359 24.2249 230.042 24.3857C229.729 24.5465 229.363 24.627 228.944 24.627C228.529 24.627 228.155 24.5402 227.82 24.3667C227.49 24.1932 227.209 23.9499 226.976 23.6367C226.743 23.3236 226.566 22.9554 226.443 22.5322C226.32 22.1048 226.259 21.6414 226.259 21.1421ZM227.789 21.0088V21.1421C227.789 21.4552 227.816 21.7472 227.871 22.0181C227.93 22.2889 228.021 22.528 228.144 22.7354C228.267 22.9385 228.425 23.0993 228.62 23.2178C228.819 23.332 229.056 23.3892 229.331 23.3892C229.678 23.3892 229.964 23.313 230.188 23.1606C230.412 23.0083 230.588 22.8031 230.715 22.5449C230.846 22.2826 230.935 21.9906 230.981 21.6689V20.52C230.956 20.2703 230.903 20.0376 230.823 19.8218C230.747 19.606 230.643 19.4176 230.512 19.2568C230.381 19.0918 230.218 18.9648 230.023 18.876C229.833 18.7829 229.606 18.7363 229.344 18.7363C229.064 18.7363 228.827 18.7956 228.633 18.9141C228.438 19.0326 228.277 19.1955 228.15 19.4028C228.028 19.6102 227.937 19.8514 227.877 20.1265C227.818 20.4015 227.789 20.6956 227.789 21.0088ZM237.735 23.1226V19.8472C237.735 19.6017 237.691 19.3901 237.602 19.2124C237.513 19.0347 237.378 18.8971 237.196 18.7998C237.018 18.7025 236.794 18.6538 236.523 18.6538C236.273 18.6538 236.057 18.6961 235.875 18.7808C235.694 18.8654 235.552 18.9797 235.45 19.1235C235.349 19.2674 235.298 19.4303 235.298 19.6123H233.774C233.774 19.3415 233.84 19.0791 233.971 18.8252C234.102 18.5713 234.293 18.3449 234.542 18.146C234.792 17.9471 235.09 17.7905 235.438 17.6763C235.785 17.562 236.174 17.5049 236.605 17.5049C237.122 17.5049 237.579 17.5916 237.977 17.7651C238.379 17.9386 238.694 18.201 238.922 18.5522C239.155 18.8993 239.271 19.3351 239.271 19.8599V22.9131C239.271 23.2262 239.293 23.5076 239.335 23.7573C239.382 24.0028 239.447 24.2165 239.532 24.3984V24.5H237.964C237.892 24.335 237.835 24.1255 237.792 23.8716C237.754 23.6134 237.735 23.3638 237.735 23.1226ZM237.958 20.3232L237.97 21.269H236.872C236.589 21.269 236.339 21.2965 236.123 21.3516C235.907 21.4023 235.727 21.4785 235.583 21.5801C235.44 21.6816 235.332 21.8044 235.26 21.9482C235.188 22.0921 235.152 22.255 235.152 22.437C235.152 22.619 235.194 22.7861 235.279 22.9385C235.363 23.0866 235.486 23.203 235.647 23.2876C235.812 23.3722 236.011 23.4146 236.244 23.4146C236.557 23.4146 236.83 23.3511 237.062 23.2241C237.299 23.0929 237.486 22.9342 237.621 22.748C237.757 22.5576 237.828 22.3778 237.837 22.2085L238.332 22.8877C238.281 23.0612 238.194 23.2474 238.072 23.4463C237.949 23.6452 237.788 23.8356 237.589 24.0176C237.395 24.1953 237.16 24.3413 236.885 24.4556C236.614 24.5698 236.301 24.627 235.945 24.627C235.497 24.627 235.097 24.5381 234.746 24.3604C234.394 24.1784 234.119 23.9351 233.92 23.6304C233.722 23.3215 233.622 22.9723 233.622 22.583C233.622 22.2191 233.69 21.8975 233.825 21.6182C233.965 21.3346 234.168 21.0977 234.435 20.9072C234.705 20.7168 235.035 20.5729 235.425 20.4756C235.814 20.374 236.258 20.3232 236.758 20.3232H237.958ZM242.509 14.75V24.5H240.973V14.75H242.509ZM245.822 17.6318V24.5H244.286V17.6318H245.822ZM244.185 15.8291C244.185 15.5964 244.261 15.4038 244.413 15.2515C244.57 15.0949 244.785 15.0166 245.061 15.0166C245.331 15.0166 245.545 15.0949 245.702 15.2515C245.858 15.4038 245.937 15.5964 245.937 15.8291C245.937 16.0576 245.858 16.248 245.702 16.4004C245.545 16.5527 245.331 16.6289 245.061 16.6289C244.785 16.6289 244.57 16.5527 244.413 16.4004C244.261 16.248 244.185 16.0576 244.185 15.8291ZM251.688 23.0781V14.75H253.224V24.5H251.833L251.688 23.0781ZM247.219 21.1421V21.0088C247.219 20.4883 247.28 20.0143 247.403 19.5869C247.526 19.1553 247.703 18.785 247.936 18.4761C248.169 18.1629 248.452 17.9238 248.787 17.7588C249.121 17.5895 249.498 17.5049 249.917 17.5049C250.331 17.5049 250.695 17.5853 251.008 17.7461C251.321 17.9069 251.588 18.1375 251.808 18.438C252.028 18.7342 252.204 19.0897 252.335 19.5044C252.466 19.9149 252.559 20.3719 252.614 20.8755V21.3008C252.559 21.7917 252.466 22.2402 252.335 22.6465C252.204 23.0527 252.028 23.404 251.808 23.7002C251.588 23.9964 251.319 24.2249 251.002 24.3857C250.689 24.5465 250.323 24.627 249.904 24.627C249.489 24.627 249.115 24.5402 248.78 24.3667C248.45 24.1932 248.169 23.9499 247.936 23.6367C247.703 23.3236 247.526 22.9554 247.403 22.5322C247.28 22.1048 247.219 21.6414 247.219 21.1421ZM248.749 21.0088V21.1421C248.749 21.4552 248.776 21.7472 248.831 22.0181C248.89 22.2889 248.981 22.528 249.104 22.7354C249.227 22.9385 249.385 23.0993 249.58 23.2178C249.779 23.332 250.016 23.3892 250.291 23.3892C250.638 23.3892 250.924 23.313 251.148 23.1606C251.372 23.0083 251.548 22.8031 251.675 22.5449C251.806 22.2826 251.895 21.9906 251.941 21.6689V20.52C251.916 20.2703 251.863 20.0376 251.783 19.8218C251.707 19.606 251.603 19.4176 251.472 19.2568C251.34 19.0918 251.178 18.9648 250.983 18.876C250.792 18.7829 250.566 18.7363 250.304 18.7363C250.024 18.7363 249.787 18.7956 249.593 18.9141C249.398 19.0326 249.237 19.1955 249.11 19.4028C248.988 19.6102 248.897 19.8514 248.837 20.1265C248.778 20.4015 248.749 20.6956 248.749 21.0088ZM258.695 23.1226V19.8472C258.695 19.6017 258.651 19.3901 258.562 19.2124C258.473 19.0347 258.338 18.8971 258.156 18.7998C257.978 18.7025 257.754 18.6538 257.483 18.6538C257.233 18.6538 257.017 18.6961 256.835 18.7808C256.653 18.8654 256.512 18.9797 256.41 19.1235C256.309 19.2674 256.258 19.4303 256.258 19.6123H254.734C254.734 19.3415 254.8 19.0791 254.931 18.8252C255.062 18.5713 255.253 18.3449 255.502 18.146C255.752 17.9471 256.05 17.7905 256.397 17.6763C256.744 17.562 257.134 17.5049 257.565 17.5049C258.082 17.5049 258.539 17.5916 258.937 17.7651C259.339 17.9386 259.654 18.201 259.882 18.5522C260.115 18.8993 260.231 19.3351 260.231 19.8599V22.9131C260.231 23.2262 260.253 23.5076 260.295 23.7573C260.341 24.0028 260.407 24.2165 260.492 24.3984V24.5H258.924C258.852 24.335 258.795 24.1255 258.752 23.8716C258.714 23.6134 258.695 23.3638 258.695 23.1226ZM258.917 20.3232L258.93 21.269H257.832C257.549 21.269 257.299 21.2965 257.083 21.3516C256.867 21.4023 256.687 21.4785 256.543 21.5801C256.4 21.6816 256.292 21.8044 256.22 21.9482C256.148 22.0921 256.112 22.255 256.112 22.437C256.112 22.619 256.154 22.7861 256.239 22.9385C256.323 23.0866 256.446 23.203 256.607 23.2876C256.772 23.3722 256.971 23.4146 257.204 23.4146C257.517 23.4146 257.79 23.3511 258.022 23.2241C258.259 23.0929 258.446 22.9342 258.581 22.748C258.716 22.5576 258.788 22.3778 258.797 22.2085L259.292 22.8877C259.241 23.0612 259.154 23.2474 259.032 23.4463C258.909 23.6452 258.748 23.8356 258.549 24.0176C258.355 24.1953 258.12 24.3413 257.845 24.4556C257.574 24.5698 257.261 24.627 256.905 24.627C256.457 24.627 256.057 24.5381 255.706 24.3604C255.354 24.1784 255.079 23.9351 254.88 23.6304C254.681 23.3215 254.582 22.9723 254.582 22.583C254.582 22.2191 254.65 21.8975 254.785 21.6182C254.925 21.3346 255.128 21.0977 255.395 20.9072C255.665 20.7168 255.995 20.5729 256.385 20.4756C256.774 20.374 257.218 20.3232 257.718 20.3232H258.917ZM266.021 23.0781V14.75H267.557V24.5H266.167L266.021 23.0781ZM261.552 21.1421V21.0088C261.552 20.4883 261.613 20.0143 261.736 19.5869C261.859 19.1553 262.036 18.785 262.269 18.4761C262.502 18.1629 262.785 17.9238 263.12 17.7588C263.454 17.5895 263.831 17.5049 264.25 17.5049C264.664 17.5049 265.028 17.5853 265.341 17.7461C265.654 17.9069 265.921 18.1375 266.141 18.438C266.361 18.7342 266.537 19.0897 266.668 19.5044C266.799 19.9149 266.892 20.3719 266.947 20.8755V21.3008C266.892 21.7917 266.799 22.2402 266.668 22.6465C266.537 23.0527 266.361 23.404 266.141 23.7002C265.921 23.9964 265.652 24.2249 265.335 24.3857C265.022 24.5465 264.656 24.627 264.237 24.627C263.822 24.627 263.448 24.5402 263.113 24.3667C262.783 24.1932 262.502 23.9499 262.269 23.6367C262.036 23.3236 261.859 22.9554 261.736 22.5322C261.613 22.1048 261.552 21.6414 261.552 21.1421ZM263.082 21.0088V21.1421C263.082 21.4552 263.109 21.7472 263.164 22.0181C263.223 22.2889 263.314 22.528 263.437 22.7354C263.56 22.9385 263.718 23.0993 263.913 23.2178C264.112 23.332 264.349 23.3892 264.624 23.3892C264.971 23.3892 265.257 23.313 265.481 23.1606C265.705 23.0083 265.881 22.8031 266.008 22.5449C266.139 22.2826 266.228 21.9906 266.274 21.6689V20.52C266.249 20.2703 266.196 20.0376 266.116 19.8218C266.04 19.606 265.936 19.4176 265.805 19.2568C265.674 19.0918 265.511 18.9648 265.316 18.876C265.125 18.7829 264.899 18.7363 264.637 18.7363C264.357 18.7363 264.12 18.7956 263.926 18.9141C263.731 19.0326 263.57 19.1955 263.443 19.4028C263.321 19.6102 263.23 19.8514 263.17 20.1265C263.111 20.4015 263.082 20.6956 263.082 21.0088ZM272.184 24.627C271.676 24.627 271.217 24.5444 270.807 24.3794C270.4 24.2101 270.053 23.9753 269.766 23.6748C269.482 23.3743 269.264 23.021 269.112 22.6147C268.959 22.2085 268.883 21.7705 268.883 21.3008V21.0469C268.883 20.5094 268.962 20.0228 269.118 19.5869C269.275 19.151 269.493 18.7786 269.772 18.4697C270.051 18.1566 270.381 17.9175 270.762 17.7524C271.143 17.5874 271.556 17.5049 272 17.5049C272.491 17.5049 272.92 17.5874 273.289 17.7524C273.657 17.9175 273.961 18.1502 274.203 18.4507C274.448 18.7469 274.63 19.1003 274.749 19.5107C274.871 19.9212 274.933 20.374 274.933 20.8691V21.5229H269.626V20.4248H273.422V20.3042C273.413 20.0291 273.358 19.771 273.257 19.5298C273.16 19.2886 273.009 19.0939 272.806 18.9458C272.603 18.7977 272.332 18.7236 271.994 18.7236C271.74 18.7236 271.513 18.7786 271.314 18.8887C271.12 18.9945 270.957 19.1489 270.826 19.3521C270.694 19.5552 270.593 19.8006 270.521 20.0884C270.453 20.3719 270.419 20.6914 270.419 21.0469V21.3008C270.419 21.6012 270.46 21.8805 270.54 22.1387C270.625 22.3926 270.747 22.6147 270.908 22.8052C271.069 22.9956 271.264 23.1458 271.492 23.2559C271.721 23.3617 271.981 23.4146 272.273 23.4146C272.641 23.4146 272.969 23.3405 273.257 23.1924C273.545 23.0443 273.794 22.8348 274.006 22.564L274.812 23.3447C274.664 23.5605 274.471 23.7679 274.234 23.9668C273.997 24.1615 273.708 24.3201 273.365 24.4429C273.026 24.5656 272.633 24.627 272.184 24.627ZM279.979 22.6401C279.979 22.4878 279.941 22.3503 279.865 22.2275C279.789 22.1006 279.643 21.9863 279.427 21.8848C279.215 21.7832 278.902 21.6901 278.487 21.6055C278.123 21.5251 277.789 21.4299 277.484 21.3198C277.184 21.2056 276.926 21.068 276.71 20.9072C276.494 20.7464 276.327 20.556 276.208 20.3359C276.09 20.1159 276.031 19.862 276.031 19.5742C276.031 19.2949 276.092 19.0304 276.215 18.7808C276.338 18.5311 276.513 18.311 276.742 18.1206C276.97 17.9302 277.247 17.7799 277.573 17.6699C277.903 17.5599 278.271 17.5049 278.678 17.5049C279.253 17.5049 279.746 17.6022 280.157 17.7969C280.571 17.9873 280.889 18.2476 281.109 18.5776C281.329 18.9035 281.439 19.2716 281.439 19.6821H279.909C279.909 19.5002 279.863 19.3309 279.77 19.1743C279.681 19.0135 279.545 18.8844 279.363 18.7871C279.181 18.6855 278.953 18.6348 278.678 18.6348C278.415 18.6348 278.197 18.6771 278.024 18.7617C277.855 18.8421 277.728 18.9479 277.643 19.0791C277.563 19.2103 277.522 19.3542 277.522 19.5107C277.522 19.625 277.544 19.7287 277.586 19.8218C277.632 19.9106 277.709 19.9932 277.814 20.0693C277.92 20.1413 278.064 20.209 278.246 20.2725C278.432 20.3359 278.665 20.3973 278.944 20.4565C279.469 20.5666 279.92 20.7083 280.296 20.8818C280.677 21.0511 280.969 21.2712 281.172 21.542C281.375 21.8086 281.477 22.1471 281.477 22.5576C281.477 22.8623 281.411 23.1416 281.28 23.3955C281.153 23.6452 280.967 23.8631 280.722 24.0493C280.476 24.2313 280.182 24.373 279.839 24.4746C279.501 24.5762 279.12 24.627 278.697 24.627C278.075 24.627 277.548 24.5169 277.116 24.2969C276.685 24.0726 276.357 23.7869 276.132 23.4399C275.912 23.0887 275.802 22.7248 275.802 22.3481H277.281C277.298 22.6317 277.376 22.8581 277.516 23.0273C277.66 23.1924 277.838 23.313 278.049 23.3892C278.265 23.4611 278.487 23.4971 278.716 23.4971C278.991 23.4971 279.222 23.4611 279.408 23.3892C279.594 23.313 279.736 23.2114 279.833 23.0845C279.93 22.9533 279.979 22.8052 279.979 22.6401ZM287.691 17.6318V24.5H286.155V17.6318H287.691ZM286.054 15.8291C286.054 15.5964 286.13 15.4038 286.282 15.2515C286.439 15.0949 286.655 15.0166 286.93 15.0166C287.201 15.0166 287.414 15.0949 287.571 15.2515C287.727 15.4038 287.806 15.5964 287.806 15.8291C287.806 16.0576 287.727 16.248 287.571 16.4004C287.414 16.5527 287.201 16.6289 286.93 16.6289C286.655 16.6289 286.439 16.5527 286.282 16.4004C286.13 16.248 286.054 16.0576 286.054 15.8291ZM290.884 19.0981V24.5H289.354V17.6318H290.795L290.884 19.0981ZM290.611 20.812L290.116 20.8057C290.12 20.319 290.188 19.8726 290.319 19.4663C290.455 19.0601 290.641 18.7109 290.878 18.4189C291.119 18.127 291.407 17.9027 291.741 17.7461C292.076 17.5853 292.448 17.5049 292.858 17.5049C293.188 17.5049 293.487 17.5514 293.753 17.6445C294.024 17.7334 294.255 17.8794 294.445 18.0825C294.64 18.2856 294.788 18.5501 294.89 18.876C294.991 19.1976 295.042 19.5933 295.042 20.063V24.5H293.506V20.0566C293.506 19.7266 293.457 19.4663 293.36 19.2759C293.267 19.0812 293.129 18.9437 292.947 18.8633C292.77 18.7786 292.547 18.7363 292.281 18.7363C292.018 18.7363 291.784 18.7913 291.576 18.9014C291.369 19.0114 291.193 19.1616 291.049 19.3521C290.91 19.5425 290.802 19.7625 290.726 20.0122C290.649 20.2619 290.611 20.5285 290.611 20.812ZM300.793 23.0781V14.75H302.329V24.5H300.939L300.793 23.0781ZM296.324 21.1421V21.0088C296.324 20.4883 296.386 20.0143 296.508 19.5869C296.631 19.1553 296.809 18.785 297.042 18.4761C297.274 18.1629 297.558 17.9238 297.892 17.7588C298.226 17.5895 298.603 17.5049 299.022 17.5049C299.437 17.5049 299.801 17.5853 300.114 17.7461C300.427 17.9069 300.694 18.1375 300.914 18.438C301.134 18.7342 301.309 19.0897 301.44 19.5044C301.572 19.9149 301.665 20.3719 301.72 20.8755V21.3008C301.665 21.7917 301.572 22.2402 301.44 22.6465C301.309 23.0527 301.134 23.404 300.914 23.7002C300.694 23.9964 300.425 24.2249 300.107 24.3857C299.794 24.5465 299.428 24.627 299.009 24.627C298.595 24.627 298.22 24.5402 297.886 24.3667C297.556 24.1932 297.274 23.9499 297.042 23.6367C296.809 23.3236 296.631 22.9554 296.508 22.5322C296.386 22.1048 296.324 21.6414 296.324 21.1421ZM297.854 21.0088V21.1421C297.854 21.4552 297.882 21.7472 297.937 22.0181C297.996 22.2889 298.087 22.528 298.209 22.7354C298.332 22.9385 298.491 23.0993 298.686 23.2178C298.884 23.332 299.121 23.3892 299.396 23.3892C299.743 23.3892 300.029 23.313 300.253 23.1606C300.478 23.0083 300.653 22.8031 300.78 22.5449C300.911 22.2826 301 21.9906 301.047 21.6689V20.52C301.021 20.2703 300.969 20.0376 300.888 19.8218C300.812 19.606 300.708 19.4176 300.577 19.2568C300.446 19.0918 300.283 18.9648 300.088 18.876C299.898 18.7829 299.672 18.7363 299.409 18.7363C299.13 18.7363 298.893 18.7956 298.698 18.9141C298.504 19.0326 298.343 19.1955 298.216 19.4028C298.093 19.6102 298.002 19.8514 297.943 20.1265C297.884 20.4015 297.854 20.6956 297.854 21.0088ZM305.566 17.6318V24.5H304.03V17.6318H305.566ZM303.929 15.8291C303.929 15.5964 304.005 15.4038 304.157 15.2515C304.314 15.0949 304.53 15.0166 304.805 15.0166C305.076 15.0166 305.289 15.0949 305.446 15.2515C305.602 15.4038 305.681 15.5964 305.681 15.8291C305.681 16.0576 305.602 16.248 305.446 16.4004C305.289 16.5527 305.076 16.6289 304.805 16.6289C304.53 16.6289 304.314 16.5527 304.157 16.4004C304.005 16.248 303.929 16.0576 303.929 15.8291ZM309.477 23.2876L311.159 17.6318H312.746L310.359 24.5H309.369L309.477 23.2876ZM308.188 17.6318L309.902 23.313L309.984 24.5H308.994L306.595 17.6318H308.188ZM315.329 17.6318V24.5H313.793V17.6318H315.329ZM313.691 15.8291C313.691 15.5964 313.768 15.4038 313.92 15.2515C314.076 15.0949 314.292 15.0166 314.567 15.0166C314.838 15.0166 315.052 15.0949 315.208 15.2515C315.365 15.4038 315.443 15.5964 315.443 15.8291C315.443 16.0576 315.365 16.248 315.208 16.4004C315.052 16.5527 314.838 16.6289 314.567 16.6289C314.292 16.6289 314.076 16.5527 313.92 16.4004C313.768 16.248 313.691 16.0576 313.691 15.8291ZM321.194 23.0781V14.75H322.73V24.5H321.34L321.194 23.0781ZM316.726 21.1421V21.0088C316.726 20.4883 316.787 20.0143 316.91 19.5869C317.032 19.1553 317.21 18.785 317.443 18.4761C317.676 18.1629 317.959 17.9238 318.293 17.7588C318.628 17.5895 319.004 17.5049 319.423 17.5049C319.838 17.5049 320.202 17.5853 320.515 17.7461C320.828 17.9069 321.095 18.1375 321.315 18.438C321.535 18.7342 321.711 19.0897 321.842 19.5044C321.973 19.9149 322.066 20.3719 322.121 20.8755V21.3008C322.066 21.7917 321.973 22.2402 321.842 22.6465C321.711 23.0527 321.535 23.404 321.315 23.7002C321.095 23.9964 320.826 24.2249 320.509 24.3857C320.196 24.5465 319.83 24.627 319.411 24.627C318.996 24.627 318.621 24.5402 318.287 24.3667C317.957 24.1932 317.676 23.9499 317.443 23.6367C317.21 23.3236 317.032 22.9554 316.91 22.5322C316.787 22.1048 316.726 21.6414 316.726 21.1421ZM318.255 21.0088V21.1421C318.255 21.4552 318.283 21.7472 318.338 22.0181C318.397 22.2889 318.488 22.528 318.611 22.7354C318.734 22.9385 318.892 23.0993 319.087 23.2178C319.286 23.332 319.523 23.3892 319.798 23.3892C320.145 23.3892 320.431 23.313 320.655 23.1606C320.879 23.0083 321.055 22.8031 321.182 22.5449C321.313 22.2826 321.402 21.9906 321.448 21.6689V20.52C321.423 20.2703 321.37 20.0376 321.29 19.8218C321.213 19.606 321.11 19.4176 320.979 19.2568C320.847 19.0918 320.684 18.9648 320.49 18.876C320.299 18.7829 320.073 18.7363 319.811 18.7363C319.531 18.7363 319.294 18.7956 319.1 18.9141C318.905 19.0326 318.744 19.1955 318.617 19.4028C318.494 19.6102 318.403 19.8514 318.344 20.1265C318.285 20.4015 318.255 20.6956 318.255 21.0088ZM328.462 22.8813V17.6318H329.999V24.5H328.551L328.462 22.8813ZM328.678 21.4531L329.192 21.4404C329.192 21.9017 329.142 22.327 329.04 22.7163C328.938 23.1014 328.782 23.4378 328.57 23.7256C328.359 24.0091 328.088 24.2313 327.758 24.3921C327.428 24.5487 327.032 24.627 326.571 24.627C326.236 24.627 325.93 24.5783 325.65 24.481C325.371 24.3836 325.13 24.2334 324.927 24.0303C324.728 23.8271 324.573 23.5627 324.463 23.2368C324.353 22.911 324.298 22.5216 324.298 22.0688V17.6318H325.828V22.0815C325.828 22.3312 325.858 22.5407 325.917 22.71C325.976 22.875 326.057 23.0083 326.158 23.1099C326.26 23.2114 326.378 23.2834 326.514 23.3257C326.649 23.368 326.793 23.3892 326.945 23.3892C327.381 23.3892 327.724 23.3045 327.974 23.1353C328.228 22.9618 328.407 22.729 328.513 22.437C328.623 22.145 328.678 21.8171 328.678 21.4531ZM335.438 23.1226V19.8472C335.438 19.6017 335.394 19.3901 335.305 19.2124C335.216 19.0347 335.081 18.8971 334.899 18.7998C334.721 18.7025 334.497 18.6538 334.226 18.6538C333.976 18.6538 333.761 18.6961 333.579 18.7808C333.397 18.8654 333.255 18.9797 333.153 19.1235C333.052 19.2674 333.001 19.4303 333.001 19.6123H331.478C331.478 19.3415 331.543 19.0791 331.674 18.8252C331.806 18.5713 331.996 18.3449 332.246 18.146C332.495 17.9471 332.794 17.7905 333.141 17.6763C333.488 17.562 333.877 17.5049 334.309 17.5049C334.825 17.5049 335.282 17.5916 335.68 17.7651C336.082 17.9386 336.397 18.201 336.625 18.5522C336.858 18.8993 336.975 19.3351 336.975 19.8599V22.9131C336.975 23.2262 336.996 23.5076 337.038 23.7573C337.085 24.0028 337.15 24.2165 337.235 24.3984V24.5H335.667C335.595 24.335 335.538 24.1255 335.496 23.8716C335.458 23.6134 335.438 23.3638 335.438 23.1226ZM335.661 20.3232L335.673 21.269H334.575C334.292 21.269 334.042 21.2965 333.826 21.3516C333.61 21.4023 333.431 21.4785 333.287 21.5801C333.143 21.6816 333.035 21.8044 332.963 21.9482C332.891 22.0921 332.855 22.255 332.855 22.437C332.855 22.619 332.897 22.7861 332.982 22.9385C333.067 23.0866 333.189 23.203 333.35 23.2876C333.515 23.3722 333.714 23.4146 333.947 23.4146C334.26 23.4146 334.533 23.3511 334.766 23.2241C335.003 23.0929 335.189 22.9342 335.324 22.748C335.46 22.5576 335.532 22.3778 335.54 22.2085L336.035 22.8877C335.984 23.0612 335.898 23.2474 335.775 23.4463C335.652 23.6452 335.491 23.8356 335.292 24.0176C335.098 24.1953 334.863 24.3413 334.588 24.4556C334.317 24.5698 334.004 24.627 333.648 24.627C333.2 24.627 332.8 24.5381 332.449 24.3604C332.097 24.1784 331.822 23.9351 331.624 23.6304C331.425 23.3215 331.325 22.9723 331.325 22.583C331.325 22.2191 331.393 21.8975 331.528 21.6182C331.668 21.3346 331.871 21.0977 332.138 20.9072C332.409 20.7168 332.739 20.5729 333.128 20.4756C333.517 20.374 333.962 20.3232 334.461 20.3232H335.661ZM340.212 17.6318V24.5H338.676V17.6318H340.212ZM338.574 15.8291C338.574 15.5964 338.65 15.4038 338.803 15.2515C338.959 15.0949 339.175 15.0166 339.45 15.0166C339.721 15.0166 339.935 15.0949 340.091 15.2515C340.248 15.4038 340.326 15.5964 340.326 15.8291C340.326 16.0576 340.248 16.248 340.091 16.4004C339.935 16.5527 339.721 16.6289 339.45 16.6289C339.175 16.6289 338.959 16.5527 338.803 16.4004C338.65 16.248 338.574 16.0576 338.574 15.8291ZM345.741 22.6401C345.741 22.4878 345.703 22.3503 345.626 22.2275C345.55 22.1006 345.404 21.9863 345.188 21.8848C344.977 21.7832 344.664 21.6901 344.249 21.6055C343.885 21.5251 343.551 21.4299 343.246 21.3198C342.946 21.2056 342.688 21.068 342.472 20.9072C342.256 20.7464 342.089 20.556 341.97 20.3359C341.852 20.1159 341.792 19.862 341.792 19.5742C341.792 19.2949 341.854 19.0304 341.977 18.7808C342.099 18.5311 342.275 18.311 342.503 18.1206C342.732 17.9302 343.009 17.7799 343.335 17.6699C343.665 17.5599 344.033 17.5049 344.439 17.5049C345.015 17.5049 345.508 17.6022 345.918 17.7969C346.333 17.9873 346.651 18.2476 346.871 18.5776C347.091 18.9035 347.201 19.2716 347.201 19.6821H345.671C345.671 19.5002 345.624 19.3309 345.531 19.1743C345.442 19.0135 345.307 18.8844 345.125 18.7871C344.943 18.6855 344.715 18.6348 344.439 18.6348C344.177 18.6348 343.959 18.6771 343.786 18.7617C343.616 18.8421 343.489 18.9479 343.405 19.0791C343.324 19.2103 343.284 19.3542 343.284 19.5107C343.284 19.625 343.305 19.7287 343.348 19.8218C343.394 19.9106 343.47 19.9932 343.576 20.0693C343.682 20.1413 343.826 20.209 344.008 20.2725C344.194 20.3359 344.427 20.3973 344.706 20.4565C345.231 20.5666 345.681 20.7083 346.058 20.8818C346.439 21.0511 346.731 21.2712 346.934 21.542C347.137 21.8086 347.239 22.1471 347.239 22.5576C347.239 22.8623 347.173 23.1416 347.042 23.3955C346.915 23.6452 346.729 23.8631 346.483 24.0493C346.238 24.2313 345.944 24.373 345.601 24.4746C345.263 24.5762 344.882 24.627 344.458 24.627C343.836 24.627 343.31 24.5169 342.878 24.2969C342.446 24.0726 342.118 23.7869 341.894 23.4399C341.674 23.0887 341.564 22.7248 341.564 22.3481H343.043C343.06 22.6317 343.138 22.8581 343.278 23.0273C343.422 23.1924 343.599 23.313 343.811 23.3892C344.027 23.4611 344.249 23.4971 344.478 23.4971C344.753 23.4971 344.983 23.4611 345.169 23.3892C345.356 23.313 345.497 23.2114 345.595 23.0845C345.692 22.9533 345.741 22.8052 345.741 22.6401Z" fill="#CC6237" fill-opacity="0.5"/>
</g>
<defs>
<clipPath id="clip0_143_27804">
<rect width="368" height="40" rx="20" fill="white"/>
</clipPath>
</defs>
</svg>
